{"glyphs":{"0":{"ha":1193,"x_min":0,"x_max":0,"o":"m 699 397 b 751 447 729 397 746 425 b 778 403 751 429 756 403 b 853 586 843 403 822 610 b 844 478 867 575 847 525 b 886 392 842 442 850 392 b 956 728 958 392 1007 592 b 763 860 921 821 846 871 b 601 721 682 849 613 785 b 633 647 594 679 613 647 b 669 689 646 647 660 660 b 797 786 689 749 742 786 b 878 756 825 786 853 776 b 913 424 985 667 946 431 b 911 540 892 419 908 525 b 863 611 919 588 893 611 b 817 561 836 611 822 596 b 797 474 806 481 794 442 b 782 611 804 543 824 611 b 753 581 763 611 756 600 b 717 438 751 563 747 438 b 703 463 703 438 703 463 b 711 554 703 501 711 533 b 685 590 711 579 699 590 b 646 492 647 590 646 507 b 699 397 646 447 660 397 z m 281 614 b 260 625 281 624 271 625 b 219 631 242 625 219 621 b 340 656 221 653 313 654 b 331 450 338 614 331 526 b 396 319 331 424 332 319 b 396 386 428 319 404 343 b 399 657 381 456 394 563 b 532 646 469 665 504 646 b 574 669 546 646 558 651 b 414 713 615 721 474 714 b 188 631 260 708 188 683 b 246 594 188 604 224 594 b 281 614 260 594 281 594 z m 690 596 b 718 635 710 596 718 619 b 689 669 718 653 708 669 b 660 635 669 669 660 651 b 690 596 660 614 669 596 z m 574 596 b 574 438 600 551 600 450 b 532 576 536 421 582 578 b 485 444 478 575 517 444 b 492 578 460 444 460 524 b 474 614 501 594 499 614 b 414 518 421 614 414 560 b 467 406 414 442 431 406 b 515 444 483 406 507 419 b 564 403 518 421 538 403 b 635 533 636 403 635 519 b 601 631 635 585 624 621 b 574 596 571 646 563 614 z m 657 360 b 633 393 658 381 647 393 b 608 358 614 393 608 379 l 544 357 b 519 393 544 381 538 393 b 496 357 500 393 496 378 b 414 353 435 357 403 399 b 497 325 424 314 475 325 b 453 135 494 292 504 135 b 424 192 428 135 419 172 b 436 304 465 225 494 304 b 336 136 360 304 401 136 b 289 460 269 136 379 407 b 258 468 279 465 268 468 b 242 436 244 468 233 460 b 249 211 272 347 249 288 b 311 101 249 142 272 101 b 379 135 338 101 363 117 b 435 101 390 114 413 101 b 499 158 468 101 490 128 b 551 106 497 129 525 106 b 614 161 582 106 606 136 b 661 108 618 142 636 108 b 707 157 683 108 699 139 b 767 101 710 129 736 101 b 826 164 800 101 818 138 b 851 96 826 125 836 97 b 917 269 907 90 863 260 b 935 217 944 274 953 235 b 907 204 925 206 907 218 b 944 179 907 183 929 176 b 932 301 997 190 990 301 b 869 247 907 301 875 272 b 833 303 872 272 860 297 b 814 289 826 304 814 301 b 825 226 814 269 828 260 b 772 135 822 192 808 135 b 749 192 746 135 746 174 b 769 307 808 217 826 307 b 674 153 703 307 713 153 b 657 324 643 153 656 304 b 878 329 729 324 810 325 b 1003 397 919 332 1003 338 b 990 401 1003 410 997 404 b 657 360 883 353 719 361 z m 546 325 l 608 325 b 560 146 606 299 606 143 b 546 325 533 147 547 297 z m 424 211 b 450 274 424 235 438 286 b 424 211 458 267 438 222 z m 751 211 b 778 275 753 226 764 272 l 781 275 b 788 265 785 275 788 272 b 751 211 788 258 786 228 z m 561 44 b 561 36 554 44 554 36 b 561 44 567 36 567 44 z m 601 11 l 610 11 l 610 44 l 601 44 z m 672 42 l 664 39 l 664 35 l 651 35 l 651 42 l 644 39 l 644 35 l 642 35 l 642 29 l 644 29 l 644 21 b 646 13 644 18 644 14 b 658 11 649 10 653 10 l 658 18 b 651 21 653 17 651 18 l 651 29 l 664 29 b 665 13 664 25 663 17 b 678 11 668 10 675 10 l 678 18 b 672 21 675 17 672 18 l 672 29 l 678 29 l 678 35 l 672 35 z m 507 42 l 499 39 l 499 35 l 496 35 l 496 29 l 499 29 b 500 13 499 24 497 17 b 513 11 503 10 508 10 l 513 18 b 507 21 508 17 507 18 l 507 29 l 513 29 l 513 35 l 507 35 z m 822 36 b 813 31 817 36 815 35 b 799 33 811 38 803 38 l 797 35 l 792 35 l 792 11 l 799 11 l 799 25 b 803 29 799 26 800 29 b 807 24 807 29 807 26 l 807 11 l 814 11 l 814 24 b 824 24 814 28 824 33 l 824 11 l 829 11 l 829 25 b 822 36 829 33 826 36 z m 693 36 b 681 22 685 36 681 31 b 706 13 681 11 693 7 l 703 18 b 690 21 700 17 690 14 l 706 21 b 693 36 706 31 700 36 z m 586 36 b 581 33 583 36 582 35 l 579 35 l 571 35 l 571 11 l 581 11 b 581 26 581 13 581 25 b 588 24 582 31 588 29 l 588 11 l 597 11 l 597 25 b 586 36 597 33 592 36 z m 715 31 l 715 35 l 710 35 b 710 11 710 31 710 17 l 717 11 b 717 25 717 13 717 25 b 726 28 717 26 722 29 l 726 36 b 715 31 722 36 718 35 z m 626 36 b 614 22 618 36 614 31 b 639 13 614 13 628 7 l 636 18 b 624 21 633 17 624 14 l 639 21 b 626 36 639 31 633 36 z m 775 36 b 775 10 757 36 757 10 b 775 36 792 10 792 36 z m 746 24 b 760 28 746 29 756 31 l 760 35 b 760 13 729 42 731 3 l 760 18 b 746 24 756 18 746 17 z m 543 18 l 538 35 l 532 35 l 528 18 l 525 35 l 517 35 l 524 11 l 531 11 l 535 26 l 540 11 l 547 11 l 553 35 l 546 35 z m 469 18 l 465 35 l 460 35 l 454 18 l 451 35 l 444 35 l 450 11 l 458 11 l 463 26 l 467 11 l 475 11 l 481 35 l 474 35 z m 432 18 l 428 35 l 421 35 l 417 18 l 414 35 l 407 35 l 413 11 l 419 11 l 425 26 l 429 11 l 436 11 l 443 35 l 435 35 z m 558 11 l 565 11 l 565 35 l 558 35 z m 394 18 l 390 35 l 383 35 l 379 18 l 376 35 l 368 35 l 375 11 l 382 11 l 386 26 l 392 11 l 399 11 l 404 35 l 397 35 z m 690 25 b 699 25 690 31 699 31 z m 624 25 b 632 25 624 31 632 31 z m 775 17 b 775 29 767 17 765 29 b 775 17 782 29 782 17 z m 729 19 b 729 10 724 19 724 10 b 729 19 735 10 735 19 z m 488 19 b 488 10 482 19 482 10 b 488 19 494 10 494 19 z "},"1":{"ha":1193,"x_min":0,"x_max":0,"o":"m 699 397 b 751 447 729 397 746 425 b 778 403 751 429 756 403 b 853 586 843 403 822 610 b 844 478 867 575 847 525 b 886 392 842 442 850 392 b 956 728 958 392 1007 592 b 763 860 921 821 846 871 b 601 721 682 849 613 785 b 633 647 594 679 613 647 b 669 689 646 647 660 660 b 797 786 689 749 742 786 b 878 756 825 786 853 776 b 913 424 985 667 946 431 b 911 540 892 419 908 525 b 863 611 919 588 893 611 b 817 561 836 611 822 596 b 797 474 806 481 794 442 b 782 611 804 543 824 611 b 753 581 763 611 756 600 b 717 438 751 563 747 438 b 703 463 703 438 703 463 b 711 554 703 501 711 533 b 685 590 711 579 699 590 b 646 492 647 590 646 507 b 699 397 646 447 660 397 z m 281 614 b 260 625 281 624 271 625 b 219 631 242 625 219 621 b 340 656 221 653 313 654 b 331 450 338 614 331 526 b 396 319 331 424 332 319 b 396 386 428 319 404 343 b 399 657 381 456 394 563 b 532 646 469 665 504 646 b 574 669 546 646 558 651 b 414 713 615 721 474 714 b 188 631 260 708 188 683 b 246 594 188 604 224 594 b 281 614 260 594 281 594 z m 690 596 b 718 635 710 596 718 619 b 689 669 718 653 708 669 b 660 635 669 669 660 651 b 690 596 660 614 669 596 z m 574 596 b 574 438 600 551 600 450 b 532 576 536 421 582 578 b 485 444 478 575 517 444 b 492 578 460 444 460 524 b 474 614 501 594 499 614 b 414 518 421 614 414 560 b 467 406 414 442 431 406 b 515 444 483 406 507 419 b 564 403 518 421 538 403 b 635 533 636 403 635 519 b 601 631 635 585 624 621 b 574 596 571 646 563 614 z m 657 360 b 633 393 658 381 647 393 b 608 358 614 393 608 379 l 544 357 b 519 393 544 381 538 393 b 496 357 500 393 496 378 b 414 353 435 357 403 399 b 497 325 424 314 475 325 b 453 135 494 292 504 135 b 424 192 428 135 419 172 b 436 304 465 225 494 304 b 336 136 360 304 401 136 b 289 460 269 136 379 407 b 258 468 279 465 268 468 b 242 436 244 468 233 460 b 249 211 272 347 249 288 b 311 101 249 142 272 101 b 379 135 338 101 363 117 b 435 101 390 114 413 101 b 499 158 468 101 490 128 b 551 106 497 129 525 106 b 614 161 582 106 606 136 b 661 108 618 142 636 108 b 707 157 683 108 699 139 b 767 101 710 129 736 101 b 826 164 800 101 818 138 b 851 96 826 125 836 97 b 917 269 907 90 863 260 b 935 217 944 274 953 235 b 907 204 925 206 907 218 b 944 179 907 183 929 176 b 932 301 997 190 990 301 b 869 247 907 301 875 272 b 833 303 872 272 860 297 b 814 289 826 304 814 301 b 825 226 814 269 828 260 b 772 135 822 192 808 135 b 749 192 746 135 746 174 b 769 307 808 217 826 307 b 674 153 703 307 713 153 b 657 324 643 153 656 304 b 878 329 729 324 810 325 b 1003 397 919 332 1003 338 b 990 401 1003 410 997 404 b 657 360 883 353 719 361 z m 546 325 l 608 325 b 560 146 606 299 606 143 b 546 325 533 147 547 297 z m 424 211 b 450 274 424 235 438 286 b 424 211 458 267 438 222 z m 751 211 b 778 275 753 226 764 272 l 781 275 b 788 265 785 275 788 272 b 751 211 788 258 786 228 z m 561 44 b 561 36 554 44 554 36 b 561 44 567 36 567 44 z m 601 11 l 610 11 l 610 44 l 601 44 z m 672 42 l 664 39 l 664 35 l 651 35 l 651 42 l 644 39 l 644 35 l 642 35 l 642 29 l 644 29 l 644 21 b 646 13 644 18 644 14 b 658 11 649 10 653 10 l 658 18 b 651 21 653 17 651 18 l 651 29 l 664 29 b 665 13 664 25 663 17 b 678 11 668 10 675 10 l 678 18 b 672 21 675 17 672 18 l 672 29 l 678 29 l 678 35 l 672 35 z m 507 42 l 499 39 l 499 35 l 496 35 l 496 29 l 499 29 b 500 13 499 24 497 17 b 513 11 503 10 508 10 l 513 18 b 507 21 508 17 507 18 l 507 29 l 513 29 l 513 35 l 507 35 z m 822 36 b 813 31 817 36 815 35 b 799 33 811 38 803 38 l 797 35 l 792 35 l 792 11 l 799 11 l 799 25 b 803 29 799 26 800 29 b 807 24 807 29 807 26 l 807 11 l 814 11 l 814 24 b 824 24 814 28 824 33 l 824 11 l 829 11 l 829 25 b 822 36 829 33 826 36 z m 693 36 b 681 22 685 36 681 31 b 706 13 681 11 693 7 l 703 18 b 690 21 700 17 690 14 l 706 21 b 693 36 706 31 700 36 z m 586 36 b 581 33 583 36 582 35 l 579 35 l 571 35 l 571 11 l 581 11 b 581 26 581 13 581 25 b 588 24 582 31 588 29 l 588 11 l 597 11 l 597 25 b 586 36 597 33 592 36 z m 715 31 l 715 35 l 710 35 b 710 11 710 31 710 17 l 717 11 b 717 25 717 13 717 25 b 726 28 717 26 722 29 l 726 36 b 715 31 722 36 718 35 z m 626 36 b 614 22 618 36 614 31 b 639 13 614 13 628 7 l 636 18 b 624 21 633 17 624 14 l 639 21 b 626 36 639 31 633 36 z m 775 36 b 775 10 757 36 757 10 b 775 36 792 10 792 36 z m 746 24 b 760 28 746 29 756 31 l 760 35 b 760 13 729 42 731 3 l 760 18 b 746 24 756 18 746 17 z m 543 18 l 538 35 l 532 35 l 528 18 l 525 35 l 517 35 l 524 11 l 531 11 l 535 26 l 540 11 l 547 11 l 553 35 l 546 35 z m 469 18 l 465 35 l 460 35 l 454 18 l 451 35 l 444 35 l 450 11 l 458 11 l 463 26 l 467 11 l 475 11 l 481 35 l 474 35 z m 432 18 l 428 35 l 421 35 l 417 18 l 414 35 l 407 35 l 413 11 l 419 11 l 425 26 l 429 11 l 436 11 l 443 35 l 435 35 z m 558 11 l 565 11 l 565 35 l 558 35 z m 394 18 l 390 35 l 383 35 l 379 18 l 376 35 l 368 35 l 375 11 l 382 11 l 386 26 l 392 11 l 399 11 l 404 35 l 397 35 z m 690 25 b 699 25 690 31 699 31 z m 624 25 b 632 25 624 31 632 31 z m 775 17 b 775 29 767 17 765 29 b 775 17 782 29 782 17 z m 729 19 b 729 10 724 19 724 10 b 729 19 735 10 735 19 z m 488 19 b 488 10 482 19 482 10 b 488 19 494 10 494 19 z "},"2":{"ha":1060,"x_min":0,"x_max":0,"o":"m 76 200 l 76 0 l 950 0 l 950 200 l 556 200 b 986 735 556 200 986 404 b 722 986 986 894 892 986 l 92 986 l 92 786 l 497 786 b 567 710 535 786 567 754 b 76 200 567 407 74 197 z "},"3":{"ha":1058,"x_min":0,"x_max":0,"o":"m 75 197 l 75 -3 l 719 -3 b 983 247 889 -3 983 88 b 868 485 983 336 972 418 b 983 722 972 547 983 633 b 719 972 983 882 889 972 l 75 972 l 75 772 l 494 772 b 492 565 624 772 628 565 l 169 565 l 169 404 l 492 404 b 494 197 628 404 624 197 z "},"4":{"ha":1108,"x_min":0,"x_max":0,"o":"m 75 972 l 75 250 l 651 250 l 651 0 l 1033 0 l 1033 972 l 651 972 l 651 450 l 457 450 l 457 972 z "},"5":{"ha":1193,"x_min":0,"x_max":0,"o":"m 699 397 b 751 447 729 397 746 425 b 778 403 751 429 756 403 b 853 586 843 403 822 610 b 844 478 867 575 847 525 b 886 392 842 442 850 392 b 956 728 958 392 1007 592 b 763 860 921 821 846 871 b 601 721 682 849 613 785 b 633 647 594 679 613 647 b 669 689 646 647 660 660 b 797 786 689 749 742 786 b 878 756 825 786 853 776 b 913 424 985 667 946 431 b 911 540 892 419 908 525 b 863 611 919 588 893 611 b 817 561 836 611 822 596 b 797 474 806 481 794 442 b 782 611 804 543 824 611 b 753 581 763 611 756 600 b 717 438 751 563 747 438 b 703 463 703 438 703 463 b 711 554 703 501 711 533 b 685 590 711 579 699 590 b 646 492 647 590 646 507 b 699 397 646 447 660 397 z m 281 614 b 260 625 281 624 271 625 b 219 631 242 625 219 621 b 340 656 221 653 313 654 b 331 450 338 614 331 526 b 396 319 331 424 332 319 b 396 386 428 319 404 343 b 399 657 381 456 394 563 b 532 646 469 665 504 646 b 574 669 546 646 558 651 b 414 713 615 721 474 714 b 188 631 260 708 188 683 b 246 594 188 604 224 594 b 281 614 260 594 281 594 z m 690 596 b 718 635 710 596 718 619 b 689 669 718 653 708 669 b 660 635 669 669 660 651 b 690 596 660 614 669 596 z m 574 596 b 574 438 600 551 600 450 b 532 576 536 421 582 578 b 485 444 478 575 517 444 b 492 578 460 444 460 524 b 474 614 501 594 499 614 b 414 518 421 614 414 560 b 467 406 414 442 431 406 b 515 444 483 406 507 419 b 564 403 518 421 538 403 b 635 533 636 403 635 519 b 601 631 635 585 624 621 b 574 596 571 646 563 614 z m 657 360 b 633 393 658 381 647 393 b 608 358 614 393 608 379 l 544 357 b 519 393 544 381 538 393 b 496 357 500 393 496 378 b 414 353 435 357 403 399 b 497 325 424 314 475 325 b 453 135 494 292 504 135 b 424 192 428 135 419 172 b 436 304 465 225 494 304 b 336 136 360 304 401 136 b 289 460 269 136 379 407 b 258 468 279 465 268 468 b 242 436 244 468 233 460 b 249 211 272 347 249 288 b 311 101 249 142 272 101 b 379 135 338 101 363 117 b 435 101 390 114 413 101 b 499 158 468 101 490 128 b 551 106 497 129 525 106 b 614 161 582 106 606 136 b 661 108 618 142 636 108 b 707 157 683 108 699 139 b 767 101 710 129 736 101 b 826 164 800 101 818 138 b 851 96 826 125 836 97 b 917 269 907 90 863 260 b 935 217 944 274 953 235 b 907 204 925 206 907 218 b 944 179 907 183 929 176 b 932 301 997 190 990 301 b 869 247 907 301 875 272 b 833 303 872 272 860 297 b 814 289 826 304 814 301 b 825 226 814 269 828 260 b 772 135 822 192 808 135 b 749 192 746 135 746 174 b 769 307 808 217 826 307 b 674 153 703 307 713 153 b 657 324 643 153 656 304 b 878 329 729 324 810 325 b 1003 397 919 332 1003 338 b 990 401 1003 410 997 404 b 657 360 883 353 719 361 z m 546 325 l 608 325 b 560 146 606 299 606 143 b 546 325 533 147 547 297 z m 424 211 b 450 274 424 235 438 286 b 424 211 458 267 438 222 z m 751 211 b 778 275 753 226 764 272 l 781 275 b 788 265 785 275 788 272 b 751 211 788 258 786 228 z m 561 44 b 561 36 554 44 554 36 b 561 44 567 36 567 44 z m 601 11 l 610 11 l 610 44 l 601 44 z m 672 42 l 664 39 l 664 35 l 651 35 l 651 42 l 644 39 l 644 35 l 642 35 l 642 29 l 644 29 l 644 21 b 646 13 644 18 644 14 b 658 11 649 10 653 10 l 658 18 b 651 21 653 17 651 18 l 651 29 l 664 29 b 665 13 664 25 663 17 b 678 11 668 10 675 10 l 678 18 b 672 21 675 17 672 18 l 672 29 l 678 29 l 678 35 l 672 35 z m 507 42 l 499 39 l 499 35 l 496 35 l 496 29 l 499 29 b 500 13 499 24 497 17 b 513 11 503 10 508 10 l 513 18 b 507 21 508 17 507 18 l 507 29 l 513 29 l 513 35 l 507 35 z m 822 36 b 813 31 817 36 815 35 b 799 33 811 38 803 38 l 797 35 l 792 35 l 792 11 l 799 11 l 799 25 b 803 29 799 26 800 29 b 807 24 807 29 807 26 l 807 11 l 814 11 l 814 24 b 824 24 814 28 824 33 l 824 11 l 829 11 l 829 25 b 822 36 829 33 826 36 z m 693 36 b 681 22 685 36 681 31 b 706 13 681 11 693 7 l 703 18 b 690 21 700 17 690 14 l 706 21 b 693 36 706 31 700 36 z m 586 36 b 581 33 583 36 582 35 l 579 35 l 571 35 l 571 11 l 581 11 b 581 26 581 13 581 25 b 588 24 582 31 588 29 l 588 11 l 597 11 l 597 25 b 586 36 597 33 592 36 z m 715 31 l 715 35 l 710 35 b 710 11 710 31 710 17 l 717 11 b 717 25 717 13 717 25 b 726 28 717 26 722 29 l 726 36 b 715 31 722 36 718 35 z m 626 36 b 614 22 618 36 614 31 b 639 13 614 13 628 7 l 636 18 b 624 21 633 17 624 14 l 639 21 b 626 36 639 31 633 36 z m 775 36 b 775 10 757 36 757 10 b 775 36 792 10 792 36 z m 746 24 b 760 28 746 29 756 31 l 760 35 b 760 13 729 42 731 3 l 760 18 b 746 24 756 18 746 17 z m 543 18 l 538 35 l 532 35 l 528 18 l 525 35 l 517 35 l 524 11 l 531 11 l 535 26 l 540 11 l 547 11 l 553 35 l 546 35 z m 469 18 l 465 35 l 460 35 l 454 18 l 451 35 l 444 35 l 450 11 l 458 11 l 463 26 l 467 11 l 475 11 l 481 35 l 474 35 z m 432 18 l 428 35 l 421 35 l 417 18 l 414 35 l 407 35 l 413 11 l 419 11 l 425 26 l 429 11 l 436 11 l 443 35 l 435 35 z m 558 11 l 565 11 l 565 35 l 558 35 z m 394 18 l 390 35 l 383 35 l 379 18 l 376 35 l 368 35 l 375 11 l 382 11 l 386 26 l 392 11 l 399 11 l 404 35 l 397 35 z m 690 25 b 699 25 690 31 699 31 z m 624 25 b 632 25 624 31 632 31 z m 775 17 b 775 29 767 17 765 29 b 775 17 782 29 782 17 z m 729 19 b 729 10 724 19 724 10 b 729 19 735 10 735 19 z m 488 19 b 488 10 482 19 482 10 b 488 19 494 10 494 19 z "},"6":{"ha":1193,"x_min":0,"x_max":0,"o":"m 699 397 b 751 447 729 397 746 425 b 778 403 751 429 756 403 b 853 586 843 403 822 610 b 844 478 867 575 847 525 b 886 392 842 442 850 392 b 956 728 958 392 1007 592 b 763 860 921 821 846 871 b 601 721 682 849 613 785 b 633 647 594 679 613 647 b 669 689 646 647 660 660 b 797 786 689 749 742 786 b 878 756 825 786 853 776 b 913 424 985 667 946 431 b 911 540 892 419 908 525 b 863 611 919 588 893 611 b 817 561 836 611 822 596 b 797 474 806 481 794 442 b 782 611 804 543 824 611 b 753 581 763 611 756 600 b 717 438 751 563 747 438 b 703 463 703 438 703 463 b 711 554 703 501 711 533 b 685 590 711 579 699 590 b 646 492 647 590 646 507 b 699 397 646 447 660 397 z m 281 614 b 260 625 281 624 271 625 b 219 631 242 625 219 621 b 340 656 221 653 313 654 b 331 450 338 614 331 526 b 396 319 331 424 332 319 b 396 386 428 319 404 343 b 399 657 381 456 394 563 b 532 646 469 665 504 646 b 574 669 546 646 558 651 b 414 713 615 721 474 714 b 188 631 260 708 188 683 b 246 594 188 604 224 594 b 281 614 260 594 281 594 z m 690 596 b 718 635 710 596 718 619 b 689 669 718 653 708 669 b 660 635 669 669 660 651 b 690 596 660 614 669 596 z m 574 596 b 574 438 600 551 600 450 b 532 576 536 421 582 578 b 485 444 478 575 517 444 b 492 578 460 444 460 524 b 474 614 501 594 499 614 b 414 518 421 614 414 560 b 467 406 414 442 431 406 b 515 444 483 406 507 419 b 564 403 518 421 538 403 b 635 533 636 403 635 519 b 601 631 635 585 624 621 b 574 596 571 646 563 614 z m 657 360 b 633 393 658 381 647 393 b 608 358 614 393 608 379 l 544 357 b 519 393 544 381 538 393 b 496 357 500 393 496 378 b 414 353 435 357 403 399 b 497 325 424 314 475 325 b 453 135 494 292 504 135 b 424 192 428 135 419 172 b 436 304 465 225 494 304 b 336 136 360 304 401 136 b 289 460 269 136 379 407 b 258 468 279 465 268 468 b 242 436 244 468 233 460 b 249 211 272 347 249 288 b 311 101 249 142 272 101 b 379 135 338 101 363 117 b 435 101 390 114 413 101 b 499 158 468 101 490 128 b 551 106 497 129 525 106 b 614 161 582 106 606 136 b 661 108 618 142 636 108 b 707 157 683 108 699 139 b 767 101 710 129 736 101 b 826 164 800 101 818 138 b 851 96 826 125 836 97 b 917 269 907 90 863 260 b 935 217 944 274 953 235 b 907 204 925 206 907 218 b 944 179 907 183 929 176 b 932 301 997 190 990 301 b 869 247 907 301 875 272 b 833 303 872 272 860 297 b 814 289 826 304 814 301 b 825 226 814 269 828 260 b 772 135 822 192 808 135 b 749 192 746 135 746 174 b 769 307 808 217 826 307 b 674 153 703 307 713 153 b 657 324 643 153 656 304 b 878 329 729 324 810 325 b 1003 397 919 332 1003 338 b 990 401 1003 410 997 404 b 657 360 883 353 719 361 z m 546 325 l 608 325 b 560 146 606 299 606 143 b 546 325 533 147 547 297 z m 424 211 b 450 274 424 235 438 286 b 424 211 458 267 438 222 z m 751 211 b 778 275 753 226 764 272 l 781 275 b 788 265 785 275 788 272 b 751 211 788 258 786 228 z m 561 44 b 561 36 554 44 554 36 b 561 44 567 36 567 44 z m 601 11 l 610 11 l 610 44 l 601 44 z m 672 42 l 664 39 l 664 35 l 651 35 l 651 42 l 644 39 l 644 35 l 642 35 l 642 29 l 644 29 l 644 21 b 646 13 644 18 644 14 b 658 11 649 10 653 10 l 658 18 b 651 21 653 17 651 18 l 651 29 l 664 29 b 665 13 664 25 663 17 b 678 11 668 10 675 10 l 678 18 b 672 21 675 17 672 18 l 672 29 l 678 29 l 678 35 l 672 35 z m 507 42 l 499 39 l 499 35 l 496 35 l 496 29 l 499 29 b 500 13 499 24 497 17 b 513 11 503 10 508 10 l 513 18 b 507 21 508 17 507 18 l 507 29 l 513 29 l 513 35 l 507 35 z m 822 36 b 813 31 817 36 815 35 b 799 33 811 38 803 38 l 797 35 l 792 35 l 792 11 l 799 11 l 799 25 b 803 29 799 26 800 29 b 807 24 807 29 807 26 l 807 11 l 814 11 l 814 24 b 824 24 814 28 824 33 l 824 11 l 829 11 l 829 25 b 822 36 829 33 826 36 z m 693 36 b 681 22 685 36 681 31 b 706 13 681 11 693 7 l 703 18 b 690 21 700 17 690 14 l 706 21 b 693 36 706 31 700 36 z m 586 36 b 581 33 583 36 582 35 l 579 35 l 571 35 l 571 11 l 581 11 b 581 26 581 13 581 25 b 588 24 582 31 588 29 l 588 11 l 597 11 l 597 25 b 586 36 597 33 592 36 z m 715 31 l 715 35 l 710 35 b 710 11 710 31 710 17 l 717 11 b 717 25 717 13 717 25 b 726 28 717 26 722 29 l 726 36 b 715 31 722 36 718 35 z m 626 36 b 614 22 618 36 614 31 b 639 13 614 13 628 7 l 636 18 b 624 21 633 17 624 14 l 639 21 b 626 36 639 31 633 36 z m 775 36 b 775 10 757 36 757 10 b 775 36 792 10 792 36 z m 746 24 b 760 28 746 29 756 31 l 760 35 b 760 13 729 42 731 3 l 760 18 b 746 24 756 18 746 17 z m 543 18 l 538 35 l 532 35 l 528 18 l 525 35 l 517 35 l 524 11 l 531 11 l 535 26 l 540 11 l 547 11 l 553 35 l 546 35 z m 469 18 l 465 35 l 460 35 l 454 18 l 451 35 l 444 35 l 450 11 l 458 11 l 463 26 l 467 11 l 475 11 l 481 35 l 474 35 z m 432 18 l 428 35 l 421 35 l 417 18 l 414 35 l 407 35 l 413 11 l 419 11 l 425 26 l 429 11 l 436 11 l 443 35 l 435 35 z m 558 11 l 565 11 l 565 35 l 558 35 z m 394 18 l 390 35 l 383 35 l 379 18 l 376 35 l 368 35 l 375 11 l 382 11 l 386 26 l 392 11 l 399 11 l 404 35 l 397 35 z m 690 25 b 699 25 690 31 699 31 z m 624 25 b 632 25 624 31 632 31 z m 775 17 b 775 29 767 17 765 29 b 775 17 782 29 782 17 z m 729 19 b 729 10 724 19 724 10 b 729 19 735 10 735 19 z m 488 19 b 488 10 482 19 482 10 b 488 19 494 10 494 19 z "},"7":{"ha":1193,"x_min":0,"x_max":0,"o":"m 699 397 b 751 447 729 397 746 425 b 778 403 751 429 756 403 b 853 586 843 403 822 610 b 844 478 867 575 847 525 b 886 392 842 442 850 392 b 956 728 958 392 1007 592 b 763 860 921 821 846 871 b 601 721 682 849 613 785 b 633 647 594 679 613 647 b 669 689 646 647 660 660 b 797 786 689 749 742 786 b 878 756 825 786 853 776 b 913 424 985 667 946 431 b 911 540 892 419 908 525 b 863 611 919 588 893 611 b 817 561 836 611 822 596 b 797 474 806 481 794 442 b 782 611 804 543 824 611 b 753 581 763 611 756 600 b 717 438 751 563 747 438 b 703 463 703 438 703 463 b 711 554 703 501 711 533 b 685 590 711 579 699 590 b 646 492 647 590 646 507 b 699 397 646 447 660 397 z m 281 614 b 260 625 281 624 271 625 b 219 631 242 625 219 621 b 340 656 221 653 313 654 b 331 450 338 614 331 526 b 396 319 331 424 332 319 b 396 386 428 319 404 343 b 399 657 381 456 394 563 b 532 646 469 665 504 646 b 574 669 546 646 558 651 b 414 713 615 721 474 714 b 188 631 260 708 188 683 b 246 594 188 604 224 594 b 281 614 260 594 281 594 z m 690 596 b 718 635 710 596 718 619 b 689 669 718 653 708 669 b 660 635 669 669 660 651 b 690 596 660 614 669 596 z m 574 596 b 574 438 600 551 600 450 b 532 576 536 421 582 578 b 485 444 478 575 517 444 b 492 578 460 444 460 524 b 474 614 501 594 499 614 b 414 518 421 614 414 560 b 467 406 414 442 431 406 b 515 444 483 406 507 419 b 564 403 518 421 538 403 b 635 533 636 403 635 519 b 601 631 635 585 624 621 b 574 596 571 646 563 614 z m 657 360 b 633 393 658 381 647 393 b 608 358 614 393 608 379 l 544 357 b 519 393 544 381 538 393 b 496 357 500 393 496 378 b 414 353 435 357 403 399 b 497 325 424 314 475 325 b 453 135 494 292 504 135 b 424 192 428 135 419 172 b 436 304 465 225 494 304 b 336 136 360 304 401 136 b 289 460 269 136 379 407 b 258 468 279 465 268 468 b 242 436 244 468 233 460 b 249 211 272 347 249 288 b 311 101 249 142 272 101 b 379 135 338 101 363 117 b 435 101 390 114 413 101 b 499 158 468 101 490 128 b 551 106 497 129 525 106 b 614 161 582 106 606 136 b 661 108 618 142 636 108 b 707 157 683 108 699 139 b 767 101 710 129 736 101 b 826 164 800 101 818 138 b 851 96 826 125 836 97 b 917 269 907 90 863 260 b 935 217 944 274 953 235 b 907 204 925 206 907 218 b 944 179 907 183 929 176 b 932 301 997 190 990 301 b 869 247 907 301 875 272 b 833 303 872 272 860 297 b 814 289 826 304 814 301 b 825 226 814 269 828 260 b 772 135 822 192 808 135 b 749 192 746 135 746 174 b 769 307 808 217 826 307 b 674 153 703 307 713 153 b 657 324 643 153 656 304 b 878 329 729 324 810 325 b 1003 397 919 332 1003 338 b 990 401 1003 410 997 404 b 657 360 883 353 719 361 z m 546 325 l 608 325 b 560 146 606 299 606 143 b 546 325 533 147 547 297 z m 424 211 b 450 274 424 235 438 286 b 424 211 458 267 438 222 z m 751 211 b 778 275 753 226 764 272 l 781 275 b 788 265 785 275 788 272 b 751 211 788 258 786 228 z m 561 44 b 561 36 554 44 554 36 b 561 44 567 36 567 44 z m 601 11 l 610 11 l 610 44 l 601 44 z m 672 42 l 664 39 l 664 35 l 651 35 l 651 42 l 644 39 l 644 35 l 642 35 l 642 29 l 644 29 l 644 21 b 646 13 644 18 644 14 b 658 11 649 10 653 10 l 658 18 b 651 21 653 17 651 18 l 651 29 l 664 29 b 665 13 664 25 663 17 b 678 11 668 10 675 10 l 678 18 b 672 21 675 17 672 18 l 672 29 l 678 29 l 678 35 l 672 35 z m 507 42 l 499 39 l 499 35 l 496 35 l 496 29 l 499 29 b 500 13 499 24 497 17 b 513 11 503 10 508 10 l 513 18 b 507 21 508 17 507 18 l 507 29 l 513 29 l 513 35 l 507 35 z m 822 36 b 813 31 817 36 815 35 b 799 33 811 38 803 38 l 797 35 l 792 35 l 792 11 l 799 11 l 799 25 b 803 29 799 26 800 29 b 807 24 807 29 807 26 l 807 11 l 814 11 l 814 24 b 824 24 814 28 824 33 l 824 11 l 829 11 l 829 25 b 822 36 829 33 826 36 z m 693 36 b 681 22 685 36 681 31 b 706 13 681 11 693 7 l 703 18 b 690 21 700 17 690 14 l 706 21 b 693 36 706 31 700 36 z m 586 36 b 581 33 583 36 582 35 l 579 35 l 571 35 l 571 11 l 581 11 b 581 26 581 13 581 25 b 588 24 582 31 588 29 l 588 11 l 597 11 l 597 25 b 586 36 597 33 592 36 z m 715 31 l 715 35 l 710 35 b 710 11 710 31 710 17 l 717 11 b 717 25 717 13 717 25 b 726 28 717 26 722 29 l 726 36 b 715 31 722 36 718 35 z m 626 36 b 614 22 618 36 614 31 b 639 13 614 13 628 7 l 636 18 b 624 21 633 17 624 14 l 639 21 b 626 36 639 31 633 36 z m 775 36 b 775 10 757 36 757 10 b 775 36 792 10 792 36 z m 746 24 b 760 28 746 29 756 31 l 760 35 b 760 13 729 42 731 3 l 760 18 b 746 24 756 18 746 17 z m 543 18 l 538 35 l 532 35 l 528 18 l 525 35 l 517 35 l 524 11 l 531 11 l 535 26 l 540 11 l 547 11 l 553 35 l 546 35 z m 469 18 l 465 35 l 460 35 l 454 18 l 451 35 l 444 35 l 450 11 l 458 11 l 463 26 l 467 11 l 475 11 l 481 35 l 474 35 z m 432 18 l 428 35 l 421 35 l 417 18 l 414 35 l 407 35 l 413 11 l 419 11 l 425 26 l 429 11 l 436 11 l 443 35 l 435 35 z m 558 11 l 565 11 l 565 35 l 558 35 z m 394 18 l 390 35 l 383 35 l 379 18 l 376 35 l 368 35 l 375 11 l 382 11 l 386 26 l 392 11 l 399 11 l 404 35 l 397 35 z m 690 25 b 699 25 690 31 699 31 z m 624 25 b 632 25 624 31 632 31 z m 775 17 b 775 29 767 17 765 29 b 775 17 782 29 782 17 z m 729 19 b 729 10 724 19 724 10 b 729 19 735 10 735 19 z m 488 19 b 488 10 482 19 482 10 b 488 19 494 10 494 19 z "},"8":{"ha":1108,"x_min":0,"x_max":0,"o":"m 75 250 b 365 -12 75 96 193 -12 l 743 -12 b 1033 250 914 -12 1033 96 l 1033 333 b 976 496 1033 396 1013 453 b 1033 658 1013 539 1033 594 l 1033 724 b 743 986 1033 878 914 986 l 364 986 b 75 724 193 986 75 878 l 75 658 b 131 496 75 594 94 539 b 75 333 94 453 75 396 z m 528 786 l 579 786 b 651 724 617 786 651 757 l 651 658 b 579 596 651 625 617 596 l 529 596 b 457 658 493 596 457 626 l 457 724 b 528 786 457 757 492 786 z m 457 250 l 457 333 b 528 396 457 365 492 396 l 579 396 b 651 333 617 396 651 365 l 651 250 b 579 188 651 218 617 188 l 529 188 b 457 250 493 188 457 218 z "},"9":{"ha":1193,"x_min":0,"x_max":0,"o":"m 699 397 b 751 447 729 397 746 425 b 778 403 751 429 756 403 b 853 586 843 403 822 610 b 844 478 867 575 847 525 b 886 392 842 442 850 392 b 956 728 958 392 1007 592 b 763 860 921 821 846 871 b 601 721 682 849 613 785 b 633 647 594 679 613 647 b 669 689 646 647 660 660 b 797 786 689 749 742 786 b 878 756 825 786 853 776 b 913 424 985 667 946 431 b 911 540 892 419 908 525 b 863 611 919 588 893 611 b 817 561 836 611 822 596 b 797 474 806 481 794 442 b 782 611 804 543 824 611 b 753 581 763 611 756 600 b 717 438 751 563 747 438 b 703 463 703 438 703 463 b 711 554 703 501 711 533 b 685 590 711 579 699 590 b 646 492 647 590 646 507 b 699 397 646 447 660 397 z m 281 614 b 260 625 281 624 271 625 b 219 631 242 625 219 621 b 340 656 221 653 313 654 b 331 450 338 614 331 526 b 396 319 331 424 332 319 b 396 386 428 319 404 343 b 399 657 381 456 394 563 b 532 646 469 665 504 646 b 574 669 546 646 558 651 b 414 713 615 721 474 714 b 188 631 260 708 188 683 b 246 594 188 604 224 594 b 281 614 260 594 281 594 z m 690 596 b 718 635 710 596 718 619 b 689 669 718 653 708 669 b 660 635 669 669 660 651 b 690 596 660 614 669 596 z m 574 596 b 574 438 600 551 600 450 b 532 576 536 421 582 578 b 485 444 478 575 517 444 b 492 578 460 444 460 524 b 474 614 501 594 499 614 b 414 518 421 614 414 560 b 467 406 414 442 431 406 b 515 444 483 406 507 419 b 564 403 518 421 538 403 b 635 533 636 403 635 519 b 601 631 635 585 624 621 b 574 596 571 646 563 614 z m 657 360 b 633 393 658 381 647 393 b 608 358 614 393 608 379 l 544 357 b 519 393 544 381 538 393 b 496 357 500 393 496 378 b 414 353 435 357 403 399 b 497 325 424 314 475 325 b 453 135 494 292 504 135 b 424 192 428 135 419 172 b 436 304 465 225 494 304 b 336 136 360 304 401 136 b 289 460 269 136 379 407 b 258 468 279 465 268 468 b 242 436 244 468 233 460 b 249 211 272 347 249 288 b 311 101 249 142 272 101 b 379 135 338 101 363 117 b 435 101 390 114 413 101 b 499 158 468 101 490 128 b 551 106 497 129 525 106 b 614 161 582 106 606 136 b 661 108 618 142 636 108 b 707 157 683 108 699 139 b 767 101 710 129 736 101 b 826 164 800 101 818 138 b 851 96 826 125 836 97 b 917 269 907 90 863 260 b 935 217 944 274 953 235 b 907 204 925 206 907 218 b 944 179 907 183 929 176 b 932 301 997 190 990 301 b 869 247 907 301 875 272 b 833 303 872 272 860 297 b 814 289 826 304 814 301 b 825 226 814 269 828 260 b 772 135 822 192 808 135 b 749 192 746 135 746 174 b 769 307 808 217 826 307 b 674 153 703 307 713 153 b 657 324 643 153 656 304 b 878 329 729 324 810 325 b 1003 397 919 332 1003 338 b 990 401 1003 410 997 404 b 657 360 883 353 719 361 z m 546 325 l 608 325 b 560 146 606 299 606 143 b 546 325 533 147 547 297 z m 424 211 b 450 274 424 235 438 286 b 424 211 458 267 438 222 z m 751 211 b 778 275 753 226 764 272 l 781 275 b 788 265 785 275 788 272 b 751 211 788 258 786 228 z m 561 44 b 561 36 554 44 554 36 b 561 44 567 36 567 44 z m 601 11 l 610 11 l 610 44 l 601 44 z m 672 42 l 664 39 l 664 35 l 651 35 l 651 42 l 644 39 l 644 35 l 642 35 l 642 29 l 644 29 l 644 21 b 646 13 644 18 644 14 b 658 11 649 10 653 10 l 658 18 b 651 21 653 17 651 18 l 651 29 l 664 29 b 665 13 664 25 663 17 b 678 11 668 10 675 10 l 678 18 b 672 21 675 17 672 18 l 672 29 l 678 29 l 678 35 l 672 35 z m 507 42 l 499 39 l 499 35 l 496 35 l 496 29 l 499 29 b 500 13 499 24 497 17 b 513 11 503 10 508 10 l 513 18 b 507 21 508 17 507 18 l 507 29 l 513 29 l 513 35 l 507 35 z m 822 36 b 813 31 817 36 815 35 b 799 33 811 38 803 38 l 797 35 l 792 35 l 792 11 l 799 11 l 799 25 b 803 29 799 26 800 29 b 807 24 807 29 807 26 l 807 11 l 814 11 l 814 24 b 824 24 814 28 824 33 l 824 11 l 829 11 l 829 25 b 822 36 829 33 826 36 z m 693 36 b 681 22 685 36 681 31 b 706 13 681 11 693 7 l 703 18 b 690 21 700 17 690 14 l 706 21 b 693 36 706 31 700 36 z m 586 36 b 581 33 583 36 582 35 l 579 35 l 571 35 l 571 11 l 581 11 b 581 26 581 13 581 25 b 588 24 582 31 588 29 l 588 11 l 597 11 l 597 25 b 586 36 597 33 592 36 z m 715 31 l 715 35 l 710 35 b 710 11 710 31 710 17 l 717 11 b 717 25 717 13 717 25 b 726 28 717 26 722 29 l 726 36 b 715 31 722 36 718 35 z m 626 36 b 614 22 618 36 614 31 b 639 13 614 13 628 7 l 636 18 b 624 21 633 17 624 14 l 639 21 b 626 36 639 31 633 36 z m 775 36 b 775 10 757 36 757 10 b 775 36 792 10 792 36 z m 746 24 b 760 28 746 29 756 31 l 760 35 b 760 13 729 42 731 3 l 760 18 b 746 24 756 18 746 17 z m 543 18 l 538 35 l 532 35 l 528 18 l 525 35 l 517 35 l 524 11 l 531 11 l 535 26 l 540 11 l 547 11 l 553 35 l 546 35 z m 469 18 l 465 35 l 460 35 l 454 18 l 451 35 l 444 35 l 450 11 l 458 11 l 463 26 l 467 11 l 475 11 l 481 35 l 474 35 z m 432 18 l 428 35 l 421 35 l 417 18 l 414 35 l 407 35 l 413 11 l 419 11 l 425 26 l 429 11 l 436 11 l 443 35 l 435 35 z m 558 11 l 565 11 l 565 35 l 558 35 z m 394 18 l 390 35 l 383 35 l 379 18 l 376 35 l 368 35 l 375 11 l 382 11 l 386 26 l 392 11 l 399 11 l 404 35 l 397 35 z m 690 25 b 699 25 690 31 699 31 z m 624 25 b 632 25 624 31 632 31 z m 775 17 b 775 29 767 17 765 29 b 775 17 782 29 782 17 z m 729 19 b 729 10 724 19 724 10 b 729 19 735 10 735 19 z m 488 19 b 488 10 482 19 482 10 b 488 19 494 10 494 19 z "},"\u0000":{"ha":0,"x_min":0,"x_max":0,"o":""},"\r":{"ha":347,"x_min":0,"x_max":0,"o":""}," ":{"ha":379,"x_min":0,"x_max":0,"o":""},"A":{"ha":1122,"x_min":0,"x_max":0,"o":"m 75 0 l 457 0 l 457 308 l 665 308 l 665 0 l 1047 0 l 1047 738 b 785 972 1047 892 956 972 l 338 972 b 75 738 167 972 75 892 z m 457 483 l 457 713 b 526 772 457 744 489 772 l 596 772 b 665 713 633 772 665 744 l 665 483 z "},"B":{"ha":1139,"x_min":0,"x_max":0,"o":"m 90 972 l 90 0 l 800 0 b 1063 194 972 0 1065 40 l 1063 275 b 993 385 1060 339 993 385 b 1063 539 993 385 1063 447 l 1063 738 b 800 972 1057 910 972 972 z m 472 483 l 472 772 l 611 772 b 681 713 650 772 681 746 l 681 553 b 607 483 681 511 650 483 z m 626 308 b 681 265 657 308 681 290 l 681 243 b 624 200 681 211 664 200 l 472 200 l 472 308 z "},"E":{"ha":979,"x_min":0,"x_max":0,"o":"m 90 972 l 90 0 l 917 0 l 917 200 l 472 200 l 472 308 l 861 308 l 861 483 l 472 483 l 472 772 l 917 772 l 917 972 z "},"F":{"ha":965,"x_min":0,"x_max":0,"o":"m 90 972 l 90 0 l 472 0 l 472 308 l 861 308 l 861 483 l 472 483 l 472 772 l 917 772 l 917 972 z "},"G":{"ha":1110,"x_min":0,"x_max":0,"o":"m 75 738 l 75 235 b 338 0 75 81 167 0 l 785 0 b 1047 235 956 0 1047 81 l 1047 486 l 578 486 l 578 311 l 665 311 l 665 260 b 596 200 665 228 633 200 l 526 200 b 457 260 489 200 457 228 l 457 713 b 526 772 457 744 489 772 l 1026 772 l 1026 972 l 338 972 b 75 738 167 972 75 892 z "},"H":{"ha":1153,"x_min":0,"x_max":0,"o":"m 90 0 l 472 0 l 472 308 l 681 308 l 681 0 l 1063 0 l 1063 972 l 681 972 l 681 483 l 472 483 l 472 972 l 90 972 z "},"I":{"ha":563,"x_min":0,"x_max":0,"o":"m 90 0 l 472 0 l 472 972 l 90 972 z "},"D":{"ha":1138,"x_min":0,"x_max":0,"o":"m 90 0 l 800 0 b 1063 235 971 0 1063 81 l 1063 738 b 800 972 1063 892 971 972 l 90 972 z m 611 772 b 681 713 649 772 681 744 l 681 260 b 611 200 681 228 649 200 l 472 200 l 472 772 z "},"L":{"ha":943,"x_min":0,"x_max":0,"o":"m 90 0 l 935 0 l 935 200 l 472 200 l 472 972 l 90 972 z "},"O":{"ha":1142,"x_min":0,"x_max":0,"o":"m 75 751 l 75 221 b 338 -14 75 67 167 -14 l 804 -14 b 1067 221 975 -14 1067 67 l 1067 751 b 804 986 1067 906 975 986 l 338 986 b 75 751 167 986 75 906 z m 457 726 b 526 786 457 758 489 786 l 615 786 b 685 726 651 786 685 758 l 685 246 b 615 186 685 214 653 186 l 526 186 b 457 246 489 186 457 214 z "},"N":{"ha":1181,"x_min":0,"x_max":0,"o":"m 90 0 l 472 0 l 472 449 l 667 0 l 1090 0 l 1090 972 l 708 972 l 708 524 l 514 972 l 90 972 z "},"T":{"ha":974,"x_min":0,"x_max":0,"o":"m 8 772 l 288 772 l 288 0 l 669 0 l 669 772 l 967 772 l 967 972 l 8 972 z "},"R":{"ha":1129,"x_min":0,"x_max":0,"o":"m 90 972 l 90 0 l 472 0 l 472 276 l 540 276 l 647 0 l 1064 0 l 914 335 b 1063 554 1010 367 1063 440 l 1063 738 b 800 972 1063 892 967 972 z m 472 772 l 611 772 b 681 713 649 772 681 744 l 681 579 b 611 519 681 547 649 519 l 472 519 z "},"Q":{"ha":1142,"x_min":0,"x_max":0,"o":"m 75 221 b 338 -14 75 67 167 -14 l 561 -14 l 639 -149 l 861 -149 l 781 -14 l 804 -14 b 1067 221 975 -14 1067 67 l 1067 751 b 804 986 1067 906 975 986 l 338 986 b 75 751 167 986 75 906 z m 457 726 b 526 786 457 758 489 786 l 615 786 b 685 726 651 786 685 758 l 685 246 b 615 186 685 214 653 186 l 526 186 b 457 246 489 186 457 214 z "},"P":{"ha":1124,"x_min":0,"x_max":0,"o":"m 472 0 l 472 319 l 800 319 b 1063 554 971 319 1063 400 l 1063 738 b 800 972 1063 892 971 972 l 90 972 l 90 0 z m 611 772 b 681 713 649 772 681 744 l 681 579 b 611 519 681 547 649 519 l 472 519 l 472 772 z "},"C":{"ha":1017,"x_min":0,"x_max":0,"o":"m 75 235 b 338 0 75 81 167 0 l 954 0 l 954 200 l 526 200 b 457 260 489 200 457 228 l 457 713 b 526 772 457 744 489 772 l 954 772 l 954 972 l 338 972 b 75 738 167 972 75 892 z "},"M":{"ha":1564,"x_min":0,"x_max":0,"o":"m 90 972 l 90 0 l 472 0 l 472 394 l 635 0 l 931 0 l 1092 394 l 1092 0 l 1474 0 l 1474 972 l 1049 972 l 782 288 l 514 972 z "},"U":{"ha":1122,"x_min":0,"x_max":0,"o":"m 338 -14 l 785 -14 b 1047 197 918 -14 1047 53 l 1047 972 l 665 972 l 665 246 b 596 186 665 214 633 186 l 526 186 b 457 246 489 186 457 214 l 457 972 l 75 972 l 75 221 b 338 -14 75 67 167 -14 z "},"K":{"ha":1119,"x_min":0,"x_max":0,"o":"m 90 972 l 90 0 l 472 0 l 472 361 l 692 0 l 1118 0 l 821 488 l 1113 974 l 697 974 l 472 608 l 472 972 z "},"J":{"ha":757,"x_min":0,"x_max":0,"o":"m 11 200 l 11 0 l 415 0 b 678 235 586 0 678 81 l 678 972 l 296 972 l 296 260 b 228 200 296 228 264 200 z "},"X":{"ha":1169,"x_min":0,"x_max":0,"o":"m 378 443 l 14 1 l 357 0 l 535 210 l 688 0 l 1160 0 l 793 529 l 1158 972 l 813 972 l 636 761 l 482 972 l 10 972 z "},"W":{"ha":1715,"x_min":0,"x_max":0,"o":"m 4 972 l 275 0 l 682 0 l 849 519 l 996 0 l 1403 0 l 1711 972 l 1439 972 l 1271 451 l 1124 972 l 718 972 l 549 451 l 403 972 z "},"S":{"ha":1103,"x_min":0,"x_max":0,"o":"m 49 668 b 644 243 49 299 644 340 b 533 179 644 197 596 179 b 242 313 424 179 269 236 l 74 204 b 578 -25 167 51 376 -25 b 1054 307 822 -25 1054 86 b 458 733 1054 675 458 638 b 579 799 458 779 511 799 b 843 672 682 799 818 750 l 1019 758 b 539 997 972 914 756 997 b 49 668 293 997 49 892 z "},"V":{"ha":1074,"x_min":0,"x_max":0,"o":"m 4 972 l 340 0 l 750 0 l 1071 972 l 808 972 l 614 400 l 411 972 z "},"Y":{"ha":1144,"x_min":0,"x_max":0,"o":"m 10 972 l 396 410 l 396 0 l 778 0 l 778 410 l 1135 972 l 828 972 l 632 647 l 421 972 z "},"Z":{"ha":1000,"x_min":0,"x_max":0,"o":"m 49 772 l 481 772 l 49 200 l 49 0 l 951 0 l 951 200 l 522 200 l 951 772 l 951 972 l 49 972 z "},"a":{"ha":1054,"x_min":0,"x_max":0,"o":"m 69 460 l 69 235 b 332 -14 69 81 161 -21 b 583 38 432 -10 518 13 l 583 0 l 965 0 l 965 694 l 332 694 b 69 460 161 694 69 614 z m 451 451 b 504 494 451 488 461 494 l 583 494 l 583 213 b 514 194 561 201 536 194 b 451 260 479 194 451 213 z "},"b":{"ha":1054,"x_min":0,"x_max":0,"o":"m 90 0 l 724 0 b 986 235 894 0 986 81 l 986 460 b 724 708 986 614 894 714 b 472 657 639 706 549 682 l 472 1042 l 90 1042 z m 472 200 l 472 482 b 550 500 500 492 528 500 b 604 435 582 500 604 485 l 604 243 b 551 200 604 207 594 200 z "},"c":{"ha":936,"x_min":0,"x_max":0,"o":"m 332 0 l 865 0 l 865 200 l 519 200 b 450 260 483 200 450 228 l 450 435 b 519 494 450 467 483 494 l 865 494 l 865 694 l 332 694 b 68 460 161 694 68 614 l 68 235 b 332 0 68 81 161 0 z "},"d":{"ha":1054,"x_min":0,"x_max":0,"o":"m 964 0 l 964 1042 l 582 1042 l 582 694 l 331 694 b 68 460 160 694 68 614 l 68 235 b 332 -14 68 81 161 -21 b 582 38 431 -10 517 13 l 582 0 z m 450 260 l 450 451 b 504 494 450 488 461 494 l 582 494 l 582 213 b 513 194 560 201 535 194 b 450 260 478 194 450 213 z "},"e":{"ha":1042,"x_min":0,"x_max":0,"o":"m 69 460 l 69 235 b 332 0 69 81 161 0 l 971 0 l 971 200 l 521 200 b 451 260 483 200 451 228 l 451 282 l 972 282 l 972 460 b 710 694 972 614 881 694 l 332 694 b 69 460 161 694 69 614 z m 451 389 l 451 447 b 496 494 451 479 467 494 l 546 494 b 590 447 575 494 590 479 l 590 389 z "},"f":{"ha":700,"x_min":0,"x_max":0,"o":"m 492 608 l 492 782 b 561 842 492 815 524 842 l 683 842 l 683 1042 l 372 1042 b 110 807 201 1042 110 961 l 110 608 l 46 608 l 46 474 l 110 474 l 110 0 l 492 0 l 492 474 l 647 474 l 647 608 z "},"j":{"ha":575,"x_min":0,"x_max":0,"o":"m 297 756 b 482 906 408 756 482 815 b 297 1056 482 994 408 1056 b 113 906 186 1056 113 994 b 297 756 113 815 186 756 z m -83 -78 l -83 -278 l 222 -278 b 485 -43 393 -278 485 -197 l 485 694 l 103 694 l 103 -18 b 33 -78 103 -51 71 -78 z "},"h":{"ha":1063,"x_min":0,"x_max":0,"o":"m 472 0 l 472 482 b 540 499 496 493 519 499 b 604 435 576 499 604 481 l 604 0 l 986 0 l 986 460 b 724 708 986 614 894 715 b 472 657 629 704 547 681 l 472 1042 l 90 1042 l 90 0 z "},"g":{"ha":1058,"x_min":0,"x_max":0,"o":"m 68 460 l 68 235 b 332 -14 68 81 161 -21 b 586 39 432 -10 521 13 l 586 -18 b 518 -78 586 -51 554 -78 l 122 -78 l 122 -278 l 706 -278 b 968 -43 876 -278 968 -197 l 968 694 l 331 694 b 68 460 160 694 68 614 z m 450 451 b 504 494 450 488 461 494 l 586 494 l 586 214 b 519 197 574 208 547 197 b 486 190 507 193 496 190 b 450 260 461 190 450 211 z "},"i":{"ha":563,"x_min":0,"x_max":0,"o":"m 286 756 b 471 906 397 756 471 815 b 286 1056 471 994 397 1056 b 100 906 175 1056 100 994 b 286 756 100 815 175 756 z m 474 0 l 474 694 l 92 694 l 92 0 z "},"k":{"ha":1085,"x_min":0,"x_max":0,"o":"m 90 1042 l 90 0 l 472 0 l 472 178 l 649 0 l 1076 0 l 753 344 l 1076 694 l 653 694 l 472 508 l 472 1042 z "},"l":{"ha":563,"x_min":0,"x_max":0,"o":"m 472 0 l 472 1042 l 90 1042 l 90 0 z "},"m":{"ha":1538,"x_min":0,"x_max":0,"o":"m 472 0 l 472 489 b 526 503 492 499 511 503 b 585 435 561 503 585 481 l 585 0 l 967 0 l 967 489 b 1022 501 986 497 1006 501 b 1079 435 1056 501 1079 482 l 1079 0 l 1461 0 l 1461 460 b 1197 708 1461 614 1368 715 b 904 639 1078 704 981 674 b 704 708 861 686 793 713 b 472 664 614 704 536 688 l 472 694 l 90 694 l 90 0 z "},"n":{"ha":1063,"x_min":0,"x_max":0,"o":"m 472 0 l 472 482 b 547 499 499 492 525 499 b 604 435 581 499 604 483 l 604 0 l 986 0 l 986 460 b 724 708 986 614 894 715 b 472 657 624 704 538 682 l 472 694 l 90 694 l 90 0 z "},"o":{"ha":1046,"x_min":0,"x_max":0,"o":"m 68 474 l 68 219 b 332 -15 68 65 161 -15 l 714 -15 b 976 219 885 -15 976 65 l 976 474 b 714 708 976 628 885 708 l 332 708 b 68 474 161 708 68 628 z m 450 449 b 494 504 450 474 464 504 l 550 504 b 594 449 579 504 594 472 l 594 244 b 550 189 594 219 579 189 l 494 189 b 450 244 464 189 450 219 z "},"p":{"ha":1054,"x_min":0,"x_max":0,"o":"m 472 -264 l 472 0 l 724 0 b 986 235 894 0 986 81 l 986 460 b 724 708 986 614 894 715 b 472 657 624 704 538 682 l 472 694 l 90 694 l 90 -264 z m 472 200 l 472 482 b 547 501 496 493 524 501 b 604 435 579 501 604 486 l 604 243 b 551 200 604 207 594 200 z "},"r":{"ha":906,"x_min":0,"x_max":0,"o":"m 90 0 l 472 0 l 472 439 b 610 494 472 467 499 494 l 860 494 l 860 694 l 607 694 b 472 654 535 694 499 675 l 472 694 l 90 694 z "},"q":{"ha":1054,"x_min":0,"x_max":0,"o":"m 68 460 l 68 235 b 332 -14 68 81 161 -21 b 582 38 431 -10 517 13 l 582 -264 l 964 -264 l 964 694 l 331 694 b 68 460 160 694 68 614 z m 450 451 b 504 494 450 488 461 494 l 582 494 l 582 213 b 508 193 560 201 532 193 b 450 260 476 193 450 210 z "},"s":{"ha":1044,"x_min":0,"x_max":0,"o":"m 56 481 b 594 199 56 210 594 265 b 501 163 594 174 556 163 b 217 250 396 163 238 203 l 74 144 b 536 -22 151 33 346 -22 b 989 219 767 -22 989 58 b 450 504 989 490 450 438 b 544 531 450 524 490 531 b 814 458 647 531 797 501 l 963 546 b 517 719 922 660 719 719 b 56 481 286 719 56 643 z "},"t":{"ha":735,"x_min":0,"x_max":0,"o":"m 113 560 l 113 235 b 375 0 113 81 204 0 l 686 0 l 686 200 l 564 200 b 494 260 526 200 494 228 l 494 560 l 624 560 l 624 694 l 494 694 l 494 972 l 113 972 l 113 694 l 49 694 l 49 560 z "},"u":{"ha":1057,"x_min":0,"x_max":0,"o":"m 71 694 l 71 235 b 333 -14 71 81 163 -21 b 585 38 432 -10 519 13 l 585 0 l 967 0 l 967 694 l 585 694 l 585 213 b 511 193 561 201 535 193 b 453 260 479 193 453 210 l 453 694 z "},"v":{"ha":1031,"x_min":0,"x_max":0,"o":"m 11 694 l 315 0 l 731 0 l 1019 694 l 756 694 l 592 310 l 421 694 z "},"w":{"ha":1522,"x_min":0,"x_max":0,"o":"m 11 694 l 247 0 l 647 0 l 763 331 l 879 0 l 1279 0 l 1511 694 l 1274 694 l 1158 364 l 1043 694 l 642 694 l 526 364 l 411 694 z "},"x":{"ha":1107,"x_min":0,"x_max":0,"o":"m 335 308 l 17 1 l 376 0 l 496 114 l 596 0 l 1092 0 l 771 382 l 1096 694 l 733 694 l 611 578 l 507 694 l 11 694 z "},"z":{"ha":993,"x_min":0,"x_max":0,"o":"m 74 694 l 74 494 l 458 494 l 75 200 l 74 0 l 921 0 l 921 200 l 536 200 l 919 494 l 921 494 l 921 694 z "},"y":{"ha":1042,"x_min":0,"x_max":0,"o":"m 315 0 l 444 0 b 365 -78 429 -49 408 -78 l 210 -78 l 210 -278 l 446 -278 b 710 -42 599 -278 649 -183 l 1029 694 l 754 694 l 589 322 l 421 694 l 11 694 z "},"{":{"ha":717,"x_min":0,"x_max":0,"o":"m 307 1000 b 75 447 -11 1000 250 447 l 75 269 b 307 -278 247 269 -7 -278 l 642 -278 l 642 -76 b 583 -86 635 -81 608 -86 b 524 -54 553 -86 524 -79 b 449 357 524 71 518 279 b 524 781 525 438 524 656 b 575 810 524 803 549 810 b 642 801 603 810 633 803 l 642 1000 z "},"[":{"ha":656,"x_min":0,"x_max":0,"o":"m 75 1000 l 75 -278 l 581 -278 l 581 -78 l 457 -78 l 457 800 l 581 800 l 581 1000 z "},"]":{"ha":1193,"x_min":0,"x_max":0,"o":"m 699 397 b 751 447 729 397 746 425 b 778 403 751 429 756 403 b 853 586 843 403 822 610 b 844 478 867 575 847 525 b 886 392 842 442 850 392 b 956 728 958 392 1007 592 b 763 860 921 821 846 871 b 601 721 682 849 613 785 b 633 647 594 679 613 647 b 669 689 646 647 660 660 b 797 786 689 749 742 786 b 878 756 825 786 853 776 b 913 424 985 667 946 431 b 911 540 892 419 908 525 b 863 611 919 588 893 611 b 817 561 836 611 822 596 b 797 474 806 481 794 442 b 782 611 804 543 824 611 b 753 581 763 611 756 600 b 717 438 751 563 747 438 b 703 463 703 438 703 463 b 711 554 703 501 711 533 b 685 590 711 579 699 590 b 646 492 647 590 646 507 b 699 397 646 447 660 397 z m 281 614 b 260 625 281 624 271 625 b 219 631 242 625 219 621 b 340 656 221 653 313 654 b 331 450 338 614 331 526 b 396 319 331 424 332 319 b 396 386 428 319 404 343 b 399 657 381 456 394 563 b 532 646 469 665 504 646 b 574 669 546 646 558 651 b 414 713 615 721 474 714 b 188 631 260 708 188 683 b 246 594 188 604 224 594 b 281 614 260 594 281 594 z m 690 596 b 718 635 710 596 718 619 b 689 669 718 653 708 669 b 660 635 669 669 660 651 b 690 596 660 614 669 596 z m 574 596 b 574 438 600 551 600 450 b 532 576 536 421 582 578 b 485 444 478 575 517 444 b 492 578 460 444 460 524 b 474 614 501 594 499 614 b 414 518 421 614 414 560 b 467 406 414 442 431 406 b 515 444 483 406 507 419 b 564 403 518 421 538 403 b 635 533 636 403 635 519 b 601 631 635 585 624 621 b 574 596 571 646 563 614 z m 657 360 b 633 393 658 381 647 393 b 608 358 614 393 608 379 l 544 357 b 519 393 544 381 538 393 b 496 357 500 393 496 378 b 414 353 435 357 403 399 b 497 325 424 314 475 325 b 453 135 494 292 504 135 b 424 192 428 135 419 172 b 436 304 465 225 494 304 b 336 136 360 304 401 136 b 289 460 269 136 379 407 b 258 468 279 465 268 468 b 242 436 244 468 233 460 b 249 211 272 347 249 288 b 311 101 249 142 272 101 b 379 135 338 101 363 117 b 435 101 390 114 413 101 b 499 158 468 101 490 128 b 551 106 497 129 525 106 b 614 161 582 106 606 136 b 661 108 618 142 636 108 b 707 157 683 108 699 139 b 767 101 710 129 736 101 b 826 164 800 101 818 138 b 851 96 826 125 836 97 b 917 269 907 90 863 260 b 935 217 944 274 953 235 b 907 204 925 206 907 218 b 944 179 907 183 929 176 b 932 301 997 190 990 301 b 869 247 907 301 875 272 b 833 303 872 272 860 297 b 814 289 826 304 814 301 b 825 226 814 269 828 260 b 772 135 822 192 808 135 b 749 192 746 135 746 174 b 769 307 808 217 826 307 b 674 153 703 307 713 153 b 657 324 643 153 656 304 b 878 329 729 324 810 325 b 1003 397 919 332 1003 338 b 990 401 1003 410 997 404 b 657 360 883 353 719 361 z m 546 325 l 608 325 b 560 146 606 299 606 143 b 546 325 533 147 547 297 z m 424 211 b 450 274 424 235 438 286 b 424 211 458 267 438 222 z m 751 211 b 778 275 753 226 764 272 l 781 275 b 788 265 785 275 788 272 b 751 211 788 258 786 228 z m 561 44 b 561 36 554 44 554 36 b 561 44 567 36 567 44 z m 601 11 l 610 11 l 610 44 l 601 44 z m 672 42 l 664 39 l 664 35 l 651 35 l 651 42 l 644 39 l 644 35 l 642 35 l 642 29 l 644 29 l 644 21 b 646 13 644 18 644 14 b 658 11 649 10 653 10 l 658 18 b 651 21 653 17 651 18 l 651 29 l 664 29 b 665 13 664 25 663 17 b 678 11 668 10 675 10 l 678 18 b 672 21 675 17 672 18 l 672 29 l 678 29 l 678 35 l 672 35 z m 507 42 l 499 39 l 499 35 l 496 35 l 496 29 l 499 29 b 500 13 499 24 497 17 b 513 11 503 10 508 10 l 513 18 b 507 21 508 17 507 18 l 507 29 l 513 29 l 513 35 l 507 35 z m 822 36 b 813 31 817 36 815 35 b 799 33 811 38 803 38 l 797 35 l 792 35 l 792 11 l 799 11 l 799 25 b 803 29 799 26 800 29 b 807 24 807 29 807 26 l 807 11 l 814 11 l 814 24 b 824 24 814 28 824 33 l 824 11 l 829 11 l 829 25 b 822 36 829 33 826 36 z m 693 36 b 681 22 685 36 681 31 b 706 13 681 11 693 7 l 703 18 b 690 21 700 17 690 14 l 706 21 b 693 36 706 31 700 36 z m 586 36 b 581 33 583 36 582 35 l 579 35 l 571 35 l 571 11 l 581 11 b 581 26 581 13 581 25 b 588 24 582 31 588 29 l 588 11 l 597 11 l 597 25 b 586 36 597 33 592 36 z m 715 31 l 715 35 l 710 35 b 710 11 710 31 710 17 l 717 11 b 717 25 717 13 717 25 b 726 28 717 26 722 29 l 726 36 b 715 31 722 36 718 35 z m 626 36 b 614 22 618 36 614 31 b 639 13 614 13 628 7 l 636 18 b 624 21 633 17 624 14 l 639 21 b 626 36 639 31 633 36 z m 775 36 b 775 10 757 36 757 10 b 775 36 792 10 792 36 z m 746 24 b 760 28 746 29 756 31 l 760 35 b 760 13 729 42 731 3 l 760 18 b 746 24 756 18 746 17 z m 543 18 l 538 35 l 532 35 l 528 18 l 525 35 l 517 35 l 524 11 l 531 11 l 535 26 l 540 11 l 547 11 l 553 35 l 546 35 z m 469 18 l 465 35 l 460 35 l 454 18 l 451 35 l 444 35 l 450 11 l 458 11 l 463 26 l 467 11 l 475 11 l 481 35 l 474 35 z m 432 18 l 428 35 l 421 35 l 417 18 l 414 35 l 407 35 l 413 11 l 419 11 l 425 26 l 429 11 l 436 11 l 443 35 l 435 35 z m 558 11 l 565 11 l 565 35 l 558 35 z m 394 18 l 390 35 l 383 35 l 379 18 l 376 35 l 368 35 l 375 11 l 382 11 l 386 26 l 392 11 l 399 11 l 404 35 l 397 35 z m 690 25 b 699 25 690 31 699 31 z m 624 25 b 632 25 624 31 632 31 z m 775 17 b 775 29 767 17 765 29 b 775 17 782 29 782 17 z m 729 19 b 729 10 724 19 724 10 b 729 19 735 10 735 19 z m 488 19 b 488 10 482 19 482 10 b 488 19 494 10 494 19 z "},"(":{"ha":1193,"x_min":0,"x_max":0,"o":"m 699 397 b 751 447 729 397 746 425 b 778 403 751 429 756 403 b 853 586 843 403 822 610 b 844 478 867 575 847 525 b 886 392 842 442 850 392 b 956 728 958 392 1007 592 b 763 860 921 821 846 871 b 601 721 682 849 613 785 b 633 647 594 679 613 647 b 669 689 646 647 660 660 b 797 786 689 749 742 786 b 878 756 825 786 853 776 b 913 424 985 667 946 431 b 911 540 892 419 908 525 b 863 611 919 588 893 611 b 817 561 836 611 822 596 b 797 474 806 481 794 442 b 782 611 804 543 824 611 b 753 581 763 611 756 600 b 717 438 751 563 747 438 b 703 463 703 438 703 463 b 711 554 703 501 711 533 b 685 590 711 579 699 590 b 646 492 647 590 646 507 b 699 397 646 447 660 397 z m 281 614 b 260 625 281 624 271 625 b 219 631 242 625 219 621 b 340 656 221 653 313 654 b 331 450 338 614 331 526 b 396 319 331 424 332 319 b 396 386 428 319 404 343 b 399 657 381 456 394 563 b 532 646 469 665 504 646 b 574 669 546 646 558 651 b 414 713 615 721 474 714 b 188 631 260 708 188 683 b 246 594 188 604 224 594 b 281 614 260 594 281 594 z m 690 596 b 718 635 710 596 718 619 b 689 669 718 653 708 669 b 660 635 669 669 660 651 b 690 596 660 614 669 596 z m 574 596 b 574 438 600 551 600 450 b 532 576 536 421 582 578 b 485 444 478 575 517 444 b 492 578 460 444 460 524 b 474 614 501 594 499 614 b 414 518 421 614 414 560 b 467 406 414 442 431 406 b 515 444 483 406 507 419 b 564 403 518 421 538 403 b 635 533 636 403 635 519 b 601 631 635 585 624 621 b 574 596 571 646 563 614 z m 657 360 b 633 393 658 381 647 393 b 608 358 614 393 608 379 l 544 357 b 519 393 544 381 538 393 b 496 357 500 393 496 378 b 414 353 435 357 403 399 b 497 325 424 314 475 325 b 453 135 494 292 504 135 b 424 192 428 135 419 172 b 436 304 465 225 494 304 b 336 136 360 304 401 136 b 289 460 269 136 379 407 b 258 468 279 465 268 468 b 242 436 244 468 233 460 b 249 211 272 347 249 288 b 311 101 249 142 272 101 b 379 135 338 101 363 117 b 435 101 390 114 413 101 b 499 158 468 101 490 128 b 551 106 497 129 525 106 b 614 161 582 106 606 136 b 661 108 618 142 636 108 b 707 157 683 108 699 139 b 767 101 710 129 736 101 b 826 164 800 101 818 138 b 851 96 826 125 836 97 b 917 269 907 90 863 260 b 935 217 944 274 953 235 b 907 204 925 206 907 218 b 944 179 907 183 929 176 b 932 301 997 190 990 301 b 869 247 907 301 875 272 b 833 303 872 272 860 297 b 814 289 826 304 814 301 b 825 226 814 269 828 260 b 772 135 822 192 808 135 b 749 192 746 135 746 174 b 769 307 808 217 826 307 b 674 153 703 307 713 153 b 657 324 643 153 656 304 b 878 329 729 324 810 325 b 1003 397 919 332 1003 338 b 990 401 1003 410 997 404 b 657 360 883 353 719 361 z m 546 325 l 608 325 b 560 146 606 299 606 143 b 546 325 533 147 547 297 z m 424 211 b 450 274 424 235 438 286 b 424 211 458 267 438 222 z m 751 211 b 778 275 753 226 764 272 l 781 275 b 788 265 785 275 788 272 b 751 211 788 258 786 228 z m 561 44 b 561 36 554 44 554 36 b 561 44 567 36 567 44 z m 601 11 l 610 11 l 610 44 l 601 44 z m 672 42 l 664 39 l 664 35 l 651 35 l 651 42 l 644 39 l 644 35 l 642 35 l 642 29 l 644 29 l 644 21 b 646 13 644 18 644 14 b 658 11 649 10 653 10 l 658 18 b 651 21 653 17 651 18 l 651 29 l 664 29 b 665 13 664 25 663 17 b 678 11 668 10 675 10 l 678 18 b 672 21 675 17 672 18 l 672 29 l 678 29 l 678 35 l 672 35 z m 507 42 l 499 39 l 499 35 l 496 35 l 496 29 l 499 29 b 500 13 499 24 497 17 b 513 11 503 10 508 10 l 513 18 b 507 21 508 17 507 18 l 507 29 l 513 29 l 513 35 l 507 35 z m 822 36 b 813 31 817 36 815 35 b 799 33 811 38 803 38 l 797 35 l 792 35 l 792 11 l 799 11 l 799 25 b 803 29 799 26 800 29 b 807 24 807 29 807 26 l 807 11 l 814 11 l 814 24 b 824 24 814 28 824 33 l 824 11 l 829 11 l 829 25 b 822 36 829 33 826 36 z m 693 36 b 681 22 685 36 681 31 b 706 13 681 11 693 7 l 703 18 b 690 21 700 17 690 14 l 706 21 b 693 36 706 31 700 36 z m 586 36 b 581 33 583 36 582 35 l 579 35 l 571 35 l 571 11 l 581 11 b 581 26 581 13 581 25 b 588 24 582 31 588 29 l 588 11 l 597 11 l 597 25 b 586 36 597 33 592 36 z m 715 31 l 715 35 l 710 35 b 710 11 710 31 710 17 l 717 11 b 717 25 717 13 717 25 b 726 28 717 26 722 29 l 726 36 b 715 31 722 36 718 35 z m 626 36 b 614 22 618 36 614 31 b 639 13 614 13 628 7 l 636 18 b 624 21 633 17 624 14 l 639 21 b 626 36 639 31 633 36 z m 775 36 b 775 10 757 36 757 10 b 775 36 792 10 792 36 z m 746 24 b 760 28 746 29 756 31 l 760 35 b 760 13 729 42 731 3 l 760 18 b 746 24 756 18 746 17 z m 543 18 l 538 35 l 532 35 l 528 18 l 525 35 l 517 35 l 524 11 l 531 11 l 535 26 l 540 11 l 547 11 l 553 35 l 546 35 z m 469 18 l 465 35 l 460 35 l 454 18 l 451 35 l 444 35 l 450 11 l 458 11 l 463 26 l 467 11 l 475 11 l 481 35 l 474 35 z m 432 18 l 428 35 l 421 35 l 417 18 l 414 35 l 407 35 l 413 11 l 419 11 l 425 26 l 429 11 l 436 11 l 443 35 l 435 35 z m 558 11 l 565 11 l 565 35 l 558 35 z m 394 18 l 390 35 l 383 35 l 379 18 l 376 35 l 368 35 l 375 11 l 382 11 l 386 26 l 392 11 l 399 11 l 404 35 l 397 35 z m 690 25 b 699 25 690 31 699 31 z m 624 25 b 632 25 624 31 632 31 z m 775 17 b 775 29 767 17 765 29 b 775 17 782 29 782 17 z m 729 19 b 729 10 724 19 724 10 b 729 19 735 10 735 19 z m 488 19 b 488 10 482 19 482 10 b 488 19 494 10 494 19 z "},")":{"ha":669,"x_min":0,"x_max":0,"o":"m 75 -278 l 467 -278 b 467 997 633 108 639 614 l 75 997 b 75 -278 249 614 247 104 z "},"}":{"ha":1193,"x_min":0,"x_max":0,"o":"m 699 397 b 751 447 729 397 746 425 b 778 403 751 429 756 403 b 853 586 843 403 822 610 b 844 478 867 575 847 525 b 886 392 842 442 850 392 b 956 728 958 392 1007 592 b 763 860 921 821 846 871 b 601 721 682 849 613 785 b 633 647 594 679 613 647 b 669 689 646 647 660 660 b 797 786 689 749 742 786 b 878 756 825 786 853 776 b 913 424 985 667 946 431 b 911 540 892 419 908 525 b 863 611 919 588 893 611 b 817 561 836 611 822 596 b 797 474 806 481 794 442 b 782 611 804 543 824 611 b 753 581 763 611 756 600 b 717 438 751 563 747 438 b 703 463 703 438 703 463 b 711 554 703 501 711 533 b 685 590 711 579 699 590 b 646 492 647 590 646 507 b 699 397 646 447 660 397 z m 281 614 b 260 625 281 624 271 625 b 219 631 242 625 219 621 b 340 656 221 653 313 654 b 331 450 338 614 331 526 b 396 319 331 424 332 319 b 396 386 428 319 404 343 b 399 657 381 456 394 563 b 532 646 469 665 504 646 b 574 669 546 646 558 651 b 414 713 615 721 474 714 b 188 631 260 708 188 683 b 246 594 188 604 224 594 b 281 614 260 594 281 594 z m 690 596 b 718 635 710 596 718 619 b 689 669 718 653 708 669 b 660 635 669 669 660 651 b 690 596 660 614 669 596 z m 574 596 b 574 438 600 551 600 450 b 532 576 536 421 582 578 b 485 444 478 575 517 444 b 492 578 460 444 460 524 b 474 614 501 594 499 614 b 414 518 421 614 414 560 b 467 406 414 442 431 406 b 515 444 483 406 507 419 b 564 403 518 421 538 403 b 635 533 636 403 635 519 b 601 631 635 585 624 621 b 574 596 571 646 563 614 z m 657 360 b 633 393 658 381 647 393 b 608 358 614 393 608 379 l 544 357 b 519 393 544 381 538 393 b 496 357 500 393 496 378 b 414 353 435 357 403 399 b 497 325 424 314 475 325 b 453 135 494 292 504 135 b 424 192 428 135 419 172 b 436 304 465 225 494 304 b 336 136 360 304 401 136 b 289 460 269 136 379 407 b 258 468 279 465 268 468 b 242 436 244 468 233 460 b 249 211 272 347 249 288 b 311 101 249 142 272 101 b 379 135 338 101 363 117 b 435 101 390 114 413 101 b 499 158 468 101 490 128 b 551 106 497 129 525 106 b 614 161 582 106 606 136 b 661 108 618 142 636 108 b 707 157 683 108 699 139 b 767 101 710 129 736 101 b 826 164 800 101 818 138 b 851 96 826 125 836 97 b 917 269 907 90 863 260 b 935 217 944 274 953 235 b 907 204 925 206 907 218 b 944 179 907 183 929 176 b 932 301 997 190 990 301 b 869 247 907 301 875 272 b 833 303 872 272 860 297 b 814 289 826 304 814 301 b 825 226 814 269 828 260 b 772 135 822 192 808 135 b 749 192 746 135 746 174 b 769 307 808 217 826 307 b 674 153 703 307 713 153 b 657 324 643 153 656 304 b 878 329 729 324 810 325 b 1003 397 919 332 1003 338 b 990 401 1003 410 997 404 b 657 360 883 353 719 361 z m 546 325 l 608 325 b 560 146 606 299 606 143 b 546 325 533 147 547 297 z m 424 211 b 450 274 424 235 438 286 b 424 211 458 267 438 222 z m 751 211 b 778 275 753 226 764 272 l 781 275 b 788 265 785 275 788 272 b 751 211 788 258 786 228 z m 561 44 b 561 36 554 44 554 36 b 561 44 567 36 567 44 z m 601 11 l 610 11 l 610 44 l 601 44 z m 672 42 l 664 39 l 664 35 l 651 35 l 651 42 l 644 39 l 644 35 l 642 35 l 642 29 l 644 29 l 644 21 b 646 13 644 18 644 14 b 658 11 649 10 653 10 l 658 18 b 651 21 653 17 651 18 l 651 29 l 664 29 b 665 13 664 25 663 17 b 678 11 668 10 675 10 l 678 18 b 672 21 675 17 672 18 l 672 29 l 678 29 l 678 35 l 672 35 z m 507 42 l 499 39 l 499 35 l 496 35 l 496 29 l 499 29 b 500 13 499 24 497 17 b 513 11 503 10 508 10 l 513 18 b 507 21 508 17 507 18 l 507 29 l 513 29 l 513 35 l 507 35 z m 822 36 b 813 31 817 36 815 35 b 799 33 811 38 803 38 l 797 35 l 792 35 l 792 11 l 799 11 l 799 25 b 803 29 799 26 800 29 b 807 24 807 29 807 26 l 807 11 l 814 11 l 814 24 b 824 24 814 28 824 33 l 824 11 l 829 11 l 829 25 b 822 36 829 33 826 36 z m 693 36 b 681 22 685 36 681 31 b 706 13 681 11 693 7 l 703 18 b 690 21 700 17 690 14 l 706 21 b 693 36 706 31 700 36 z m 586 36 b 581 33 583 36 582 35 l 579 35 l 571 35 l 571 11 l 581 11 b 581 26 581 13 581 25 b 588 24 582 31 588 29 l 588 11 l 597 11 l 597 25 b 586 36 597 33 592 36 z m 715 31 l 715 35 l 710 35 b 710 11 710 31 710 17 l 717 11 b 717 25 717 13 717 25 b 726 28 717 26 722 29 l 726 36 b 715 31 722 36 718 35 z m 626 36 b 614 22 618 36 614 31 b 639 13 614 13 628 7 l 636 18 b 624 21 633 17 624 14 l 639 21 b 626 36 639 31 633 36 z m 775 36 b 775 10 757 36 757 10 b 775 36 792 10 792 36 z m 746 24 b 760 28 746 29 756 31 l 760 35 b 760 13 729 42 731 3 l 760 18 b 746 24 756 18 746 17 z m 543 18 l 538 35 l 532 35 l 528 18 l 525 35 l 517 35 l 524 11 l 531 11 l 535 26 l 540 11 l 547 11 l 553 35 l 546 35 z m 469 18 l 465 35 l 460 35 l 454 18 l 451 35 l 444 35 l 450 11 l 458 11 l 463 26 l 467 11 l 475 11 l 481 35 l 474 35 z m 432 18 l 428 35 l 421 35 l 417 18 l 414 35 l 407 35 l 413 11 l 419 11 l 425 26 l 429 11 l 436 11 l 443 35 l 435 35 z m 558 11 l 565 11 l 565 35 l 558 35 z m 394 18 l 390 35 l 383 35 l 379 18 l 376 35 l 368 35 l 375 11 l 382 11 l 386 26 l 392 11 l 399 11 l 404 35 l 397 35 z m 690 25 b 699 25 690 31 699 31 z m 624 25 b 632 25 624 31 632 31 z m 775 17 b 775 29 767 17 765 29 b 775 17 782 29 782 17 z m 729 19 b 729 10 724 19 724 10 b 729 19 735 10 735 19 z m 488 19 b 488 10 482 19 482 10 b 488 19 494 10 494 19 z "},".":{"ha":1193,"x_min":0,"x_max":0,"o":"m 699 397 b 751 447 729 397 746 425 b 778 403 751 429 756 403 b 853 586 843 403 822 610 b 844 478 867 575 847 525 b 886 392 842 442 850 392 b 956 728 958 392 1007 592 b 763 860 921 821 846 871 b 601 721 682 849 613 785 b 633 647 594 679 613 647 b 669 689 646 647 660 660 b 797 786 689 749 742 786 b 878 756 825 786 853 776 b 913 424 985 667 946 431 b 911 540 892 419 908 525 b 863 611 919 588 893 611 b 817 561 836 611 822 596 b 797 474 806 481 794 442 b 782 611 804 543 824 611 b 753 581 763 611 756 600 b 717 438 751 563 747 438 b 703 463 703 438 703 463 b 711 554 703 501 711 533 b 685 590 711 579 699 590 b 646 492 647 590 646 507 b 699 397 646 447 660 397 z m 281 614 b 260 625 281 624 271 625 b 219 631 242 625 219 621 b 340 656 221 653 313 654 b 331 450 338 614 331 526 b 396 319 331 424 332 319 b 396 386 428 319 404 343 b 399 657 381 456 394 563 b 532 646 469 665 504 646 b 574 669 546 646 558 651 b 414 713 615 721 474 714 b 188 631 260 708 188 683 b 246 594 188 604 224 594 b 281 614 260 594 281 594 z m 690 596 b 718 635 710 596 718 619 b 689 669 718 653 708 669 b 660 635 669 669 660 651 b 690 596 660 614 669 596 z m 574 596 b 574 438 600 551 600 450 b 532 576 536 421 582 578 b 485 444 478 575 517 444 b 492 578 460 444 460 524 b 474 614 501 594 499 614 b 414 518 421 614 414 560 b 467 406 414 442 431 406 b 515 444 483 406 507 419 b 564 403 518 421 538 403 b 635 533 636 403 635 519 b 601 631 635 585 624 621 b 574 596 571 646 563 614 z m 657 360 b 633 393 658 381 647 393 b 608 358 614 393 608 379 l 544 357 b 519 393 544 381 538 393 b 496 357 500 393 496 378 b 414 353 435 357 403 399 b 497 325 424 314 475 325 b 453 135 494 292 504 135 b 424 192 428 135 419 172 b 436 304 465 225 494 304 b 336 136 360 304 401 136 b 289 460 269 136 379 407 b 258 468 279 465 268 468 b 242 436 244 468 233 460 b 249 211 272 347 249 288 b 311 101 249 142 272 101 b 379 135 338 101 363 117 b 435 101 390 114 413 101 b 499 158 468 101 490 128 b 551 106 497 129 525 106 b 614 161 582 106 606 136 b 661 108 618 142 636 108 b 707 157 683 108 699 139 b 767 101 710 129 736 101 b 826 164 800 101 818 138 b 851 96 826 125 836 97 b 917 269 907 90 863 260 b 935 217 944 274 953 235 b 907 204 925 206 907 218 b 944 179 907 183 929 176 b 932 301 997 190 990 301 b 869 247 907 301 875 272 b 833 303 872 272 860 297 b 814 289 826 304 814 301 b 825 226 814 269 828 260 b 772 135 822 192 808 135 b 749 192 746 135 746 174 b 769 307 808 217 826 307 b 674 153 703 307 713 153 b 657 324 643 153 656 304 b 878 329 729 324 810 325 b 1003 397 919 332 1003 338 b 990 401 1003 410 997 404 b 657 360 883 353 719 361 z m 546 325 l 608 325 b 560 146 606 299 606 143 b 546 325 533 147 547 297 z m 424 211 b 450 274 424 235 438 286 b 424 211 458 267 438 222 z m 751 211 b 778 275 753 226 764 272 l 781 275 b 788 265 785 275 788 272 b 751 211 788 258 786 228 z m 561 44 b 561 36 554 44 554 36 b 561 44 567 36 567 44 z m 601 11 l 610 11 l 610 44 l 601 44 z m 672 42 l 664 39 l 664 35 l 651 35 l 651 42 l 644 39 l 644 35 l 642 35 l 642 29 l 644 29 l 644 21 b 646 13 644 18 644 14 b 658 11 649 10 653 10 l 658 18 b 651 21 653 17 651 18 l 651 29 l 664 29 b 665 13 664 25 663 17 b 678 11 668 10 675 10 l 678 18 b 672 21 675 17 672 18 l 672 29 l 678 29 l 678 35 l 672 35 z m 507 42 l 499 39 l 499 35 l 496 35 l 496 29 l 499 29 b 500 13 499 24 497 17 b 513 11 503 10 508 10 l 513 18 b 507 21 508 17 507 18 l 507 29 l 513 29 l 513 35 l 507 35 z m 822 36 b 813 31 817 36 815 35 b 799 33 811 38 803 38 l 797 35 l 792 35 l 792 11 l 799 11 l 799 25 b 803 29 799 26 800 29 b 807 24 807 29 807 26 l 807 11 l 814 11 l 814 24 b 824 24 814 28 824 33 l 824 11 l 829 11 l 829 25 b 822 36 829 33 826 36 z m 693 36 b 681 22 685 36 681 31 b 706 13 681 11 693 7 l 703 18 b 690 21 700 17 690 14 l 706 21 b 693 36 706 31 700 36 z m 586 36 b 581 33 583 36 582 35 l 579 35 l 571 35 l 571 11 l 581 11 b 581 26 581 13 581 25 b 588 24 582 31 588 29 l 588 11 l 597 11 l 597 25 b 586 36 597 33 592 36 z m 715 31 l 715 35 l 710 35 b 710 11 710 31 710 17 l 717 11 b 717 25 717 13 717 25 b 726 28 717 26 722 29 l 726 36 b 715 31 722 36 718 35 z m 626 36 b 614 22 618 36 614 31 b 639 13 614 13 628 7 l 636 18 b 624 21 633 17 624 14 l 639 21 b 626 36 639 31 633 36 z m 775 36 b 775 10 757 36 757 10 b 775 36 792 10 792 36 z m 746 24 b 760 28 746 29 756 31 l 760 35 b 760 13 729 42 731 3 l 760 18 b 746 24 756 18 746 17 z m 543 18 l 538 35 l 532 35 l 528 18 l 525 35 l 517 35 l 524 11 l 531 11 l 535 26 l 540 11 l 547 11 l 553 35 l 546 35 z m 469 18 l 465 35 l 460 35 l 454 18 l 451 35 l 444 35 l 450 11 l 458 11 l 463 26 l 467 11 l 475 11 l 481 35 l 474 35 z m 432 18 l 428 35 l 421 35 l 417 18 l 414 35 l 407 35 l 413 11 l 419 11 l 425 26 l 429 11 l 436 11 l 443 35 l 435 35 z m 558 11 l 565 11 l 565 35 l 558 35 z m 394 18 l 390 35 l 383 35 l 379 18 l 376 35 l 368 35 l 375 11 l 382 11 l 386 26 l 392 11 l 399 11 l 404 35 l 397 35 z m 690 25 b 699 25 690 31 699 31 z m 624 25 b 632 25 624 31 632 31 z m 775 17 b 775 29 767 17 765 29 b 775 17 782 29 782 17 z m 729 19 b 729 10 724 19 724 10 b 729 19 735 10 735 19 z m 488 19 b 488 10 482 19 482 10 b 488 19 494 10 494 19 z "},":":{"ha":1193,"x_min":0,"x_max":0,"o":"m 699 397 b 751 447 729 397 746 425 b 778 403 751 429 756 403 b 853 586 843 403 822 610 b 844 478 867 575 847 525 b 886 392 842 442 850 392 b 956 728 958 392 1007 592 b 763 860 921 821 846 871 b 601 721 682 849 613 785 b 633 647 594 679 613 647 b 669 689 646 647 660 660 b 797 786 689 749 742 786 b 878 756 825 786 853 776 b 913 424 985 667 946 431 b 911 540 892 419 908 525 b 863 611 919 588 893 611 b 817 561 836 611 822 596 b 797 474 806 481 794 442 b 782 611 804 543 824 611 b 753 581 763 611 756 600 b 717 438 751 563 747 438 b 703 463 703 438 703 463 b 711 554 703 501 711 533 b 685 590 711 579 699 590 b 646 492 647 590 646 507 b 699 397 646 447 660 397 z m 281 614 b 260 625 281 624 271 625 b 219 631 242 625 219 621 b 340 656 221 653 313 654 b 331 450 338 614 331 526 b 396 319 331 424 332 319 b 396 386 428 319 404 343 b 399 657 381 456 394 563 b 532 646 469 665 504 646 b 574 669 546 646 558 651 b 414 713 615 721 474 714 b 188 631 260 708 188 683 b 246 594 188 604 224 594 b 281 614 260 594 281 594 z m 690 596 b 718 635 710 596 718 619 b 689 669 718 653 708 669 b 660 635 669 669 660 651 b 690 596 660 614 669 596 z m 574 596 b 574 438 600 551 600 450 b 532 576 536 421 582 578 b 485 444 478 575 517 444 b 492 578 460 444 460 524 b 474 614 501 594 499 614 b 414 518 421 614 414 560 b 467 406 414 442 431 406 b 515 444 483 406 507 419 b 564 403 518 421 538 403 b 635 533 636 403 635 519 b 601 631 635 585 624 621 b 574 596 571 646 563 614 z m 657 360 b 633 393 658 381 647 393 b 608 358 614 393 608 379 l 544 357 b 519 393 544 381 538 393 b 496 357 500 393 496 378 b 414 353 435 357 403 399 b 497 325 424 314 475 325 b 453 135 494 292 504 135 b 424 192 428 135 419 172 b 436 304 465 225 494 304 b 336 136 360 304 401 136 b 289 460 269 136 379 407 b 258 468 279 465 268 468 b 242 436 244 468 233 460 b 249 211 272 347 249 288 b 311 101 249 142 272 101 b 379 135 338 101 363 117 b 435 101 390 114 413 101 b 499 158 468 101 490 128 b 551 106 497 129 525 106 b 614 161 582 106 606 136 b 661 108 618 142 636 108 b 707 157 683 108 699 139 b 767 101 710 129 736 101 b 826 164 800 101 818 138 b 851 96 826 125 836 97 b 917 269 907 90 863 260 b 935 217 944 274 953 235 b 907 204 925 206 907 218 b 944 179 907 183 929 176 b 932 301 997 190 990 301 b 869 247 907 301 875 272 b 833 303 872 272 860 297 b 814 289 826 304 814 301 b 825 226 814 269 828 260 b 772 135 822 192 808 135 b 749 192 746 135 746 174 b 769 307 808 217 826 307 b 674 153 703 307 713 153 b 657 324 643 153 656 304 b 878 329 729 324 810 325 b 1003 397 919 332 1003 338 b 990 401 1003 410 997 404 b 657 360 883 353 719 361 z m 546 325 l 608 325 b 560 146 606 299 606 143 b 546 325 533 147 547 297 z m 424 211 b 450 274 424 235 438 286 b 424 211 458 267 438 222 z m 751 211 b 778 275 753 226 764 272 l 781 275 b 788 265 785 275 788 272 b 751 211 788 258 786 228 z m 561 44 b 561 36 554 44 554 36 b 561 44 567 36 567 44 z m 601 11 l 610 11 l 610 44 l 601 44 z m 672 42 l 664 39 l 664 35 l 651 35 l 651 42 l 644 39 l 644 35 l 642 35 l 642 29 l 644 29 l 644 21 b 646 13 644 18 644 14 b 658 11 649 10 653 10 l 658 18 b 651 21 653 17 651 18 l 651 29 l 664 29 b 665 13 664 25 663 17 b 678 11 668 10 675 10 l 678 18 b 672 21 675 17 672 18 l 672 29 l 678 29 l 678 35 l 672 35 z m 507 42 l 499 39 l 499 35 l 496 35 l 496 29 l 499 29 b 500 13 499 24 497 17 b 513 11 503 10 508 10 l 513 18 b 507 21 508 17 507 18 l 507 29 l 513 29 l 513 35 l 507 35 z m 822 36 b 813 31 817 36 815 35 b 799 33 811 38 803 38 l 797 35 l 792 35 l 792 11 l 799 11 l 799 25 b 803 29 799 26 800 29 b 807 24 807 29 807 26 l 807 11 l 814 11 l 814 24 b 824 24 814 28 824 33 l 824 11 l 829 11 l 829 25 b 822 36 829 33 826 36 z m 693 36 b 681 22 685 36 681 31 b 706 13 681 11 693 7 l 703 18 b 690 21 700 17 690 14 l 706 21 b 693 36 706 31 700 36 z m 586 36 b 581 33 583 36 582 35 l 579 35 l 571 35 l 571 11 l 581 11 b 581 26 581 13 581 25 b 588 24 582 31 588 29 l 588 11 l 597 11 l 597 25 b 586 36 597 33 592 36 z m 715 31 l 715 35 l 710 35 b 710 11 710 31 710 17 l 717 11 b 717 25 717 13 717 25 b 726 28 717 26 722 29 l 726 36 b 715 31 722 36 718 35 z m 626 36 b 614 22 618 36 614 31 b 639 13 614 13 628 7 l 636 18 b 624 21 633 17 624 14 l 639 21 b 626 36 639 31 633 36 z m 775 36 b 775 10 757 36 757 10 b 775 36 792 10 792 36 z m 746 24 b 760 28 746 29 756 31 l 760 35 b 760 13 729 42 731 3 l 760 18 b 746 24 756 18 746 17 z m 543 18 l 538 35 l 532 35 l 528 18 l 525 35 l 517 35 l 524 11 l 531 11 l 535 26 l 540 11 l 547 11 l 553 35 l 546 35 z m 469 18 l 465 35 l 460 35 l 454 18 l 451 35 l 444 35 l 450 11 l 458 11 l 463 26 l 467 11 l 475 11 l 481 35 l 474 35 z m 432 18 l 428 35 l 421 35 l 417 18 l 414 35 l 407 35 l 413 11 l 419 11 l 425 26 l 429 11 l 436 11 l 443 35 l 435 35 z m 558 11 l 565 11 l 565 35 l 558 35 z m 394 18 l 390 35 l 383 35 l 379 18 l 376 35 l 368 35 l 375 11 l 382 11 l 386 26 l 392 11 l 399 11 l 404 35 l 397 35 z m 690 25 b 699 25 690 31 699 31 z m 624 25 b 632 25 624 31 632 31 z m 775 17 b 775 29 767 17 765 29 b 775 17 782 29 782 17 z m 729 19 b 729 10 724 19 724 10 b 729 19 735 10 735 19 z m 488 19 b 488 10 482 19 482 10 b 488 19 494 10 494 19 z "},",":{"ha":1193,"x_min":0,"x_max":0,"o":"m 699 397 b 751 447 729 397 746 425 b 778 403 751 429 756 403 b 853 586 843 403 822 610 b 844 478 867 575 847 525 b 886 392 842 442 850 392 b 956 728 958 392 1007 592 b 763 860 921 821 846 871 b 601 721 682 849 613 785 b 633 647 594 679 613 647 b 669 689 646 647 660 660 b 797 786 689 749 742 786 b 878 756 825 786 853 776 b 913 424 985 667 946 431 b 911 540 892 419 908 525 b 863 611 919 588 893 611 b 817 561 836 611 822 596 b 797 474 806 481 794 442 b 782 611 804 543 824 611 b 753 581 763 611 756 600 b 717 438 751 563 747 438 b 703 463 703 438 703 463 b 711 554 703 501 711 533 b 685 590 711 579 699 590 b 646 492 647 590 646 507 b 699 397 646 447 660 397 z m 281 614 b 260 625 281 624 271 625 b 219 631 242 625 219 621 b 340 656 221 653 313 654 b 331 450 338 614 331 526 b 396 319 331 424 332 319 b 396 386 428 319 404 343 b 399 657 381 456 394 563 b 532 646 469 665 504 646 b 574 669 546 646 558 651 b 414 713 615 721 474 714 b 188 631 260 708 188 683 b 246 594 188 604 224 594 b 281 614 260 594 281 594 z m 690 596 b 718 635 710 596 718 619 b 689 669 718 653 708 669 b 660 635 669 669 660 651 b 690 596 660 614 669 596 z m 574 596 b 574 438 600 551 600 450 b 532 576 536 421 582 578 b 485 444 478 575 517 444 b 492 578 460 444 460 524 b 474 614 501 594 499 614 b 414 518 421 614 414 560 b 467 406 414 442 431 406 b 515 444 483 406 507 419 b 564 403 518 421 538 403 b 635 533 636 403 635 519 b 601 631 635 585 624 621 b 574 596 571 646 563 614 z m 657 360 b 633 393 658 381 647 393 b 608 358 614 393 608 379 l 544 357 b 519 393 544 381 538 393 b 496 357 500 393 496 378 b 414 353 435 357 403 399 b 497 325 424 314 475 325 b 453 135 494 292 504 135 b 424 192 428 135 419 172 b 436 304 465 225 494 304 b 336 136 360 304 401 136 b 289 460 269 136 379 407 b 258 468 279 465 268 468 b 242 436 244 468 233 460 b 249 211 272 347 249 288 b 311 101 249 142 272 101 b 379 135 338 101 363 117 b 435 101 390 114 413 101 b 499 158 468 101 490 128 b 551 106 497 129 525 106 b 614 161 582 106 606 136 b 661 108 618 142 636 108 b 707 157 683 108 699 139 b 767 101 710 129 736 101 b 826 164 800 101 818 138 b 851 96 826 125 836 97 b 917 269 907 90 863 260 b 935 217 944 274 953 235 b 907 204 925 206 907 218 b 944 179 907 183 929 176 b 932 301 997 190 990 301 b 869 247 907 301 875 272 b 833 303 872 272 860 297 b 814 289 826 304 814 301 b 825 226 814 269 828 260 b 772 135 822 192 808 135 b 749 192 746 135 746 174 b 769 307 808 217 826 307 b 674 153 703 307 713 153 b 657 324 643 153 656 304 b 878 329 729 324 810 325 b 1003 397 919 332 1003 338 b 990 401 1003 410 997 404 b 657 360 883 353 719 361 z m 546 325 l 608 325 b 560 146 606 299 606 143 b 546 325 533 147 547 297 z m 424 211 b 450 274 424 235 438 286 b 424 211 458 267 438 222 z m 751 211 b 778 275 753 226 764 272 l 781 275 b 788 265 785 275 788 272 b 751 211 788 258 786 228 z m 561 44 b 561 36 554 44 554 36 b 561 44 567 36 567 44 z m 601 11 l 610 11 l 610 44 l 601 44 z m 672 42 l 664 39 l 664 35 l 651 35 l 651 42 l 644 39 l 644 35 l 642 35 l 642 29 l 644 29 l 644 21 b 646 13 644 18 644 14 b 658 11 649 10 653 10 l 658 18 b 651 21 653 17 651 18 l 651 29 l 664 29 b 665 13 664 25 663 17 b 678 11 668 10 675 10 l 678 18 b 672 21 675 17 672 18 l 672 29 l 678 29 l 678 35 l 672 35 z m 507 42 l 499 39 l 499 35 l 496 35 l 496 29 l 499 29 b 500 13 499 24 497 17 b 513 11 503 10 508 10 l 513 18 b 507 21 508 17 507 18 l 507 29 l 513 29 l 513 35 l 507 35 z m 822 36 b 813 31 817 36 815 35 b 799 33 811 38 803 38 l 797 35 l 792 35 l 792 11 l 799 11 l 799 25 b 803 29 799 26 800 29 b 807 24 807 29 807 26 l 807 11 l 814 11 l 814 24 b 824 24 814 28 824 33 l 824 11 l 829 11 l 829 25 b 822 36 829 33 826 36 z m 693 36 b 681 22 685 36 681 31 b 706 13 681 11 693 7 l 703 18 b 690 21 700 17 690 14 l 706 21 b 693 36 706 31 700 36 z m 586 36 b 581 33 583 36 582 35 l 579 35 l 571 35 l 571 11 l 581 11 b 581 26 581 13 581 25 b 588 24 582 31 588 29 l 588 11 l 597 11 l 597 25 b 586 36 597 33 592 36 z m 715 31 l 715 35 l 710 35 b 710 11 710 31 710 17 l 717 11 b 717 25 717 13 717 25 b 726 28 717 26 722 29 l 726 36 b 715 31 722 36 718 35 z m 626 36 b 614 22 618 36 614 31 b 639 13 614 13 628 7 l 636 18 b 624 21 633 17 624 14 l 639 21 b 626 36 639 31 633 36 z m 775 36 b 775 10 757 36 757 10 b 775 36 792 10 792 36 z m 746 24 b 760 28 746 29 756 31 l 760 35 b 760 13 729 42 731 3 l 760 18 b 746 24 756 18 746 17 z m 543 18 l 538 35 l 532 35 l 528 18 l 525 35 l 517 35 l 524 11 l 531 11 l 535 26 l 540 11 l 547 11 l 553 35 l 546 35 z m 469 18 l 465 35 l 460 35 l 454 18 l 451 35 l 444 35 l 450 11 l 458 11 l 463 26 l 467 11 l 475 11 l 481 35 l 474 35 z m 432 18 l 428 35 l 421 35 l 417 18 l 414 35 l 407 35 l 413 11 l 419 11 l 425 26 l 429 11 l 436 11 l 443 35 l 435 35 z m 558 11 l 565 11 l 565 35 l 558 35 z m 394 18 l 390 35 l 383 35 l 379 18 l 376 35 l 368 35 l 375 11 l 382 11 l 386 26 l 392 11 l 399 11 l 404 35 l 397 35 z m 690 25 b 699 25 690 31 699 31 z m 624 25 b 632 25 624 31 632 31 z m 775 17 b 775 29 767 17 765 29 b 775 17 782 29 782 17 z m 729 19 b 729 10 724 19 724 10 b 729 19 735 10 735 19 z m 488 19 b 488 10 482 19 482 10 b 488 19 494 10 494 19 z "},";":{"ha":400,"x_min":0,"x_max":0,"o":"m 210 469 b 324 585 279 469 324 515 b 210 699 324 653 279 699 b 96 585 140 699 96 653 b 210 469 96 515 140 469 z m 36 -162 l 218 -162 b 311 207 274 -53 299 43 l 103 207 b 36 -162 99 10 93 -25 z "},"":{"ha":1193,"x_min":0,"x_max":0,"o":"m 699 397 b 751 447 729 397 746 425 b 778 403 751 429 756 403 b 853 586 843 403 822 610 b 844 478 867 575 847 525 b 886 392 842 442 850 392 b 956 728 958 392 1007 592 b 763 860 921 821 846 871 b 601 721 682 849 613 785 b 633 647 594 679 613 647 b 669 689 646 647 660 660 b 797 786 689 749 742 786 b 878 756 825 786 853 776 b 913 424 985 667 946 431 b 911 540 892 419 908 525 b 863 611 919 588 893 611 b 817 561 836 611 822 596 b 797 474 806 481 794 442 b 782 611 804 543 824 611 b 753 581 763 611 756 600 b 717 438 751 563 747 438 b 703 463 703 438 703 463 b 711 554 703 501 711 533 b 685 590 711 579 699 590 b 646 492 647 590 646 507 b 699 397 646 447 660 397 z m 281 614 b 260 625 281 624 271 625 b 219 631 242 625 219 621 b 340 656 221 653 313 654 b 331 450 338 614 331 526 b 396 319 331 424 332 319 b 396 386 428 319 404 343 b 399 657 381 456 394 563 b 532 646 469 665 504 646 b 574 669 546 646 558 651 b 414 713 615 721 474 714 b 188 631 260 708 188 683 b 246 594 188 604 224 594 b 281 614 260 594 281 594 z m 690 596 b 718 635 710 596 718 619 b 689 669 718 653 708 669 b 660 635 669 669 660 651 b 690 596 660 614 669 596 z m 574 596 b 574 438 600 551 600 450 b 532 576 536 421 582 578 b 485 444 478 575 517 444 b 492 578 460 444 460 524 b 474 614 501 594 499 614 b 414 518 421 614 414 560 b 467 406 414 442 431 406 b 515 444 483 406 507 419 b 564 403 518 421 538 403 b 635 533 636 403 635 519 b 601 631 635 585 624 621 b 574 596 571 646 563 614 z m 657 360 b 633 393 658 381 647 393 b 608 358 614 393 608 379 l 544 357 b 519 393 544 381 538 393 b 496 357 500 393 496 378 b 414 353 435 357 403 399 b 497 325 424 314 475 325 b 453 135 494 292 504 135 b 424 192 428 135 419 172 b 436 304 465 225 494 304 b 336 136 360 304 401 136 b 289 460 269 136 379 407 b 258 468 279 465 268 468 b 242 436 244 468 233 460 b 249 211 272 347 249 288 b 311 101 249 142 272 101 b 379 135 338 101 363 117 b 435 101 390 114 413 101 b 499 158 468 101 490 128 b 551 106 497 129 525 106 b 614 161 582 106 606 136 b 661 108 618 142 636 108 b 707 157 683 108 699 139 b 767 101 710 129 736 101 b 826 164 800 101 818 138 b 851 96 826 125 836 97 b 917 269 907 90 863 260 b 935 217 944 274 953 235 b 907 204 925 206 907 218 b 944 179 907 183 929 176 b 932 301 997 190 990 301 b 869 247 907 301 875 272 b 833 303 872 272 860 297 b 814 289 826 304 814 301 b 825 226 814 269 828 260 b 772 135 822 192 808 135 b 749 192 746 135 746 174 b 769 307 808 217 826 307 b 674 153 703 307 713 153 b 657 324 643 153 656 304 b 878 329 729 324 810 325 b 1003 397 919 332 1003 338 b 990 401 1003 410 997 404 b 657 360 883 353 719 361 z m 546 325 l 608 325 b 560 146 606 299 606 143 b 546 325 533 147 547 297 z m 424 211 b 450 274 424 235 438 286 b 424 211 458 267 438 222 z m 751 211 b 778 275 753 226 764 272 l 781 275 b 788 265 785 275 788 272 b 751 211 788 258 786 228 z m 561 44 b 561 36 554 44 554 36 b 561 44 567 36 567 44 z m 601 11 l 610 11 l 610 44 l 601 44 z m 672 42 l 664 39 l 664 35 l 651 35 l 651 42 l 644 39 l 644 35 l 642 35 l 642 29 l 644 29 l 644 21 b 646 13 644 18 644 14 b 658 11 649 10 653 10 l 658 18 b 651 21 653 17 651 18 l 651 29 l 664 29 b 665 13 664 25 663 17 b 678 11 668 10 675 10 l 678 18 b 672 21 675 17 672 18 l 672 29 l 678 29 l 678 35 l 672 35 z m 507 42 l 499 39 l 499 35 l 496 35 l 496 29 l 499 29 b 500 13 499 24 497 17 b 513 11 503 10 508 10 l 513 18 b 507 21 508 17 507 18 l 507 29 l 513 29 l 513 35 l 507 35 z m 822 36 b 813 31 817 36 815 35 b 799 33 811 38 803 38 l 797 35 l 792 35 l 792 11 l 799 11 l 799 25 b 803 29 799 26 800 29 b 807 24 807 29 807 26 l 807 11 l 814 11 l 814 24 b 824 24 814 28 824 33 l 824 11 l 829 11 l 829 25 b 822 36 829 33 826 36 z m 693 36 b 681 22 685 36 681 31 b 706 13 681 11 693 7 l 703 18 b 690 21 700 17 690 14 l 706 21 b 693 36 706 31 700 36 z m 586 36 b 581 33 583 36 582 35 l 579 35 l 571 35 l 571 11 l 581 11 b 581 26 581 13 581 25 b 588 24 582 31 588 29 l 588 11 l 597 11 l 597 25 b 586 36 597 33 592 36 z m 715 31 l 715 35 l 710 35 b 710 11 710 31 710 17 l 717 11 b 717 25 717 13 717 25 b 726 28 717 26 722 29 l 726 36 b 715 31 722 36 718 35 z m 626 36 b 614 22 618 36 614 31 b 639 13 614 13 628 7 l 636 18 b 624 21 633 17 624 14 l 639 21 b 626 36 639 31 633 36 z m 775 36 b 775 10 757 36 757 10 b 775 36 792 10 792 36 z m 746 24 b 760 28 746 29 756 31 l 760 35 b 760 13 729 42 731 3 l 760 18 b 746 24 756 18 746 17 z m 543 18 l 538 35 l 532 35 l 528 18 l 525 35 l 517 35 l 524 11 l 531 11 l 535 26 l 540 11 l 547 11 l 553 35 l 546 35 z m 469 18 l 465 35 l 460 35 l 454 18 l 451 35 l 444 35 l 450 11 l 458 11 l 463 26 l 467 11 l 475 11 l 481 35 l 474 35 z m 432 18 l 428 35 l 421 35 l 417 18 l 414 35 l 407 35 l 413 11 l 419 11 l 425 26 l 429 11 l 436 11 l 443 35 l 435 35 z m 558 11 l 565 11 l 565 35 l 558 35 z m 394 18 l 390 35 l 383 35 l 379 18 l 376 35 l 368 35 l 375 11 l 382 11 l 386 26 l 392 11 l 399 11 l 404 35 l 397 35 z m 690 25 b 699 25 690 31 699 31 z m 624 25 b 632 25 624 31 632 31 z m 775 17 b 775 29 767 17 765 29 b 775 17 782 29 782 17 z m 729 19 b 729 10 724 19 724 10 b 729 19 735 10 735 19 z m 488 19 b 488 10 482 19 482 10 b 488 19 494 10 494 19 z "},"":{"ha":1193,"x_min":0,"x_max":0,"o":"m 699 397 b 751 447 729 397 746 425 b 778 403 751 429 756 403 b 853 586 843 403 822 610 b 844 478 867 575 847 525 b 886 392 842 442 850 392 b 956 728 958 392 1007 592 b 763 860 921 821 846 871 b 601 721 682 849 613 785 b 633 647 594 679 613 647 b 669 689 646 647 660 660 b 797 786 689 749 742 786 b 878 756 825 786 853 776 b 913 424 985 667 946 431 b 911 540 892 419 908 525 b 863 611 919 588 893 611 b 817 561 836 611 822 596 b 797 474 806 481 794 442 b 782 611 804 543 824 611 b 753 581 763 611 756 600 b 717 438 751 563 747 438 b 703 463 703 438 703 463 b 711 554 703 501 711 533 b 685 590 711 579 699 590 b 646 492 647 590 646 507 b 699 397 646 447 660 397 z m 281 614 b 260 625 281 624 271 625 b 219 631 242 625 219 621 b 340 656 221 653 313 654 b 331 450 338 614 331 526 b 396 319 331 424 332 319 b 396 386 428 319 404 343 b 399 657 381 456 394 563 b 532 646 469 665 504 646 b 574 669 546 646 558 651 b 414 713 615 721 474 714 b 188 631 260 708 188 683 b 246 594 188 604 224 594 b 281 614 260 594 281 594 z m 690 596 b 718 635 710 596 718 619 b 689 669 718 653 708 669 b 660 635 669 669 660 651 b 690 596 660 614 669 596 z m 574 596 b 574 438 600 551 600 450 b 532 576 536 421 582 578 b 485 444 478 575 517 444 b 492 578 460 444 460 524 b 474 614 501 594 499 614 b 414 518 421 614 414 560 b 467 406 414 442 431 406 b 515 444 483 406 507 419 b 564 403 518 421 538 403 b 635 533 636 403 635 519 b 601 631 635 585 624 621 b 574 596 571 646 563 614 z m 657 360 b 633 393 658 381 647 393 b 608 358 614 393 608 379 l 544 357 b 519 393 544 381 538 393 b 496 357 500 393 496 378 b 414 353 435 357 403 399 b 497 325 424 314 475 325 b 453 135 494 292 504 135 b 424 192 428 135 419 172 b 436 304 465 225 494 304 b 336 136 360 304 401 136 b 289 460 269 136 379 407 b 258 468 279 465 268 468 b 242 436 244 468 233 460 b 249 211 272 347 249 288 b 311 101 249 142 272 101 b 379 135 338 101 363 117 b 435 101 390 114 413 101 b 499 158 468 101 490 128 b 551 106 497 129 525 106 b 614 161 582 106 606 136 b 661 108 618 142 636 108 b 707 157 683 108 699 139 b 767 101 710 129 736 101 b 826 164 800 101 818 138 b 851 96 826 125 836 97 b 917 269 907 90 863 260 b 935 217 944 274 953 235 b 907 204 925 206 907 218 b 944 179 907 183 929 176 b 932 301 997 190 990 301 b 869 247 907 301 875 272 b 833 303 872 272 860 297 b 814 289 826 304 814 301 b 825 226 814 269 828 260 b 772 135 822 192 808 135 b 749 192 746 135 746 174 b 769 307 808 217 826 307 b 674 153 703 307 713 153 b 657 324 643 153 656 304 b 878 329 729 324 810 325 b 1003 397 919 332 1003 338 b 990 401 1003 410 997 404 b 657 360 883 353 719 361 z m 546 325 l 608 325 b 560 146 606 299 606 143 b 546 325 533 147 547 297 z m 424 211 b 450 274 424 235 438 286 b 424 211 458 267 438 222 z m 751 211 b 778 275 753 226 764 272 l 781 275 b 788 265 785 275 788 272 b 751 211 788 258 786 228 z m 561 44 b 561 36 554 44 554 36 b 561 44 567 36 567 44 z m 601 11 l 610 11 l 610 44 l 601 44 z m 672 42 l 664 39 l 664 35 l 651 35 l 651 42 l 644 39 l 644 35 l 642 35 l 642 29 l 644 29 l 644 21 b 646 13 644 18 644 14 b 658 11 649 10 653 10 l 658 18 b 651 21 653 17 651 18 l 651 29 l 664 29 b 665 13 664 25 663 17 b 678 11 668 10 675 10 l 678 18 b 672 21 675 17 672 18 l 672 29 l 678 29 l 678 35 l 672 35 z m 507 42 l 499 39 l 499 35 l 496 35 l 496 29 l 499 29 b 500 13 499 24 497 17 b 513 11 503 10 508 10 l 513 18 b 507 21 508 17 507 18 l 507 29 l 513 29 l 513 35 l 507 35 z m 822 36 b 813 31 817 36 815 35 b 799 33 811 38 803 38 l 797 35 l 792 35 l 792 11 l 799 11 l 799 25 b 803 29 799 26 800 29 b 807 24 807 29 807 26 l 807 11 l 814 11 l 814 24 b 824 24 814 28 824 33 l 824 11 l 829 11 l 829 25 b 822 36 829 33 826 36 z m 693 36 b 681 22 685 36 681 31 b 706 13 681 11 693 7 l 703 18 b 690 21 700 17 690 14 l 706 21 b 693 36 706 31 700 36 z m 586 36 b 581 33 583 36 582 35 l 579 35 l 571 35 l 571 11 l 581 11 b 581 26 581 13 581 25 b 588 24 582 31 588 29 l 588 11 l 597 11 l 597 25 b 586 36 597 33 592 36 z m 715 31 l 715 35 l 710 35 b 710 11 710 31 710 17 l 717 11 b 717 25 717 13 717 25 b 726 28 717 26 722 29 l 726 36 b 715 31 722 36 718 35 z m 626 36 b 614 22 618 36 614 31 b 639 13 614 13 628 7 l 636 18 b 624 21 633 17 624 14 l 639 21 b 626 36 639 31 633 36 z m 775 36 b 775 10 757 36 757 10 b 775 36 792 10 792 36 z m 746 24 b 760 28 746 29 756 31 l 760 35 b 760 13 729 42 731 3 l 760 18 b 746 24 756 18 746 17 z m 543 18 l 538 35 l 532 35 l 528 18 l 525 35 l 517 35 l 524 11 l 531 11 l 535 26 l 540 11 l 547 11 l 553 35 l 546 35 z m 469 18 l 465 35 l 460 35 l 454 18 l 451 35 l 444 35 l 450 11 l 458 11 l 463 26 l 467 11 l 475 11 l 481 35 l 474 35 z m 432 18 l 428 35 l 421 35 l 417 18 l 414 35 l 407 35 l 413 11 l 419 11 l 425 26 l 429 11 l 436 11 l 443 35 l 435 35 z m 558 11 l 565 11 l 565 35 l 558 35 z m 394 18 l 390 35 l 383 35 l 379 18 l 376 35 l 368 35 l 375 11 l 382 11 l 386 26 l 392 11 l 399 11 l 404 35 l 397 35 z m 690 25 b 699 25 690 31 699 31 z m 624 25 b 632 25 624 31 632 31 z m 775 17 b 775 29 767 17 765 29 b 775 17 782 29 782 17 z m 729 19 b 729 10 724 19 724 10 b 729 19 735 10 735 19 z m 488 19 b 488 10 482 19 482 10 b 488 19 494 10 494 19 z "},"":{"ha":633,"x_min":0,"x_max":0,"o":"m 529 601 b 596 972 533 800 540 833 l 414 972 b 321 601 358 861 335 765 z m 283 601 b 350 972 288 800 294 833 l 168 972 b 75 601 113 861 88 765 z "},"":{"ha":1193,"x_min":0,"x_max":0,"o":"m 699 397 b 751 447 729 397 746 425 b 778 403 751 429 756 403 b 853 586 843 403 822 610 b 844 478 867 575 847 525 b 886 392 842 442 850 392 b 956 728 958 392 1007 592 b 763 860 921 821 846 871 b 601 721 682 849 613 785 b 633 647 594 679 613 647 b 669 689 646 647 660 660 b 797 786 689 749 742 786 b 878 756 825 786 853 776 b 913 424 985 667 946 431 b 911 540 892 419 908 525 b 863 611 919 588 893 611 b 817 561 836 611 822 596 b 797 474 806 481 794 442 b 782 611 804 543 824 611 b 753 581 763 611 756 600 b 717 438 751 563 747 438 b 703 463 703 438 703 463 b 711 554 703 501 711 533 b 685 590 711 579 699 590 b 646 492 647 590 646 507 b 699 397 646 447 660 397 z m 281 614 b 260 625 281 624 271 625 b 219 631 242 625 219 621 b 340 656 221 653 313 654 b 331 450 338 614 331 526 b 396 319 331 424 332 319 b 396 386 428 319 404 343 b 399 657 381 456 394 563 b 532 646 469 665 504 646 b 574 669 546 646 558 651 b 414 713 615 721 474 714 b 188 631 260 708 188 683 b 246 594 188 604 224 594 b 281 614 260 594 281 594 z m 690 596 b 718 635 710 596 718 619 b 689 669 718 653 708 669 b 660 635 669 669 660 651 b 690 596 660 614 669 596 z m 574 596 b 574 438 600 551 600 450 b 532 576 536 421 582 578 b 485 444 478 575 517 444 b 492 578 460 444 460 524 b 474 614 501 594 499 614 b 414 518 421 614 414 560 b 467 406 414 442 431 406 b 515 444 483 406 507 419 b 564 403 518 421 538 403 b 635 533 636 403 635 519 b 601 631 635 585 624 621 b 574 596 571 646 563 614 z m 657 360 b 633 393 658 381 647 393 b 608 358 614 393 608 379 l 544 357 b 519 393 544 381 538 393 b 496 357 500 393 496 378 b 414 353 435 357 403 399 b 497 325 424 314 475 325 b 453 135 494 292 504 135 b 424 192 428 135 419 172 b 436 304 465 225 494 304 b 336 136 360 304 401 136 b 289 460 269 136 379 407 b 258 468 279 465 268 468 b 242 436 244 468 233 460 b 249 211 272 347 249 288 b 311 101 249 142 272 101 b 379 135 338 101 363 117 b 435 101 390 114 413 101 b 499 158 468 101 490 128 b 551 106 497 129 525 106 b 614 161 582 106 606 136 b 661 108 618 142 636 108 b 707 157 683 108 699 139 b 767 101 710 129 736 101 b 826 164 800 101 818 138 b 851 96 826 125 836 97 b 917 269 907 90 863 260 b 935 217 944 274 953 235 b 907 204 925 206 907 218 b 944 179 907 183 929 176 b 932 301 997 190 990 301 b 869 247 907 301 875 272 b 833 303 872 272 860 297 b 814 289 826 304 814 301 b 825 226 814 269 828 260 b 772 135 822 192 808 135 b 749 192 746 135 746 174 b 769 307 808 217 826 307 b 674 153 703 307 713 153 b 657 324 643 153 656 304 b 878 329 729 324 810 325 b 1003 397 919 332 1003 338 b 990 401 1003 410 997 404 b 657 360 883 353 719 361 z m 546 325 l 608 325 b 560 146 606 299 606 143 b 546 325 533 147 547 297 z m 424 211 b 450 274 424 235 438 286 b 424 211 458 267 438 222 z m 751 211 b 778 275 753 226 764 272 l 781 275 b 788 265 785 275 788 272 b 751 211 788 258 786 228 z m 561 44 b 561 36 554 44 554 36 b 561 44 567 36 567 44 z m 601 11 l 610 11 l 610 44 l 601 44 z m 672 42 l 664 39 l 664 35 l 651 35 l 651 42 l 644 39 l 644 35 l 642 35 l 642 29 l 644 29 l 644 21 b 646 13 644 18 644 14 b 658 11 649 10 653 10 l 658 18 b 651 21 653 17 651 18 l 651 29 l 664 29 b 665 13 664 25 663 17 b 678 11 668 10 675 10 l 678 18 b 672 21 675 17 672 18 l 672 29 l 678 29 l 678 35 l 672 35 z m 507 42 l 499 39 l 499 35 l 496 35 l 496 29 l 499 29 b 500 13 499 24 497 17 b 513 11 503 10 508 10 l 513 18 b 507 21 508 17 507 18 l 507 29 l 513 29 l 513 35 l 507 35 z m 822 36 b 813 31 817 36 815 35 b 799 33 811 38 803 38 l 797 35 l 792 35 l 792 11 l 799 11 l 799 25 b 803 29 799 26 800 29 b 807 24 807 29 807 26 l 807 11 l 814 11 l 814 24 b 824 24 814 28 824 33 l 824 11 l 829 11 l 829 25 b 822 36 829 33 826 36 z m 693 36 b 681 22 685 36 681 31 b 706 13 681 11 693 7 l 703 18 b 690 21 700 17 690 14 l 706 21 b 693 36 706 31 700 36 z m 586 36 b 581 33 583 36 582 35 l 579 35 l 571 35 l 571 11 l 581 11 b 581 26 581 13 581 25 b 588 24 582 31 588 29 l 588 11 l 597 11 l 597 25 b 586 36 597 33 592 36 z m 715 31 l 715 35 l 710 35 b 710 11 710 31 710 17 l 717 11 b 717 25 717 13 717 25 b 726 28 717 26 722 29 l 726 36 b 715 31 722 36 718 35 z m 626 36 b 614 22 618 36 614 31 b 639 13 614 13 628 7 l 636 18 b 624 21 633 17 624 14 l 639 21 b 626 36 639 31 633 36 z m 775 36 b 775 10 757 36 757 10 b 775 36 792 10 792 36 z m 746 24 b 760 28 746 29 756 31 l 760 35 b 760 13 729 42 731 3 l 760 18 b 746 24 756 18 746 17 z m 543 18 l 538 35 l 532 35 l 528 18 l 525 35 l 517 35 l 524 11 l 531 11 l 535 26 l 540 11 l 547 11 l 553 35 l 546 35 z m 469 18 l 465 35 l 460 35 l 454 18 l 451 35 l 444 35 l 450 11 l 458 11 l 463 26 l 467 11 l 475 11 l 481 35 l 474 35 z m 432 18 l 428 35 l 421 35 l 417 18 l 414 35 l 407 35 l 413 11 l 419 11 l 425 26 l 429 11 l 436 11 l 443 35 l 435 35 z m 558 11 l 565 11 l 565 35 l 558 35 z m 394 18 l 390 35 l 383 35 l 379 18 l 376 35 l 368 35 l 375 11 l 382 11 l 386 26 l 392 11 l 399 11 l 404 35 l 397 35 z m 690 25 b 699 25 690 31 699 31 z m 624 25 b 632 25 624 31 632 31 z m 775 17 b 775 29 767 17 765 29 b 775 17 782 29 782 17 z m 729 19 b 729 10 724 19 724 10 b 729 19 735 10 735 19 z m 488 19 b 488 10 482 19 482 10 b 488 19 494 10 494 19 z "},"":{"ha":1193,"x_min":0,"x_max":0,"o":"m 699 397 b 751 447 729 397 746 425 b 778 403 751 429 756 403 b 853 586 843 403 822 610 b 844 478 867 575 847 525 b 886 392 842 442 850 392 b 956 728 958 392 1007 592 b 763 860 921 821 846 871 b 601 721 682 849 613 785 b 633 647 594 679 613 647 b 669 689 646 647 660 660 b 797 786 689 749 742 786 b 878 756 825 786 853 776 b 913 424 985 667 946 431 b 911 540 892 419 908 525 b 863 611 919 588 893 611 b 817 561 836 611 822 596 b 797 474 806 481 794 442 b 782 611 804 543 824 611 b 753 581 763 611 756 600 b 717 438 751 563 747 438 b 703 463 703 438 703 463 b 711 554 703 501 711 533 b 685 590 711 579 699 590 b 646 492 647 590 646 507 b 699 397 646 447 660 397 z m 281 614 b 260 625 281 624 271 625 b 219 631 242 625 219 621 b 340 656 221 653 313 654 b 331 450 338 614 331 526 b 396 319 331 424 332 319 b 396 386 428 319 404 343 b 399 657 381 456 394 563 b 532 646 469 665 504 646 b 574 669 546 646 558 651 b 414 713 615 721 474 714 b 188 631 260 708 188 683 b 246 594 188 604 224 594 b 281 614 260 594 281 594 z m 690 596 b 718 635 710 596 718 619 b 689 669 718 653 708 669 b 660 635 669 669 660 651 b 690 596 660 614 669 596 z m 574 596 b 574 438 600 551 600 450 b 532 576 536 421 582 578 b 485 444 478 575 517 444 b 492 578 460 444 460 524 b 474 614 501 594 499 614 b 414 518 421 614 414 560 b 467 406 414 442 431 406 b 515 444 483 406 507 419 b 564 403 518 421 538 403 b 635 533 636 403 635 519 b 601 631 635 585 624 621 b 574 596 571 646 563 614 z m 657 360 b 633 393 658 381 647 393 b 608 358 614 393 608 379 l 544 357 b 519 393 544 381 538 393 b 496 357 500 393 496 378 b 414 353 435 357 403 399 b 497 325 424 314 475 325 b 453 135 494 292 504 135 b 424 192 428 135 419 172 b 436 304 465 225 494 304 b 336 136 360 304 401 136 b 289 460 269 136 379 407 b 258 468 279 465 268 468 b 242 436 244 468 233 460 b 249 211 272 347 249 288 b 311 101 249 142 272 101 b 379 135 338 101 363 117 b 435 101 390 114 413 101 b 499 158 468 101 490 128 b 551 106 497 129 525 106 b 614 161 582 106 606 136 b 661 108 618 142 636 108 b 707 157 683 108 699 139 b 767 101 710 129 736 101 b 826 164 800 101 818 138 b 851 96 826 125 836 97 b 917 269 907 90 863 260 b 935 217 944 274 953 235 b 907 204 925 206 907 218 b 944 179 907 183 929 176 b 932 301 997 190 990 301 b 869 247 907 301 875 272 b 833 303 872 272 860 297 b 814 289 826 304 814 301 b 825 226 814 269 828 260 b 772 135 822 192 808 135 b 749 192 746 135 746 174 b 769 307 808 217 826 307 b 674 153 703 307 713 153 b 657 324 643 153 656 304 b 878 329 729 324 810 325 b 1003 397 919 332 1003 338 b 990 401 1003 410 997 404 b 657 360 883 353 719 361 z m 546 325 l 608 325 b 560 146 606 299 606 143 b 546 325 533 147 547 297 z m 424 211 b 450 274 424 235 438 286 b 424 211 458 267 438 222 z m 751 211 b 778 275 753 226 764 272 l 781 275 b 788 265 785 275 788 272 b 751 211 788 258 786 228 z m 561 44 b 561 36 554 44 554 36 b 561 44 567 36 567 44 z m 601 11 l 610 11 l 610 44 l 601 44 z m 672 42 l 664 39 l 664 35 l 651 35 l 651 42 l 644 39 l 644 35 l 642 35 l 642 29 l 644 29 l 644 21 b 646 13 644 18 644 14 b 658 11 649 10 653 10 l 658 18 b 651 21 653 17 651 18 l 651 29 l 664 29 b 665 13 664 25 663 17 b 678 11 668 10 675 10 l 678 18 b 672 21 675 17 672 18 l 672 29 l 678 29 l 678 35 l 672 35 z m 507 42 l 499 39 l 499 35 l 496 35 l 496 29 l 499 29 b 500 13 499 24 497 17 b 513 11 503 10 508 10 l 513 18 b 507 21 508 17 507 18 l 507 29 l 513 29 l 513 35 l 507 35 z m 822 36 b 813 31 817 36 815 35 b 799 33 811 38 803 38 l 797 35 l 792 35 l 792 11 l 799 11 l 799 25 b 803 29 799 26 800 29 b 807 24 807 29 807 26 l 807 11 l 814 11 l 814 24 b 824 24 814 28 824 33 l 824 11 l 829 11 l 829 25 b 822 36 829 33 826 36 z m 693 36 b 681 22 685 36 681 31 b 706 13 681 11 693 7 l 703 18 b 690 21 700 17 690 14 l 706 21 b 693 36 706 31 700 36 z m 586 36 b 581 33 583 36 582 35 l 579 35 l 571 35 l 571 11 l 581 11 b 581 26 581 13 581 25 b 588 24 582 31 588 29 l 588 11 l 597 11 l 597 25 b 586 36 597 33 592 36 z m 715 31 l 715 35 l 710 35 b 710 11 710 31 710 17 l 717 11 b 717 25 717 13 717 25 b 726 28 717 26 722 29 l 726 36 b 715 31 722 36 718 35 z m 626 36 b 614 22 618 36 614 31 b 639 13 614 13 628 7 l 636 18 b 624 21 633 17 624 14 l 639 21 b 626 36 639 31 633 36 z m 775 36 b 775 10 757 36 757 10 b 775 36 792 10 792 36 z m 746 24 b 760 28 746 29 756 31 l 760 35 b 760 13 729 42 731 3 l 760 18 b 746 24 756 18 746 17 z m 543 18 l 538 35 l 532 35 l 528 18 l 525 35 l 517 35 l 524 11 l 531 11 l 535 26 l 540 11 l 547 11 l 553 35 l 546 35 z m 469 18 l 465 35 l 460 35 l 454 18 l 451 35 l 444 35 l 450 11 l 458 11 l 463 26 l 467 11 l 475 11 l 481 35 l 474 35 z m 432 18 l 428 35 l 421 35 l 417 18 l 414 35 l 407 35 l 413 11 l 419 11 l 425 26 l 429 11 l 436 11 l 443 35 l 435 35 z m 558 11 l 565 11 l 565 35 l 558 35 z m 394 18 l 390 35 l 383 35 l 379 18 l 376 35 l 368 35 l 375 11 l 382 11 l 386 26 l 392 11 l 399 11 l 404 35 l 397 35 z m 690 25 b 699 25 690 31 699 31 z m 624 25 b 632 25 624 31 632 31 z m 775 17 b 775 29 767 17 765 29 b 775 17 782 29 782 17 z m 729 19 b 729 10 724 19 724 10 b 729 19 735 10 735 19 z m 488 19 b 488 10 482 19 482 10 b 488 19 494 10 494 19 z "},"":{"ha":1193,"x_min":0,"x_max":0,"o":"m 699 397 b 751 447 729 397 746 425 b 778 403 751 429 756 403 b 853 586 843 403 822 610 b 844 478 867 575 847 525 b 886 392 842 442 850 392 b 956 728 958 392 1007 592 b 763 860 921 821 846 871 b 601 721 682 849 613 785 b 633 647 594 679 613 647 b 669 689 646 647 660 660 b 797 786 689 749 742 786 b 878 756 825 786 853 776 b 913 424 985 667 946 431 b 911 540 892 419 908 525 b 863 611 919 588 893 611 b 817 561 836 611 822 596 b 797 474 806 481 794 442 b 782 611 804 543 824 611 b 753 581 763 611 756 600 b 717 438 751 563 747 438 b 703 463 703 438 703 463 b 711 554 703 501 711 533 b 685 590 711 579 699 590 b 646 492 647 590 646 507 b 699 397 646 447 660 397 z m 281 614 b 260 625 281 624 271 625 b 219 631 242 625 219 621 b 340 656 221 653 313 654 b 331 450 338 614 331 526 b 396 319 331 424 332 319 b 396 386 428 319 404 343 b 399 657 381 456 394 563 b 532 646 469 665 504 646 b 574 669 546 646 558 651 b 414 713 615 721 474 714 b 188 631 260 708 188 683 b 246 594 188 604 224 594 b 281 614 260 594 281 594 z m 690 596 b 718 635 710 596 718 619 b 689 669 718 653 708 669 b 660 635 669 669 660 651 b 690 596 660 614 669 596 z m 574 596 b 574 438 600 551 600 450 b 532 576 536 421 582 578 b 485 444 478 575 517 444 b 492 578 460 444 460 524 b 474 614 501 594 499 614 b 414 518 421 614 414 560 b 467 406 414 442 431 406 b 515 444 483 406 507 419 b 564 403 518 421 538 403 b 635 533 636 403 635 519 b 601 631 635 585 624 621 b 574 596 571 646 563 614 z m 657 360 b 633 393 658 381 647 393 b 608 358 614 393 608 379 l 544 357 b 519 393 544 381 538 393 b 496 357 500 393 496 378 b 414 353 435 357 403 399 b 497 325 424 314 475 325 b 453 135 494 292 504 135 b 424 192 428 135 419 172 b 436 304 465 225 494 304 b 336 136 360 304 401 136 b 289 460 269 136 379 407 b 258 468 279 465 268 468 b 242 436 244 468 233 460 b 249 211 272 347 249 288 b 311 101 249 142 272 101 b 379 135 338 101 363 117 b 435 101 390 114 413 101 b 499 158 468 101 490 128 b 551 106 497 129 525 106 b 614 161 582 106 606 136 b 661 108 618 142 636 108 b 707 157 683 108 699 139 b 767 101 710 129 736 101 b 826 164 800 101 818 138 b 851 96 826 125 836 97 b 917 269 907 90 863 260 b 935 217 944 274 953 235 b 907 204 925 206 907 218 b 944 179 907 183 929 176 b 932 301 997 190 990 301 b 869 247 907 301 875 272 b 833 303 872 272 860 297 b 814 289 826 304 814 301 b 825 226 814 269 828 260 b 772 135 822 192 808 135 b 749 192 746 135 746 174 b 769 307 808 217 826 307 b 674 153 703 307 713 153 b 657 324 643 153 656 304 b 878 329 729 324 810 325 b 1003 397 919 332 1003 338 b 990 401 1003 410 997 404 b 657 360 883 353 719 361 z m 546 325 l 608 325 b 560 146 606 299 606 143 b 546 325 533 147 547 297 z m 424 211 b 450 274 424 235 438 286 b 424 211 458 267 438 222 z m 751 211 b 778 275 753 226 764 272 l 781 275 b 788 265 785 275 788 272 b 751 211 788 258 786 228 z m 561 44 b 561 36 554 44 554 36 b 561 44 567 36 567 44 z m 601 11 l 610 11 l 610 44 l 601 44 z m 672 42 l 664 39 l 664 35 l 651 35 l 651 42 l 644 39 l 644 35 l 642 35 l 642 29 l 644 29 l 644 21 b 646 13 644 18 644 14 b 658 11 649 10 653 10 l 658 18 b 651 21 653 17 651 18 l 651 29 l 664 29 b 665 13 664 25 663 17 b 678 11 668 10 675 10 l 678 18 b 672 21 675 17 672 18 l 672 29 l 678 29 l 678 35 l 672 35 z m 507 42 l 499 39 l 499 35 l 496 35 l 496 29 l 499 29 b 500 13 499 24 497 17 b 513 11 503 10 508 10 l 513 18 b 507 21 508 17 507 18 l 507 29 l 513 29 l 513 35 l 507 35 z m 822 36 b 813 31 817 36 815 35 b 799 33 811 38 803 38 l 797 35 l 792 35 l 792 11 l 799 11 l 799 25 b 803 29 799 26 800 29 b 807 24 807 29 807 26 l 807 11 l 814 11 l 814 24 b 824 24 814 28 824 33 l 824 11 l 829 11 l 829 25 b 822 36 829 33 826 36 z m 693 36 b 681 22 685 36 681 31 b 706 13 681 11 693 7 l 703 18 b 690 21 700 17 690 14 l 706 21 b 693 36 706 31 700 36 z m 586 36 b 581 33 583 36 582 35 l 579 35 l 571 35 l 571 11 l 581 11 b 581 26 581 13 581 25 b 588 24 582 31 588 29 l 588 11 l 597 11 l 597 25 b 586 36 597 33 592 36 z m 715 31 l 715 35 l 710 35 b 710 11 710 31 710 17 l 717 11 b 717 25 717 13 717 25 b 726 28 717 26 722 29 l 726 36 b 715 31 722 36 718 35 z m 626 36 b 614 22 618 36 614 31 b 639 13 614 13 628 7 l 636 18 b 624 21 633 17 624 14 l 639 21 b 626 36 639 31 633 36 z m 775 36 b 775 10 757 36 757 10 b 775 36 792 10 792 36 z m 746 24 b 760 28 746 29 756 31 l 760 35 b 760 13 729 42 731 3 l 760 18 b 746 24 756 18 746 17 z m 543 18 l 538 35 l 532 35 l 528 18 l 525 35 l 517 35 l 524 11 l 531 11 l 535 26 l 540 11 l 547 11 l 553 35 l 546 35 z m 469 18 l 465 35 l 460 35 l 454 18 l 451 35 l 444 35 l 450 11 l 458 11 l 463 26 l 467 11 l 475 11 l 481 35 l 474 35 z m 432 18 l 428 35 l 421 35 l 417 18 l 414 35 l 407 35 l 413 11 l 419 11 l 425 26 l 429 11 l 436 11 l 443 35 l 435 35 z m 558 11 l 565 11 l 565 35 l 558 35 z m 394 18 l 390 35 l 383 35 l 379 18 l 376 35 l 368 35 l 375 11 l 382 11 l 386 26 l 392 11 l 399 11 l 404 35 l 397 35 z m 690 25 b 699 25 690 31 699 31 z m 624 25 b 632 25 624 31 632 31 z m 775 17 b 775 29 767 17 765 29 b 775 17 782 29 782 17 z m 729 19 b 729 10 724 19 724 10 b 729 19 735 10 735 19 z m 488 19 b 488 10 482 19 482 10 b 488 19 494 10 494 19 z "},"'":{"ha":1193,"x_min":0,"x_max":0,"o":"m 699 397 b 751 447 729 397 746 425 b 778 403 751 429 756 403 b 853 586 843 403 822 610 b 844 478 867 575 847 525 b 886 392 842 442 850 392 b 956 728 958 392 1007 592 b 763 860 921 821 846 871 b 601 721 682 849 613 785 b 633 647 594 679 613 647 b 669 689 646 647 660 660 b 797 786 689 749 742 786 b 878 756 825 786 853 776 b 913 424 985 667 946 431 b 911 540 892 419 908 525 b 863 611 919 588 893 611 b 817 561 836 611 822 596 b 797 474 806 481 794 442 b 782 611 804 543 824 611 b 753 581 763 611 756 600 b 717 438 751 563 747 438 b 703 463 703 438 703 463 b 711 554 703 501 711 533 b 685 590 711 579 699 590 b 646 492 647 590 646 507 b 699 397 646 447 660 397 z m 281 614 b 260 625 281 624 271 625 b 219 631 242 625 219 621 b 340 656 221 653 313 654 b 331 450 338 614 331 526 b 396 319 331 424 332 319 b 396 386 428 319 404 343 b 399 657 381 456 394 563 b 532 646 469 665 504 646 b 574 669 546 646 558 651 b 414 713 615 721 474 714 b 188 631 260 708 188 683 b 246 594 188 604 224 594 b 281 614 260 594 281 594 z m 690 596 b 718 635 710 596 718 619 b 689 669 718 653 708 669 b 660 635 669 669 660 651 b 690 596 660 614 669 596 z m 574 596 b 574 438 600 551 600 450 b 532 576 536 421 582 578 b 485 444 478 575 517 444 b 492 578 460 444 460 524 b 474 614 501 594 499 614 b 414 518 421 614 414 560 b 467 406 414 442 431 406 b 515 444 483 406 507 419 b 564 403 518 421 538 403 b 635 533 636 403 635 519 b 601 631 635 585 624 621 b 574 596 571 646 563 614 z m 657 360 b 633 393 658 381 647 393 b 608 358 614 393 608 379 l 544 357 b 519 393 544 381 538 393 b 496 357 500 393 496 378 b 414 353 435 357 403 399 b 497 325 424 314 475 325 b 453 135 494 292 504 135 b 424 192 428 135 419 172 b 436 304 465 225 494 304 b 336 136 360 304 401 136 b 289 460 269 136 379 407 b 258 468 279 465 268 468 b 242 436 244 468 233 460 b 249 211 272 347 249 288 b 311 101 249 142 272 101 b 379 135 338 101 363 117 b 435 101 390 114 413 101 b 499 158 468 101 490 128 b 551 106 497 129 525 106 b 614 161 582 106 606 136 b 661 108 618 142 636 108 b 707 157 683 108 699 139 b 767 101 710 129 736 101 b 826 164 800 101 818 138 b 851 96 826 125 836 97 b 917 269 907 90 863 260 b 935 217 944 274 953 235 b 907 204 925 206 907 218 b 944 179 907 183 929 176 b 932 301 997 190 990 301 b 869 247 907 301 875 272 b 833 303 872 272 860 297 b 814 289 826 304 814 301 b 825 226 814 269 828 260 b 772 135 822 192 808 135 b 749 192 746 135 746 174 b 769 307 808 217 826 307 b 674 153 703 307 713 153 b 657 324 643 153 656 304 b 878 329 729 324 810 325 b 1003 397 919 332 1003 338 b 990 401 1003 410 997 404 b 657 360 883 353 719 361 z m 546 325 l 608 325 b 560 146 606 299 606 143 b 546 325 533 147 547 297 z m 424 211 b 450 274 424 235 438 286 b 424 211 458 267 438 222 z m 751 211 b 778 275 753 226 764 272 l 781 275 b 788 265 785 275 788 272 b 751 211 788 258 786 228 z m 561 44 b 561 36 554 44 554 36 b 561 44 567 36 567 44 z m 601 11 l 610 11 l 610 44 l 601 44 z m 672 42 l 664 39 l 664 35 l 651 35 l 651 42 l 644 39 l 644 35 l 642 35 l 642 29 l 644 29 l 644 21 b 646 13 644 18 644 14 b 658 11 649 10 653 10 l 658 18 b 651 21 653 17 651 18 l 651 29 l 664 29 b 665 13 664 25 663 17 b 678 11 668 10 675 10 l 678 18 b 672 21 675 17 672 18 l 672 29 l 678 29 l 678 35 l 672 35 z m 507 42 l 499 39 l 499 35 l 496 35 l 496 29 l 499 29 b 500 13 499 24 497 17 b 513 11 503 10 508 10 l 513 18 b 507 21 508 17 507 18 l 507 29 l 513 29 l 513 35 l 507 35 z m 822 36 b 813 31 817 36 815 35 b 799 33 811 38 803 38 l 797 35 l 792 35 l 792 11 l 799 11 l 799 25 b 803 29 799 26 800 29 b 807 24 807 29 807 26 l 807 11 l 814 11 l 814 24 b 824 24 814 28 824 33 l 824 11 l 829 11 l 829 25 b 822 36 829 33 826 36 z m 693 36 b 681 22 685 36 681 31 b 706 13 681 11 693 7 l 703 18 b 690 21 700 17 690 14 l 706 21 b 693 36 706 31 700 36 z m 586 36 b 581 33 583 36 582 35 l 579 35 l 571 35 l 571 11 l 581 11 b 581 26 581 13 581 25 b 588 24 582 31 588 29 l 588 11 l 597 11 l 597 25 b 586 36 597 33 592 36 z m 715 31 l 715 35 l 710 35 b 710 11 710 31 710 17 l 717 11 b 717 25 717 13 717 25 b 726 28 717 26 722 29 l 726 36 b 715 31 722 36 718 35 z m 626 36 b 614 22 618 36 614 31 b 639 13 614 13 628 7 l 636 18 b 624 21 633 17 624 14 l 639 21 b 626 36 639 31 633 36 z m 775 36 b 775 10 757 36 757 10 b 775 36 792 10 792 36 z m 746 24 b 760 28 746 29 756 31 l 760 35 b 760 13 729 42 731 3 l 760 18 b 746 24 756 18 746 17 z m 543 18 l 538 35 l 532 35 l 528 18 l 525 35 l 517 35 l 524 11 l 531 11 l 535 26 l 540 11 l 547 11 l 553 35 l 546 35 z m 469 18 l 465 35 l 460 35 l 454 18 l 451 35 l 444 35 l 450 11 l 458 11 l 463 26 l 467 11 l 475 11 l 481 35 l 474 35 z m 432 18 l 428 35 l 421 35 l 417 18 l 414 35 l 407 35 l 413 11 l 419 11 l 425 26 l 429 11 l 436 11 l 443 35 l 435 35 z m 558 11 l 565 11 l 565 35 l 558 35 z m 394 18 l 390 35 l 383 35 l 379 18 l 376 35 l 368 35 l 375 11 l 382 11 l 386 26 l 392 11 l 399 11 l 404 35 l 397 35 z m 690 25 b 699 25 690 31 699 31 z m 624 25 b 632 25 624 31 632 31 z m 775 17 b 775 29 767 17 765 29 b 775 17 782 29 782 17 z m 729 19 b 729 10 724 19 724 10 b 729 19 735 10 735 19 z m 488 19 b 488 10 482 19 482 10 b 488 19 494 10 494 19 z "},"\"":{"ha":601,"x_min":0,"x_max":0,"o":"m 339 972 l 353 594 l 513 594 l 526 972 z m 75 972 l 89 594 l 249 594 l 263 972 z "},"/":{"ha":825,"x_min":0,"x_max":0,"o":"m 75 -83 l 458 -83 l 750 972 l 367 972 z "},"\\":{"ha":1193,"x_min":0,"x_max":0,"o":"m 699 397 b 751 447 729 397 746 425 b 778 403 751 429 756 403 b 853 586 843 403 822 610 b 844 478 867 575 847 525 b 886 392 842 442 850 392 b 956 728 958 392 1007 592 b 763 860 921 821 846 871 b 601 721 682 849 613 785 b 633 647 594 679 613 647 b 669 689 646 647 660 660 b 797 786 689 749 742 786 b 878 756 825 786 853 776 b 913 424 985 667 946 431 b 911 540 892 419 908 525 b 863 611 919 588 893 611 b 817 561 836 611 822 596 b 797 474 806 481 794 442 b 782 611 804 543 824 611 b 753 581 763 611 756 600 b 717 438 751 563 747 438 b 703 463 703 438 703 463 b 711 554 703 501 711 533 b 685 590 711 579 699 590 b 646 492 647 590 646 507 b 699 397 646 447 660 397 z m 281 614 b 260 625 281 624 271 625 b 219 631 242 625 219 621 b 340 656 221 653 313 654 b 331 450 338 614 331 526 b 396 319 331 424 332 319 b 396 386 428 319 404 343 b 399 657 381 456 394 563 b 532 646 469 665 504 646 b 574 669 546 646 558 651 b 414 713 615 721 474 714 b 188 631 260 708 188 683 b 246 594 188 604 224 594 b 281 614 260 594 281 594 z m 690 596 b 718 635 710 596 718 619 b 689 669 718 653 708 669 b 660 635 669 669 660 651 b 690 596 660 614 669 596 z m 574 596 b 574 438 600 551 600 450 b 532 576 536 421 582 578 b 485 444 478 575 517 444 b 492 578 460 444 460 524 b 474 614 501 594 499 614 b 414 518 421 614 414 560 b 467 406 414 442 431 406 b 515 444 483 406 507 419 b 564 403 518 421 538 403 b 635 533 636 403 635 519 b 601 631 635 585 624 621 b 574 596 571 646 563 614 z m 657 360 b 633 393 658 381 647 393 b 608 358 614 393 608 379 l 544 357 b 519 393 544 381 538 393 b 496 357 500 393 496 378 b 414 353 435 357 403 399 b 497 325 424 314 475 325 b 453 135 494 292 504 135 b 424 192 428 135 419 172 b 436 304 465 225 494 304 b 336 136 360 304 401 136 b 289 460 269 136 379 407 b 258 468 279 465 268 468 b 242 436 244 468 233 460 b 249 211 272 347 249 288 b 311 101 249 142 272 101 b 379 135 338 101 363 117 b 435 101 390 114 413 101 b 499 158 468 101 490 128 b 551 106 497 129 525 106 b 614 161 582 106 606 136 b 661 108 618 142 636 108 b 707 157 683 108 699 139 b 767 101 710 129 736 101 b 826 164 800 101 818 138 b 851 96 826 125 836 97 b 917 269 907 90 863 260 b 935 217 944 274 953 235 b 907 204 925 206 907 218 b 944 179 907 183 929 176 b 932 301 997 190 990 301 b 869 247 907 301 875 272 b 833 303 872 272 860 297 b 814 289 826 304 814 301 b 825 226 814 269 828 260 b 772 135 822 192 808 135 b 749 192 746 135 746 174 b 769 307 808 217 826 307 b 674 153 703 307 713 153 b 657 324 643 153 656 304 b 878 329 729 324 810 325 b 1003 397 919 332 1003 338 b 990 401 1003 410 997 404 b 657 360 883 353 719 361 z m 546 325 l 608 325 b 560 146 606 299 606 143 b 546 325 533 147 547 297 z m 424 211 b 450 274 424 235 438 286 b 424 211 458 267 438 222 z m 751 211 b 778 275 753 226 764 272 l 781 275 b 788 265 785 275 788 272 b 751 211 788 258 786 228 z m 561 44 b 561 36 554 44 554 36 b 561 44 567 36 567 44 z m 601 11 l 610 11 l 610 44 l 601 44 z m 672 42 l 664 39 l 664 35 l 651 35 l 651 42 l 644 39 l 644 35 l 642 35 l 642 29 l 644 29 l 644 21 b 646 13 644 18 644 14 b 658 11 649 10 653 10 l 658 18 b 651 21 653 17 651 18 l 651 29 l 664 29 b 665 13 664 25 663 17 b 678 11 668 10 675 10 l 678 18 b 672 21 675 17 672 18 l 672 29 l 678 29 l 678 35 l 672 35 z m 507 42 l 499 39 l 499 35 l 496 35 l 496 29 l 499 29 b 500 13 499 24 497 17 b 513 11 503 10 508 10 l 513 18 b 507 21 508 17 507 18 l 507 29 l 513 29 l 513 35 l 507 35 z m 822 36 b 813 31 817 36 815 35 b 799 33 811 38 803 38 l 797 35 l 792 35 l 792 11 l 799 11 l 799 25 b 803 29 799 26 800 29 b 807 24 807 29 807 26 l 807 11 l 814 11 l 814 24 b 824 24 814 28 824 33 l 824 11 l 829 11 l 829 25 b 822 36 829 33 826 36 z m 693 36 b 681 22 685 36 681 31 b 706 13 681 11 693 7 l 703 18 b 690 21 700 17 690 14 l 706 21 b 693 36 706 31 700 36 z m 586 36 b 581 33 583 36 582 35 l 579 35 l 571 35 l 571 11 l 581 11 b 581 26 581 13 581 25 b 588 24 582 31 588 29 l 588 11 l 597 11 l 597 25 b 586 36 597 33 592 36 z m 715 31 l 715 35 l 710 35 b 710 11 710 31 710 17 l 717 11 b 717 25 717 13 717 25 b 726 28 717 26 722 29 l 726 36 b 715 31 722 36 718 35 z m 626 36 b 614 22 618 36 614 31 b 639 13 614 13 628 7 l 636 18 b 624 21 633 17 624 14 l 639 21 b 626 36 639 31 633 36 z m 775 36 b 775 10 757 36 757 10 b 775 36 792 10 792 36 z m 746 24 b 760 28 746 29 756 31 l 760 35 b 760 13 729 42 731 3 l 760 18 b 746 24 756 18 746 17 z m 543 18 l 538 35 l 532 35 l 528 18 l 525 35 l 517 35 l 524 11 l 531 11 l 535 26 l 540 11 l 547 11 l 553 35 l 546 35 z m 469 18 l 465 35 l 460 35 l 454 18 l 451 35 l 444 35 l 450 11 l 458 11 l 463 26 l 467 11 l 475 11 l 481 35 l 474 35 z m 432 18 l 428 35 l 421 35 l 417 18 l 414 35 l 407 35 l 413 11 l 419 11 l 425 26 l 429 11 l 436 11 l 443 35 l 435 35 z m 558 11 l 565 11 l 565 35 l 558 35 z m 394 18 l 390 35 l 383 35 l 379 18 l 376 35 l 368 35 l 375 11 l 382 11 l 386 26 l 392 11 l 399 11 l 404 35 l 397 35 z m 690 25 b 699 25 690 31 699 31 z m 624 25 b 632 25 624 31 632 31 z m 775 17 b 775 29 767 17 765 29 b 775 17 782 29 782 17 z m 729 19 b 729 10 724 19 724 10 b 729 19 735 10 735 19 z m 488 19 b 488 10 482 19 482 10 b 488 19 494 10 494 19 z "},"-":{"ha":1193,"x_min":0,"x_max":0,"o":"m 699 397 b 751 447 729 397 746 425 b 778 403 751 429 756 403 b 853 586 843 403 822 610 b 844 478 867 575 847 525 b 886 392 842 442 850 392 b 956 728 958 392 1007 592 b 763 860 921 821 846 871 b 601 721 682 849 613 785 b 633 647 594 679 613 647 b 669 689 646 647 660 660 b 797 786 689 749 742 786 b 878 756 825 786 853 776 b 913 424 985 667 946 431 b 911 540 892 419 908 525 b 863 611 919 588 893 611 b 817 561 836 611 822 596 b 797 474 806 481 794 442 b 782 611 804 543 824 611 b 753 581 763 611 756 600 b 717 438 751 563 747 438 b 703 463 703 438 703 463 b 711 554 703 501 711 533 b 685 590 711 579 699 590 b 646 492 647 590 646 507 b 699 397 646 447 660 397 z m 281 614 b 260 625 281 624 271 625 b 219 631 242 625 219 621 b 340 656 221 653 313 654 b 331 450 338 614 331 526 b 396 319 331 424 332 319 b 396 386 428 319 404 343 b 399 657 381 456 394 563 b 532 646 469 665 504 646 b 574 669 546 646 558 651 b 414 713 615 721 474 714 b 188 631 260 708 188 683 b 246 594 188 604 224 594 b 281 614 260 594 281 594 z m 690 596 b 718 635 710 596 718 619 b 689 669 718 653 708 669 b 660 635 669 669 660 651 b 690 596 660 614 669 596 z m 574 596 b 574 438 600 551 600 450 b 532 576 536 421 582 578 b 485 444 478 575 517 444 b 492 578 460 444 460 524 b 474 614 501 594 499 614 b 414 518 421 614 414 560 b 467 406 414 442 431 406 b 515 444 483 406 507 419 b 564 403 518 421 538 403 b 635 533 636 403 635 519 b 601 631 635 585 624 621 b 574 596 571 646 563 614 z m 657 360 b 633 393 658 381 647 393 b 608 358 614 393 608 379 l 544 357 b 519 393 544 381 538 393 b 496 357 500 393 496 378 b 414 353 435 357 403 399 b 497 325 424 314 475 325 b 453 135 494 292 504 135 b 424 192 428 135 419 172 b 436 304 465 225 494 304 b 336 136 360 304 401 136 b 289 460 269 136 379 407 b 258 468 279 465 268 468 b 242 436 244 468 233 460 b 249 211 272 347 249 288 b 311 101 249 142 272 101 b 379 135 338 101 363 117 b 435 101 390 114 413 101 b 499 158 468 101 490 128 b 551 106 497 129 525 106 b 614 161 582 106 606 136 b 661 108 618 142 636 108 b 707 157 683 108 699 139 b 767 101 710 129 736 101 b 826 164 800 101 818 138 b 851 96 826 125 836 97 b 917 269 907 90 863 260 b 935 217 944 274 953 235 b 907 204 925 206 907 218 b 944 179 907 183 929 176 b 932 301 997 190 990 301 b 869 247 907 301 875 272 b 833 303 872 272 860 297 b 814 289 826 304 814 301 b 825 226 814 269 828 260 b 772 135 822 192 808 135 b 749 192 746 135 746 174 b 769 307 808 217 826 307 b 674 153 703 307 713 153 b 657 324 643 153 656 304 b 878 329 729 324 810 325 b 1003 397 919 332 1003 338 b 990 401 1003 410 997 404 b 657 360 883 353 719 361 z m 546 325 l 608 325 b 560 146 606 299 606 143 b 546 325 533 147 547 297 z m 424 211 b 450 274 424 235 438 286 b 424 211 458 267 438 222 z m 751 211 b 778 275 753 226 764 272 l 781 275 b 788 265 785 275 788 272 b 751 211 788 258 786 228 z m 561 44 b 561 36 554 44 554 36 b 561 44 567 36 567 44 z m 601 11 l 610 11 l 610 44 l 601 44 z m 672 42 l 664 39 l 664 35 l 651 35 l 651 42 l 644 39 l 644 35 l 642 35 l 642 29 l 644 29 l 644 21 b 646 13 644 18 644 14 b 658 11 649 10 653 10 l 658 18 b 651 21 653 17 651 18 l 651 29 l 664 29 b 665 13 664 25 663 17 b 678 11 668 10 675 10 l 678 18 b 672 21 675 17 672 18 l 672 29 l 678 29 l 678 35 l 672 35 z m 507 42 l 499 39 l 499 35 l 496 35 l 496 29 l 499 29 b 500 13 499 24 497 17 b 513 11 503 10 508 10 l 513 18 b 507 21 508 17 507 18 l 507 29 l 513 29 l 513 35 l 507 35 z m 822 36 b 813 31 817 36 815 35 b 799 33 811 38 803 38 l 797 35 l 792 35 l 792 11 l 799 11 l 799 25 b 803 29 799 26 800 29 b 807 24 807 29 807 26 l 807 11 l 814 11 l 814 24 b 824 24 814 28 824 33 l 824 11 l 829 11 l 829 25 b 822 36 829 33 826 36 z m 693 36 b 681 22 685 36 681 31 b 706 13 681 11 693 7 l 703 18 b 690 21 700 17 690 14 l 706 21 b 693 36 706 31 700 36 z m 586 36 b 581 33 583 36 582 35 l 579 35 l 571 35 l 571 11 l 581 11 b 581 26 581 13 581 25 b 588 24 582 31 588 29 l 588 11 l 597 11 l 597 25 b 586 36 597 33 592 36 z m 715 31 l 715 35 l 710 35 b 710 11 710 31 710 17 l 717 11 b 717 25 717 13 717 25 b 726 28 717 26 722 29 l 726 36 b 715 31 722 36 718 35 z m 626 36 b 614 22 618 36 614 31 b 639 13 614 13 628 7 l 636 18 b 624 21 633 17 624 14 l 639 21 b 626 36 639 31 633 36 z m 775 36 b 775 10 757 36 757 10 b 775 36 792 10 792 36 z m 746 24 b 760 28 746 29 756 31 l 760 35 b 760 13 729 42 731 3 l 760 18 b 746 24 756 18 746 17 z m 543 18 l 538 35 l 532 35 l 528 18 l 525 35 l 517 35 l 524 11 l 531 11 l 535 26 l 540 11 l 547 11 l 553 35 l 546 35 z m 469 18 l 465 35 l 460 35 l 454 18 l 451 35 l 444 35 l 450 11 l 458 11 l 463 26 l 467 11 l 475 11 l 481 35 l 474 35 z m 432 18 l 428 35 l 421 35 l 417 18 l 414 35 l 407 35 l 413 11 l 419 11 l 425 26 l 429 11 l 436 11 l 443 35 l 435 35 z m 558 11 l 565 11 l 565 35 l 558 35 z m 394 18 l 390 35 l 383 35 l 379 18 l 376 35 l 368 35 l 375 11 l 382 11 l 386 26 l 392 11 l 399 11 l 404 35 l 397 35 z m 690 25 b 699 25 690 31 699 31 z m 624 25 b 632 25 624 31 632 31 z m 775 17 b 775 29 767 17 765 29 b 775 17 782 29 782 17 z m 729 19 b 729 10 724 19 724 10 b 729 19 735 10 735 19 z m 488 19 b 488 10 482 19 482 10 b 488 19 494 10 494 19 z "},"@":{"ha":1193,"x_min":0,"x_max":0,"o":"m 699 397 b 751 447 729 397 746 425 b 778 403 751 429 756 403 b 853 586 843 403 822 610 b 844 478 867 575 847 525 b 886 392 842 442 850 392 b 956 728 958 392 1007 592 b 763 860 921 821 846 871 b 601 721 682 849 613 785 b 633 647 594 679 613 647 b 669 689 646 647 660 660 b 797 786 689 749 742 786 b 878 756 825 786 853 776 b 913 424 985 667 946 431 b 911 540 892 419 908 525 b 863 611 919 588 893 611 b 817 561 836 611 822 596 b 797 474 806 481 794 442 b 782 611 804 543 824 611 b 753 581 763 611 756 600 b 717 438 751 563 747 438 b 703 463 703 438 703 463 b 711 554 703 501 711 533 b 685 590 711 579 699 590 b 646 492 647 590 646 507 b 699 397 646 447 660 397 z m 281 614 b 260 625 281 624 271 625 b 219 631 242 625 219 621 b 340 656 221 653 313 654 b 331 450 338 614 331 526 b 396 319 331 424 332 319 b 396 386 428 319 404 343 b 399 657 381 456 394 563 b 532 646 469 665 504 646 b 574 669 546 646 558 651 b 414 713 615 721 474 714 b 188 631 260 708 188 683 b 246 594 188 604 224 594 b 281 614 260 594 281 594 z m 690 596 b 718 635 710 596 718 619 b 689 669 718 653 708 669 b 660 635 669 669 660 651 b 690 596 660 614 669 596 z m 574 596 b 574 438 600 551 600 450 b 532 576 536 421 582 578 b 485 444 478 575 517 444 b 492 578 460 444 460 524 b 474 614 501 594 499 614 b 414 518 421 614 414 560 b 467 406 414 442 431 406 b 515 444 483 406 507 419 b 564 403 518 421 538 403 b 635 533 636 403 635 519 b 601 631 635 585 624 621 b 574 596 571 646 563 614 z m 657 360 b 633 393 658 381 647 393 b 608 358 614 393 608 379 l 544 357 b 519 393 544 381 538 393 b 496 357 500 393 496 378 b 414 353 435 357 403 399 b 497 325 424 314 475 325 b 453 135 494 292 504 135 b 424 192 428 135 419 172 b 436 304 465 225 494 304 b 336 136 360 304 401 136 b 289 460 269 136 379 407 b 258 468 279 465 268 468 b 242 436 244 468 233 460 b 249 211 272 347 249 288 b 311 101 249 142 272 101 b 379 135 338 101 363 117 b 435 101 390 114 413 101 b 499 158 468 101 490 128 b 551 106 497 129 525 106 b 614 161 582 106 606 136 b 661 108 618 142 636 108 b 707 157 683 108 699 139 b 767 101 710 129 736 101 b 826 164 800 101 818 138 b 851 96 826 125 836 97 b 917 269 907 90 863 260 b 935 217 944 274 953 235 b 907 204 925 206 907 218 b 944 179 907 183 929 176 b 932 301 997 190 990 301 b 869 247 907 301 875 272 b 833 303 872 272 860 297 b 814 289 826 304 814 301 b 825 226 814 269 828 260 b 772 135 822 192 808 135 b 749 192 746 135 746 174 b 769 307 808 217 826 307 b 674 153 703 307 713 153 b 657 324 643 153 656 304 b 878 329 729 324 810 325 b 1003 397 919 332 1003 338 b 990 401 1003 410 997 404 b 657 360 883 353 719 361 z m 546 325 l 608 325 b 560 146 606 299 606 143 b 546 325 533 147 547 297 z m 424 211 b 450 274 424 235 438 286 b 424 211 458 267 438 222 z m 751 211 b 778 275 753 226 764 272 l 781 275 b 788 265 785 275 788 272 b 751 211 788 258 786 228 z m 561 44 b 561 36 554 44 554 36 b 561 44 567 36 567 44 z m 601 11 l 610 11 l 610 44 l 601 44 z m 672 42 l 664 39 l 664 35 l 651 35 l 651 42 l 644 39 l 644 35 l 642 35 l 642 29 l 644 29 l 644 21 b 646 13 644 18 644 14 b 658 11 649 10 653 10 l 658 18 b 651 21 653 17 651 18 l 651 29 l 664 29 b 665 13 664 25 663 17 b 678 11 668 10 675 10 l 678 18 b 672 21 675 17 672 18 l 672 29 l 678 29 l 678 35 l 672 35 z m 507 42 l 499 39 l 499 35 l 496 35 l 496 29 l 499 29 b 500 13 499 24 497 17 b 513 11 503 10 508 10 l 513 18 b 507 21 508 17 507 18 l 507 29 l 513 29 l 513 35 l 507 35 z m 822 36 b 813 31 817 36 815 35 b 799 33 811 38 803 38 l 797 35 l 792 35 l 792 11 l 799 11 l 799 25 b 803 29 799 26 800 29 b 807 24 807 29 807 26 l 807 11 l 814 11 l 814 24 b 824 24 814 28 824 33 l 824 11 l 829 11 l 829 25 b 822 36 829 33 826 36 z m 693 36 b 681 22 685 36 681 31 b 706 13 681 11 693 7 l 703 18 b 690 21 700 17 690 14 l 706 21 b 693 36 706 31 700 36 z m 586 36 b 581 33 583 36 582 35 l 579 35 l 571 35 l 571 11 l 581 11 b 581 26 581 13 581 25 b 588 24 582 31 588 29 l 588 11 l 597 11 l 597 25 b 586 36 597 33 592 36 z m 715 31 l 715 35 l 710 35 b 710 11 710 31 710 17 l 717 11 b 717 25 717 13 717 25 b 726 28 717 26 722 29 l 726 36 b 715 31 722 36 718 35 z m 626 36 b 614 22 618 36 614 31 b 639 13 614 13 628 7 l 636 18 b 624 21 633 17 624 14 l 639 21 b 626 36 639 31 633 36 z m 775 36 b 775 10 757 36 757 10 b 775 36 792 10 792 36 z m 746 24 b 760 28 746 29 756 31 l 760 35 b 760 13 729 42 731 3 l 760 18 b 746 24 756 18 746 17 z m 543 18 l 538 35 l 532 35 l 528 18 l 525 35 l 517 35 l 524 11 l 531 11 l 535 26 l 540 11 l 547 11 l 553 35 l 546 35 z m 469 18 l 465 35 l 460 35 l 454 18 l 451 35 l 444 35 l 450 11 l 458 11 l 463 26 l 467 11 l 475 11 l 481 35 l 474 35 z m 432 18 l 428 35 l 421 35 l 417 18 l 414 35 l 407 35 l 413 11 l 419 11 l 425 26 l 429 11 l 436 11 l 443 35 l 435 35 z m 558 11 l 565 11 l 565 35 l 558 35 z m 394 18 l 390 35 l 383 35 l 379 18 l 376 35 l 368 35 l 375 11 l 382 11 l 386 26 l 392 11 l 399 11 l 404 35 l 397 35 z m 690 25 b 699 25 690 31 699 31 z m 624 25 b 632 25 624 31 632 31 z m 775 17 b 775 29 767 17 765 29 b 775 17 782 29 782 17 z m 729 19 b 729 10 724 19 724 10 b 729 19 735 10 735 19 z m 488 19 b 488 10 482 19 482 10 b 488 19 494 10 494 19 z "},"&":{"ha":1193,"x_min":0,"x_max":0,"o":"m 699 397 b 751 447 729 397 746 425 b 778 403 751 429 756 403 b 853 586 843 403 822 610 b 844 478 867 575 847 525 b 886 392 842 442 850 392 b 956 728 958 392 1007 592 b 763 860 921 821 846 871 b 601 721 682 849 613 785 b 633 647 594 679 613 647 b 669 689 646 647 660 660 b 797 786 689 749 742 786 b 878 756 825 786 853 776 b 913 424 985 667 946 431 b 911 540 892 419 908 525 b 863 611 919 588 893 611 b 817 561 836 611 822 596 b 797 474 806 481 794 442 b 782 611 804 543 824 611 b 753 581 763 611 756 600 b 717 438 751 563 747 438 b 703 463 703 438 703 463 b 711 554 703 501 711 533 b 685 590 711 579 699 590 b 646 492 647 590 646 507 b 699 397 646 447 660 397 z m 281 614 b 260 625 281 624 271 625 b 219 631 242 625 219 621 b 340 656 221 653 313 654 b 331 450 338 614 331 526 b 396 319 331 424 332 319 b 396 386 428 319 404 343 b 399 657 381 456 394 563 b 532 646 469 665 504 646 b 574 669 546 646 558 651 b 414 713 615 721 474 714 b 188 631 260 708 188 683 b 246 594 188 604 224 594 b 281 614 260 594 281 594 z m 690 596 b 718 635 710 596 718 619 b 689 669 718 653 708 669 b 660 635 669 669 660 651 b 690 596 660 614 669 596 z m 574 596 b 574 438 600 551 600 450 b 532 576 536 421 582 578 b 485 444 478 575 517 444 b 492 578 460 444 460 524 b 474 614 501 594 499 614 b 414 518 421 614 414 560 b 467 406 414 442 431 406 b 515 444 483 406 507 419 b 564 403 518 421 538 403 b 635 533 636 403 635 519 b 601 631 635 585 624 621 b 574 596 571 646 563 614 z m 657 360 b 633 393 658 381 647 393 b 608 358 614 393 608 379 l 544 357 b 519 393 544 381 538 393 b 496 357 500 393 496 378 b 414 353 435 357 403 399 b 497 325 424 314 475 325 b 453 135 494 292 504 135 b 424 192 428 135 419 172 b 436 304 465 225 494 304 b 336 136 360 304 401 136 b 289 460 269 136 379 407 b 258 468 279 465 268 468 b 242 436 244 468 233 460 b 249 211 272 347 249 288 b 311 101 249 142 272 101 b 379 135 338 101 363 117 b 435 101 390 114 413 101 b 499 158 468 101 490 128 b 551 106 497 129 525 106 b 614 161 582 106 606 136 b 661 108 618 142 636 108 b 707 157 683 108 699 139 b 767 101 710 129 736 101 b 826 164 800 101 818 138 b 851 96 826 125 836 97 b 917 269 907 90 863 260 b 935 217 944 274 953 235 b 907 204 925 206 907 218 b 944 179 907 183 929 176 b 932 301 997 190 990 301 b 869 247 907 301 875 272 b 833 303 872 272 860 297 b 814 289 826 304 814 301 b 825 226 814 269 828 260 b 772 135 822 192 808 135 b 749 192 746 135 746 174 b 769 307 808 217 826 307 b 674 153 703 307 713 153 b 657 324 643 153 656 304 b 878 329 729 324 810 325 b 1003 397 919 332 1003 338 b 990 401 1003 410 997 404 b 657 360 883 353 719 361 z m 546 325 l 608 325 b 560 146 606 299 606 143 b 546 325 533 147 547 297 z m 424 211 b 450 274 424 235 438 286 b 424 211 458 267 438 222 z m 751 211 b 778 275 753 226 764 272 l 781 275 b 788 265 785 275 788 272 b 751 211 788 258 786 228 z m 561 44 b 561 36 554 44 554 36 b 561 44 567 36 567 44 z m 601 11 l 610 11 l 610 44 l 601 44 z m 672 42 l 664 39 l 664 35 l 651 35 l 651 42 l 644 39 l 644 35 l 642 35 l 642 29 l 644 29 l 644 21 b 646 13 644 18 644 14 b 658 11 649 10 653 10 l 658 18 b 651 21 653 17 651 18 l 651 29 l 664 29 b 665 13 664 25 663 17 b 678 11 668 10 675 10 l 678 18 b 672 21 675 17 672 18 l 672 29 l 678 29 l 678 35 l 672 35 z m 507 42 l 499 39 l 499 35 l 496 35 l 496 29 l 499 29 b 500 13 499 24 497 17 b 513 11 503 10 508 10 l 513 18 b 507 21 508 17 507 18 l 507 29 l 513 29 l 513 35 l 507 35 z m 822 36 b 813 31 817 36 815 35 b 799 33 811 38 803 38 l 797 35 l 792 35 l 792 11 l 799 11 l 799 25 b 803 29 799 26 800 29 b 807 24 807 29 807 26 l 807 11 l 814 11 l 814 24 b 824 24 814 28 824 33 l 824 11 l 829 11 l 829 25 b 822 36 829 33 826 36 z m 693 36 b 681 22 685 36 681 31 b 706 13 681 11 693 7 l 703 18 b 690 21 700 17 690 14 l 706 21 b 693 36 706 31 700 36 z m 586 36 b 581 33 583 36 582 35 l 579 35 l 571 35 l 571 11 l 581 11 b 581 26 581 13 581 25 b 588 24 582 31 588 29 l 588 11 l 597 11 l 597 25 b 586 36 597 33 592 36 z m 715 31 l 715 35 l 710 35 b 710 11 710 31 710 17 l 717 11 b 717 25 717 13 717 25 b 726 28 717 26 722 29 l 726 36 b 715 31 722 36 718 35 z m 626 36 b 614 22 618 36 614 31 b 639 13 614 13 628 7 l 636 18 b 624 21 633 17 624 14 l 639 21 b 626 36 639 31 633 36 z m 775 36 b 775 10 757 36 757 10 b 775 36 792 10 792 36 z m 746 24 b 760 28 746 29 756 31 l 760 35 b 760 13 729 42 731 3 l 760 18 b 746 24 756 18 746 17 z m 543 18 l 538 35 l 532 35 l 528 18 l 525 35 l 517 35 l 524 11 l 531 11 l 535 26 l 540 11 l 547 11 l 553 35 l 546 35 z m 469 18 l 465 35 l 460 35 l 454 18 l 451 35 l 444 35 l 450 11 l 458 11 l 463 26 l 467 11 l 475 11 l 481 35 l 474 35 z m 432 18 l 428 35 l 421 35 l 417 18 l 414 35 l 407 35 l 413 11 l 419 11 l 425 26 l 429 11 l 436 11 l 443 35 l 435 35 z m 558 11 l 565 11 l 565 35 l 558 35 z m 394 18 l 390 35 l 383 35 l 379 18 l 376 35 l 368 35 l 375 11 l 382 11 l 386 26 l 392 11 l 399 11 l 404 35 l 397 35 z m 690 25 b 699 25 690 31 699 31 z m 624 25 b 632 25 624 31 632 31 z m 775 17 b 775 29 767 17 765 29 b 775 17 782 29 782 17 z m 729 19 b 729 10 724 19 724 10 b 729 19 735 10 735 19 z m 488 19 b 488 10 482 19 482 10 b 488 19 494 10 494 19 z "},"#":{"ha":1553,"x_min":0,"x_max":0,"o":"m 151 178 l 103 0 l 486 0 l 535 178 l 851 178 l 803 0 l 1186 0 l 1235 178 l 1367 178 l 1367 414 l 1300 414 l 1338 553 l 1478 553 l 1478 789 l 1403 789 l 1454 972 l 1071 972 l 1019 789 l 704 789 l 754 972 l 371 972 l 319 789 l 186 789 l 186 553 l 254 553 l 217 414 l 75 414 l 75 178 z m 601 414 l 638 553 l 954 553 l 917 414 z "},"":{"ha":589,"x_min":0,"x_max":0,"o":"m 75 519 b 296 299 75 388 163 299 b 514 519 426 299 514 388 b 296 740 514 653 426 740 b 75 519 163 740 75 653 z "},"%":{"ha":1193,"x_min":0,"x_max":0,"o":"m 699 397 b 751 447 729 397 746 425 b 778 403 751 429 756 403 b 853 586 843 403 822 610 b 844 478 867 575 847 525 b 886 392 842 442 850 392 b 956 728 958 392 1007 592 b 763 860 921 821 846 871 b 601 721 682 849 613 785 b 633 647 594 679 613 647 b 669 689 646 647 660 660 b 797 786 689 749 742 786 b 878 756 825 786 853 776 b 913 424 985 667 946 431 b 911 540 892 419 908 525 b 863 611 919 588 893 611 b 817 561 836 611 822 596 b 797 474 806 481 794 442 b 782 611 804 543 824 611 b 753 581 763 611 756 600 b 717 438 751 563 747 438 b 703 463 703 438 703 463 b 711 554 703 501 711 533 b 685 590 711 579 699 590 b 646 492 647 590 646 507 b 699 397 646 447 660 397 z m 281 614 b 260 625 281 624 271 625 b 219 631 242 625 219 621 b 340 656 221 653 313 654 b 331 450 338 614 331 526 b 396 319 331 424 332 319 b 396 386 428 319 404 343 b 399 657 381 456 394 563 b 532 646 469 665 504 646 b 574 669 546 646 558 651 b 414 713 615 721 474 714 b 188 631 260 708 188 683 b 246 594 188 604 224 594 b 281 614 260 594 281 594 z m 690 596 b 718 635 710 596 718 619 b 689 669 718 653 708 669 b 660 635 669 669 660 651 b 690 596 660 614 669 596 z m 574 596 b 574 438 600 551 600 450 b 532 576 536 421 582 578 b 485 444 478 575 517 444 b 492 578 460 444 460 524 b 474 614 501 594 499 614 b 414 518 421 614 414 560 b 467 406 414 442 431 406 b 515 444 483 406 507 419 b 564 403 518 421 538 403 b 635 533 636 403 635 519 b 601 631 635 585 624 621 b 574 596 571 646 563 614 z m 657 360 b 633 393 658 381 647 393 b 608 358 614 393 608 379 l 544 357 b 519 393 544 381 538 393 b 496 357 500 393 496 378 b 414 353 435 357 403 399 b 497 325 424 314 475 325 b 453 135 494 292 504 135 b 424 192 428 135 419 172 b 436 304 465 225 494 304 b 336 136 360 304 401 136 b 289 460 269 136 379 407 b 258 468 279 465 268 468 b 242 436 244 468 233 460 b 249 211 272 347 249 288 b 311 101 249 142 272 101 b 379 135 338 101 363 117 b 435 101 390 114 413 101 b 499 158 468 101 490 128 b 551 106 497 129 525 106 b 614 161 582 106 606 136 b 661 108 618 142 636 108 b 707 157 683 108 699 139 b 767 101 710 129 736 101 b 826 164 800 101 818 138 b 851 96 826 125 836 97 b 917 269 907 90 863 260 b 935 217 944 274 953 235 b 907 204 925 206 907 218 b 944 179 907 183 929 176 b 932 301 997 190 990 301 b 869 247 907 301 875 272 b 833 303 872 272 860 297 b 814 289 826 304 814 301 b 825 226 814 269 828 260 b 772 135 822 192 808 135 b 749 192 746 135 746 174 b 769 307 808 217 826 307 b 674 153 703 307 713 153 b 657 324 643 153 656 304 b 878 329 729 324 810 325 b 1003 397 919 332 1003 338 b 990 401 1003 410 997 404 b 657 360 883 353 719 361 z m 546 325 l 608 325 b 560 146 606 299 606 143 b 546 325 533 147 547 297 z m 424 211 b 450 274 424 235 438 286 b 424 211 458 267 438 222 z m 751 211 b 778 275 753 226 764 272 l 781 275 b 788 265 785 275 788 272 b 751 211 788 258 786 228 z m 561 44 b 561 36 554 44 554 36 b 561 44 567 36 567 44 z m 601 11 l 610 11 l 610 44 l 601 44 z m 672 42 l 664 39 l 664 35 l 651 35 l 651 42 l 644 39 l 644 35 l 642 35 l 642 29 l 644 29 l 644 21 b 646 13 644 18 644 14 b 658 11 649 10 653 10 l 658 18 b 651 21 653 17 651 18 l 651 29 l 664 29 b 665 13 664 25 663 17 b 678 11 668 10 675 10 l 678 18 b 672 21 675 17 672 18 l 672 29 l 678 29 l 678 35 l 672 35 z m 507 42 l 499 39 l 499 35 l 496 35 l 496 29 l 499 29 b 500 13 499 24 497 17 b 513 11 503 10 508 10 l 513 18 b 507 21 508 17 507 18 l 507 29 l 513 29 l 513 35 l 507 35 z m 822 36 b 813 31 817 36 815 35 b 799 33 811 38 803 38 l 797 35 l 792 35 l 792 11 l 799 11 l 799 25 b 803 29 799 26 800 29 b 807 24 807 29 807 26 l 807 11 l 814 11 l 814 24 b 824 24 814 28 824 33 l 824 11 l 829 11 l 829 25 b 822 36 829 33 826 36 z m 693 36 b 681 22 685 36 681 31 b 706 13 681 11 693 7 l 703 18 b 690 21 700 17 690 14 l 706 21 b 693 36 706 31 700 36 z m 586 36 b 581 33 583 36 582 35 l 579 35 l 571 35 l 571 11 l 581 11 b 581 26 581 13 581 25 b 588 24 582 31 588 29 l 588 11 l 597 11 l 597 25 b 586 36 597 33 592 36 z m 715 31 l 715 35 l 710 35 b 710 11 710 31 710 17 l 717 11 b 717 25 717 13 717 25 b 726 28 717 26 722 29 l 726 36 b 715 31 722 36 718 35 z m 626 36 b 614 22 618 36 614 31 b 639 13 614 13 628 7 l 636 18 b 624 21 633 17 624 14 l 639 21 b 626 36 639 31 633 36 z m 775 36 b 775 10 757 36 757 10 b 775 36 792 10 792 36 z m 746 24 b 760 28 746 29 756 31 l 760 35 b 760 13 729 42 731 3 l 760 18 b 746 24 756 18 746 17 z m 543 18 l 538 35 l 532 35 l 528 18 l 525 35 l 517 35 l 524 11 l 531 11 l 535 26 l 540 11 l 547 11 l 553 35 l 546 35 z m 469 18 l 465 35 l 460 35 l 454 18 l 451 35 l 444 35 l 450 11 l 458 11 l 463 26 l 467 11 l 475 11 l 481 35 l 474 35 z m 432 18 l 428 35 l 421 35 l 417 18 l 414 35 l 407 35 l 413 11 l 419 11 l 425 26 l 429 11 l 436 11 l 443 35 l 435 35 z m 558 11 l 565 11 l 565 35 l 558 35 z m 394 18 l 390 35 l 383 35 l 379 18 l 376 35 l 368 35 l 375 11 l 382 11 l 386 26 l 392 11 l 399 11 l 404 35 l 397 35 z m 690 25 b 699 25 690 31 699 31 z m 624 25 b 632 25 624 31 632 31 z m 775 17 b 775 29 767 17 765 29 b 775 17 782 29 782 17 z m 729 19 b 729 10 724 19 724 10 b 729 19 735 10 735 19 z m 488 19 b 488 10 482 19 482 10 b 488 19 494 10 494 19 z "},"=":{"ha":1028,"x_min":0,"x_max":0,"o":"m 75 826 l 75 590 l 953 590 l 953 826 z m 953 104 l 953 340 l 75 340 l 75 104 z "},"+":{"ha":1039,"x_min":0,"x_max":0,"o":"m 401 368 l 401 42 l 638 42 l 638 368 l 964 368 l 964 604 l 638 604 l 638 931 l 401 931 l 401 604 l 75 604 l 75 368 z "},"|":{"ha":532,"x_min":0,"x_max":0,"o":"m 75 -347 l 457 -347 l 457 1042 l 75 1042 z "},"*":{"ha":1193,"x_min":0,"x_max":0,"o":"m 699 397 b 751 447 729 397 746 425 b 778 403 751 429 756 403 b 853 586 843 403 822 610 b 844 478 867 575 847 525 b 886 392 842 442 850 392 b 956 728 958 392 1007 592 b 763 860 921 821 846 871 b 601 721 682 849 613 785 b 633 647 594 679 613 647 b 669 689 646 647 660 660 b 797 786 689 749 742 786 b 878 756 825 786 853 776 b 913 424 985 667 946 431 b 911 540 892 419 908 525 b 863 611 919 588 893 611 b 817 561 836 611 822 596 b 797 474 806 481 794 442 b 782 611 804 543 824 611 b 753 581 763 611 756 600 b 717 438 751 563 747 438 b 703 463 703 438 703 463 b 711 554 703 501 711 533 b 685 590 711 579 699 590 b 646 492 647 590 646 507 b 699 397 646 447 660 397 z m 281 614 b 260 625 281 624 271 625 b 219 631 242 625 219 621 b 340 656 221 653 313 654 b 331 450 338 614 331 526 b 396 319 331 424 332 319 b 396 386 428 319 404 343 b 399 657 381 456 394 563 b 532 646 469 665 504 646 b 574 669 546 646 558 651 b 414 713 615 721 474 714 b 188 631 260 708 188 683 b 246 594 188 604 224 594 b 281 614 260 594 281 594 z m 690 596 b 718 635 710 596 718 619 b 689 669 718 653 708 669 b 660 635 669 669 660 651 b 690 596 660 614 669 596 z m 574 596 b 574 438 600 551 600 450 b 532 576 536 421 582 578 b 485 444 478 575 517 444 b 492 578 460 444 460 524 b 474 614 501 594 499 614 b 414 518 421 614 414 560 b 467 406 414 442 431 406 b 515 444 483 406 507 419 b 564 403 518 421 538 403 b 635 533 636 403 635 519 b 601 631 635 585 624 621 b 574 596 571 646 563 614 z m 657 360 b 633 393 658 381 647 393 b 608 358 614 393 608 379 l 544 357 b 519 393 544 381 538 393 b 496 357 500 393 496 378 b 414 353 435 357 403 399 b 497 325 424 314 475 325 b 453 135 494 292 504 135 b 424 192 428 135 419 172 b 436 304 465 225 494 304 b 336 136 360 304 401 136 b 289 460 269 136 379 407 b 258 468 279 465 268 468 b 242 436 244 468 233 460 b 249 211 272 347 249 288 b 311 101 249 142 272 101 b 379 135 338 101 363 117 b 435 101 390 114 413 101 b 499 158 468 101 490 128 b 551 106 497 129 525 106 b 614 161 582 106 606 136 b 661 108 618 142 636 108 b 707 157 683 108 699 139 b 767 101 710 129 736 101 b 826 164 800 101 818 138 b 851 96 826 125 836 97 b 917 269 907 90 863 260 b 935 217 944 274 953 235 b 907 204 925 206 907 218 b 944 179 907 183 929 176 b 932 301 997 190 990 301 b 869 247 907 301 875 272 b 833 303 872 272 860 297 b 814 289 826 304 814 301 b 825 226 814 269 828 260 b 772 135 822 192 808 135 b 749 192 746 135 746 174 b 769 307 808 217 826 307 b 674 153 703 307 713 153 b 657 324 643 153 656 304 b 878 329 729 324 810 325 b 1003 397 919 332 1003 338 b 990 401 1003 410 997 404 b 657 360 883 353 719 361 z m 546 325 l 608 325 b 560 146 606 299 606 143 b 546 325 533 147 547 297 z m 424 211 b 450 274 424 235 438 286 b 424 211 458 267 438 222 z m 751 211 b 778 275 753 226 764 272 l 781 275 b 788 265 785 275 788 272 b 751 211 788 258 786 228 z m 561 44 b 561 36 554 44 554 36 b 561 44 567 36 567 44 z m 601 11 l 610 11 l 610 44 l 601 44 z m 672 42 l 664 39 l 664 35 l 651 35 l 651 42 l 644 39 l 644 35 l 642 35 l 642 29 l 644 29 l 644 21 b 646 13 644 18 644 14 b 658 11 649 10 653 10 l 658 18 b 651 21 653 17 651 18 l 651 29 l 664 29 b 665 13 664 25 663 17 b 678 11 668 10 675 10 l 678 18 b 672 21 675 17 672 18 l 672 29 l 678 29 l 678 35 l 672 35 z m 507 42 l 499 39 l 499 35 l 496 35 l 496 29 l 499 29 b 500 13 499 24 497 17 b 513 11 503 10 508 10 l 513 18 b 507 21 508 17 507 18 l 507 29 l 513 29 l 513 35 l 507 35 z m 822 36 b 813 31 817 36 815 35 b 799 33 811 38 803 38 l 797 35 l 792 35 l 792 11 l 799 11 l 799 25 b 803 29 799 26 800 29 b 807 24 807 29 807 26 l 807 11 l 814 11 l 814 24 b 824 24 814 28 824 33 l 824 11 l 829 11 l 829 25 b 822 36 829 33 826 36 z m 693 36 b 681 22 685 36 681 31 b 706 13 681 11 693 7 l 703 18 b 690 21 700 17 690 14 l 706 21 b 693 36 706 31 700 36 z m 586 36 b 581 33 583 36 582 35 l 579 35 l 571 35 l 571 11 l 581 11 b 581 26 581 13 581 25 b 588 24 582 31 588 29 l 588 11 l 597 11 l 597 25 b 586 36 597 33 592 36 z m 715 31 l 715 35 l 710 35 b 710 11 710 31 710 17 l 717 11 b 717 25 717 13 717 25 b 726 28 717 26 722 29 l 726 36 b 715 31 722 36 718 35 z m 626 36 b 614 22 618 36 614 31 b 639 13 614 13 628 7 l 636 18 b 624 21 633 17 624 14 l 639 21 b 626 36 639 31 633 36 z m 775 36 b 775 10 757 36 757 10 b 775 36 792 10 792 36 z m 746 24 b 760 28 746 29 756 31 l 760 35 b 760 13 729 42 731 3 l 760 18 b 746 24 756 18 746 17 z m 543 18 l 538 35 l 532 35 l 528 18 l 525 35 l 517 35 l 524 11 l 531 11 l 535 26 l 540 11 l 547 11 l 553 35 l 546 35 z m 469 18 l 465 35 l 460 35 l 454 18 l 451 35 l 444 35 l 450 11 l 458 11 l 463 26 l 467 11 l 475 11 l 481 35 l 474 35 z m 432 18 l 428 35 l 421 35 l 417 18 l 414 35 l 407 35 l 413 11 l 419 11 l 425 26 l 429 11 l 436 11 l 443 35 l 435 35 z m 558 11 l 565 11 l 565 35 l 558 35 z m 394 18 l 390 35 l 383 35 l 379 18 l 376 35 l 368 35 l 375 11 l 382 11 l 386 26 l 392 11 l 399 11 l 404 35 l 397 35 z m 690 25 b 699 25 690 31 699 31 z m 624 25 b 632 25 624 31 632 31 z m 775 17 b 775 29 767 17 765 29 b 775 17 782 29 782 17 z m 729 19 b 729 10 724 19 724 10 b 729 19 735 10 735 19 z m 488 19 b 488 10 482 19 482 10 b 488 19 494 10 494 19 z "},"<":{"ha":846,"x_min":0,"x_max":0,"o":"m 374 826 l 75 479 l 374 107 l 760 107 l 468 471 l 772 826 z "},">":{"ha":1193,"x_min":0,"x_max":0,"o":"m 699 397 b 751 447 729 397 746 425 b 778 403 751 429 756 403 b 853 586 843 403 822 610 b 844 478 867 575 847 525 b 886 392 842 442 850 392 b 956 728 958 392 1007 592 b 763 860 921 821 846 871 b 601 721 682 849 613 785 b 633 647 594 679 613 647 b 669 689 646 647 660 660 b 797 786 689 749 742 786 b 878 756 825 786 853 776 b 913 424 985 667 946 431 b 911 540 892 419 908 525 b 863 611 919 588 893 611 b 817 561 836 611 822 596 b 797 474 806 481 794 442 b 782 611 804 543 824 611 b 753 581 763 611 756 600 b 717 438 751 563 747 438 b 703 463 703 438 703 463 b 711 554 703 501 711 533 b 685 590 711 579 699 590 b 646 492 647 590 646 507 b 699 397 646 447 660 397 z m 281 614 b 260 625 281 624 271 625 b 219 631 242 625 219 621 b 340 656 221 653 313 654 b 331 450 338 614 331 526 b 396 319 331 424 332 319 b 396 386 428 319 404 343 b 399 657 381 456 394 563 b 532 646 469 665 504 646 b 574 669 546 646 558 651 b 414 713 615 721 474 714 b 188 631 260 708 188 683 b 246 594 188 604 224 594 b 281 614 260 594 281 594 z m 690 596 b 718 635 710 596 718 619 b 689 669 718 653 708 669 b 660 635 669 669 660 651 b 690 596 660 614 669 596 z m 574 596 b 574 438 600 551 600 450 b 532 576 536 421 582 578 b 485 444 478 575 517 444 b 492 578 460 444 460 524 b 474 614 501 594 499 614 b 414 518 421 614 414 560 b 467 406 414 442 431 406 b 515 444 483 406 507 419 b 564 403 518 421 538 403 b 635 533 636 403 635 519 b 601 631 635 585 624 621 b 574 596 571 646 563 614 z m 657 360 b 633 393 658 381 647 393 b 608 358 614 393 608 379 l 544 357 b 519 393 544 381 538 393 b 496 357 500 393 496 378 b 414 353 435 357 403 399 b 497 325 424 314 475 325 b 453 135 494 292 504 135 b 424 192 428 135 419 172 b 436 304 465 225 494 304 b 336 136 360 304 401 136 b 289 460 269 136 379 407 b 258 468 279 465 268 468 b 242 436 244 468 233 460 b 249 211 272 347 249 288 b 311 101 249 142 272 101 b 379 135 338 101 363 117 b 435 101 390 114 413 101 b 499 158 468 101 490 128 b 551 106 497 129 525 106 b 614 161 582 106 606 136 b 661 108 618 142 636 108 b 707 157 683 108 699 139 b 767 101 710 129 736 101 b 826 164 800 101 818 138 b 851 96 826 125 836 97 b 917 269 907 90 863 260 b 935 217 944 274 953 235 b 907 204 925 206 907 218 b 944 179 907 183 929 176 b 932 301 997 190 990 301 b 869 247 907 301 875 272 b 833 303 872 272 860 297 b 814 289 826 304 814 301 b 825 226 814 269 828 260 b 772 135 822 192 808 135 b 749 192 746 135 746 174 b 769 307 808 217 826 307 b 674 153 703 307 713 153 b 657 324 643 153 656 304 b 878 329 729 324 810 325 b 1003 397 919 332 1003 338 b 990 401 1003 410 997 404 b 657 360 883 353 719 361 z m 546 325 l 608 325 b 560 146 606 299 606 143 b 546 325 533 147 547 297 z m 424 211 b 450 274 424 235 438 286 b 424 211 458 267 438 222 z m 751 211 b 778 275 753 226 764 272 l 781 275 b 788 265 785 275 788 272 b 751 211 788 258 786 228 z m 561 44 b 561 36 554 44 554 36 b 561 44 567 36 567 44 z m 601 11 l 610 11 l 610 44 l 601 44 z m 672 42 l 664 39 l 664 35 l 651 35 l 651 42 l 644 39 l 644 35 l 642 35 l 642 29 l 644 29 l 644 21 b 646 13 644 18 644 14 b 658 11 649 10 653 10 l 658 18 b 651 21 653 17 651 18 l 651 29 l 664 29 b 665 13 664 25 663 17 b 678 11 668 10 675 10 l 678 18 b 672 21 675 17 672 18 l 672 29 l 678 29 l 678 35 l 672 35 z m 507 42 l 499 39 l 499 35 l 496 35 l 496 29 l 499 29 b 500 13 499 24 497 17 b 513 11 503 10 508 10 l 513 18 b 507 21 508 17 507 18 l 507 29 l 513 29 l 513 35 l 507 35 z m 822 36 b 813 31 817 36 815 35 b 799 33 811 38 803 38 l 797 35 l 792 35 l 792 11 l 799 11 l 799 25 b 803 29 799 26 800 29 b 807 24 807 29 807 26 l 807 11 l 814 11 l 814 24 b 824 24 814 28 824 33 l 824 11 l 829 11 l 829 25 b 822 36 829 33 826 36 z m 693 36 b 681 22 685 36 681 31 b 706 13 681 11 693 7 l 703 18 b 690 21 700 17 690 14 l 706 21 b 693 36 706 31 700 36 z m 586 36 b 581 33 583 36 582 35 l 579 35 l 571 35 l 571 11 l 581 11 b 581 26 581 13 581 25 b 588 24 582 31 588 29 l 588 11 l 597 11 l 597 25 b 586 36 597 33 592 36 z m 715 31 l 715 35 l 710 35 b 710 11 710 31 710 17 l 717 11 b 717 25 717 13 717 25 b 726 28 717 26 722 29 l 726 36 b 715 31 722 36 718 35 z m 626 36 b 614 22 618 36 614 31 b 639 13 614 13 628 7 l 636 18 b 624 21 633 17 624 14 l 639 21 b 626 36 639 31 633 36 z m 775 36 b 775 10 757 36 757 10 b 775 36 792 10 792 36 z m 746 24 b 760 28 746 29 756 31 l 760 35 b 760 13 729 42 731 3 l 760 18 b 746 24 756 18 746 17 z m 543 18 l 538 35 l 532 35 l 528 18 l 525 35 l 517 35 l 524 11 l 531 11 l 535 26 l 540 11 l 547 11 l 553 35 l 546 35 z m 469 18 l 465 35 l 460 35 l 454 18 l 451 35 l 444 35 l 450 11 l 458 11 l 463 26 l 467 11 l 475 11 l 481 35 l 474 35 z m 432 18 l 428 35 l 421 35 l 417 18 l 414 35 l 407 35 l 413 11 l 419 11 l 425 26 l 429 11 l 436 11 l 443 35 l 435 35 z m 558 11 l 565 11 l 565 35 l 558 35 z m 394 18 l 390 35 l 383 35 l 379 18 l 376 35 l 368 35 l 375 11 l 382 11 l 386 26 l 392 11 l 399 11 l 404 35 l 397 35 z m 690 25 b 699 25 690 31 699 31 z m 624 25 b 632 25 624 31 632 31 z m 775 17 b 775 29 767 17 765 29 b 775 17 782 29 782 17 z m 729 19 b 729 10 724 19 724 10 b 729 19 735 10 735 19 z m 488 19 b 488 10 482 19 482 10 b 488 19 494 10 494 19 z "},"!":{"ha":535,"x_min":0,"x_max":0,"o":"m 103 261 l 432 261 l 460 1014 l 75 1014 z m 88 110 b 261 -10 88 36 156 -10 b 435 110 367 -10 435 36 b 261 228 435 181 367 228 b 88 110 156 228 88 181 z "},"?":{"ha":1044,"x_min":0,"x_max":0,"o":"m 75 1014 l 75 814 l 513 814 b 588 740 558 814 588 783 b 338 361 588 678 338 578 l 338 264 l 671 264 l 671 349 b 969 764 671 525 969 560 b 665 1014 969 964 861 1014 z m 333 110 b 507 -10 333 36 401 -10 b 681 110 613 -10 681 36 b 507 228 681 181 611 228 b 333 110 401 228 333 181 z "},"^":{"ha":756,"x_min":0,"x_max":0,"o":"m 75 435 l 301 435 l 376 663 l 456 435 l 681 435 l 469 972 l 285 972 z "},"":{"ha":879,"x_min":0,"x_max":0,"o":"m 321 794 b 356 875 321 856 333 875 b 554 786 400 875 481 786 b 731 1004 651 786 731 860 l 593 1004 b 560 924 593 944 581 924 b 357 1018 515 924 433 1018 b 190 794 261 1018 190 939 z "},"":{"ha":1193,"x_min":0,"x_max":0,"o":"m 699 397 b 751 447 729 397 746 425 b 778 403 751 429 756 403 b 853 586 843 403 822 610 b 844 478 867 575 847 525 b 886 392 842 442 850 392 b 956 728 958 392 1007 592 b 763 860 921 821 846 871 b 601 721 682 849 613 785 b 633 647 594 679 613 647 b 669 689 646 647 660 660 b 797 786 689 749 742 786 b 878 756 825 786 853 776 b 913 424 985 667 946 431 b 911 540 892 419 908 525 b 863 611 919 588 893 611 b 817 561 836 611 822 596 b 797 474 806 481 794 442 b 782 611 804 543 824 611 b 753 581 763 611 756 600 b 717 438 751 563 747 438 b 703 463 703 438 703 463 b 711 554 703 501 711 533 b 685 590 711 579 699 590 b 646 492 647 590 646 507 b 699 397 646 447 660 397 z m 281 614 b 260 625 281 624 271 625 b 219 631 242 625 219 621 b 340 656 221 653 313 654 b 331 450 338 614 331 526 b 396 319 331 424 332 319 b 396 386 428 319 404 343 b 399 657 381 456 394 563 b 532 646 469 665 504 646 b 574 669 546 646 558 651 b 414 713 615 721 474 714 b 188 631 260 708 188 683 b 246 594 188 604 224 594 b 281 614 260 594 281 594 z m 690 596 b 718 635 710 596 718 619 b 689 669 718 653 708 669 b 660 635 669 669 660 651 b 690 596 660 614 669 596 z m 574 596 b 574 438 600 551 600 450 b 532 576 536 421 582 578 b 485 444 478 575 517 444 b 492 578 460 444 460 524 b 474 614 501 594 499 614 b 414 518 421 614 414 560 b 467 406 414 442 431 406 b 515 444 483 406 507 419 b 564 403 518 421 538 403 b 635 533 636 403 635 519 b 601 631 635 585 624 621 b 574 596 571 646 563 614 z m 657 360 b 633 393 658 381 647 393 b 608 358 614 393 608 379 l 544 357 b 519 393 544 381 538 393 b 496 357 500 393 496 378 b 414 353 435 357 403 399 b 497 325 424 314 475 325 b 453 135 494 292 504 135 b 424 192 428 135 419 172 b 436 304 465 225 494 304 b 336 136 360 304 401 136 b 289 460 269 136 379 407 b 258 468 279 465 268 468 b 242 436 244 468 233 460 b 249 211 272 347 249 288 b 311 101 249 142 272 101 b 379 135 338 101 363 117 b 435 101 390 114 413 101 b 499 158 468 101 490 128 b 551 106 497 129 525 106 b 614 161 582 106 606 136 b 661 108 618 142 636 108 b 707 157 683 108 699 139 b 767 101 710 129 736 101 b 826 164 800 101 818 138 b 851 96 826 125 836 97 b 917 269 907 90 863 260 b 935 217 944 274 953 235 b 907 204 925 206 907 218 b 944 179 907 183 929 176 b 932 301 997 190 990 301 b 869 247 907 301 875 272 b 833 303 872 272 860 297 b 814 289 826 304 814 301 b 825 226 814 269 828 260 b 772 135 822 192 808 135 b 749 192 746 135 746 174 b 769 307 808 217 826 307 b 674 153 703 307 713 153 b 657 324 643 153 656 304 b 878 329 729 324 810 325 b 1003 397 919 332 1003 338 b 990 401 1003 410 997 404 b 657 360 883 353 719 361 z m 546 325 l 608 325 b 560 146 606 299 606 143 b 546 325 533 147 547 297 z m 424 211 b 450 274 424 235 438 286 b 424 211 458 267 438 222 z m 751 211 b 778 275 753 226 764 272 l 781 275 b 788 265 785 275 788 272 b 751 211 788 258 786 228 z m 561 44 b 561 36 554 44 554 36 b 561 44 567 36 567 44 z m 601 11 l 610 11 l 610 44 l 601 44 z m 672 42 l 664 39 l 664 35 l 651 35 l 651 42 l 644 39 l 644 35 l 642 35 l 642 29 l 644 29 l 644 21 b 646 13 644 18 644 14 b 658 11 649 10 653 10 l 658 18 b 651 21 653 17 651 18 l 651 29 l 664 29 b 665 13 664 25 663 17 b 678 11 668 10 675 10 l 678 18 b 672 21 675 17 672 18 l 672 29 l 678 29 l 678 35 l 672 35 z m 507 42 l 499 39 l 499 35 l 496 35 l 496 29 l 499 29 b 500 13 499 24 497 17 b 513 11 503 10 508 10 l 513 18 b 507 21 508 17 507 18 l 507 29 l 513 29 l 513 35 l 507 35 z m 822 36 b 813 31 817 36 815 35 b 799 33 811 38 803 38 l 797 35 l 792 35 l 792 11 l 799 11 l 799 25 b 803 29 799 26 800 29 b 807 24 807 29 807 26 l 807 11 l 814 11 l 814 24 b 824 24 814 28 824 33 l 824 11 l 829 11 l 829 25 b 822 36 829 33 826 36 z m 693 36 b 681 22 685 36 681 31 b 706 13 681 11 693 7 l 703 18 b 690 21 700 17 690 14 l 706 21 b 693 36 706 31 700 36 z m 586 36 b 581 33 583 36 582 35 l 579 35 l 571 35 l 571 11 l 581 11 b 581 26 581 13 581 25 b 588 24 582 31 588 29 l 588 11 l 597 11 l 597 25 b 586 36 597 33 592 36 z m 715 31 l 715 35 l 710 35 b 710 11 710 31 710 17 l 717 11 b 717 25 717 13 717 25 b 726 28 717 26 722 29 l 726 36 b 715 31 722 36 718 35 z m 626 36 b 614 22 618 36 614 31 b 639 13 614 13 628 7 l 636 18 b 624 21 633 17 624 14 l 639 21 b 626 36 639 31 633 36 z m 775 36 b 775 10 757 36 757 10 b 775 36 792 10 792 36 z m 746 24 b 760 28 746 29 756 31 l 760 35 b 760 13 729 42 731 3 l 760 18 b 746 24 756 18 746 17 z m 543 18 l 538 35 l 532 35 l 528 18 l 525 35 l 517 35 l 524 11 l 531 11 l 535 26 l 540 11 l 547 11 l 553 35 l 546 35 z m 469 18 l 465 35 l 460 35 l 454 18 l 451 35 l 444 35 l 450 11 l 458 11 l 463 26 l 467 11 l 475 11 l 481 35 l 474 35 z m 432 18 l 428 35 l 421 35 l 417 18 l 414 35 l 407 35 l 413 11 l 419 11 l 425 26 l 429 11 l 436 11 l 443 35 l 435 35 z m 558 11 l 565 11 l 565 35 l 558 35 z m 394 18 l 390 35 l 383 35 l 379 18 l 376 35 l 368 35 l 375 11 l 382 11 l 386 26 l 392 11 l 399 11 l 404 35 l 397 35 z m 690 25 b 699 25 690 31 699 31 z m 624 25 b 632 25 624 31 632 31 z m 775 17 b 775 29 767 17 765 29 b 775 17 782 29 782 17 z m 729 19 b 729 10 724 19 724 10 b 729 19 735 10 735 19 z m 488 19 b 488 10 482 19 482 10 b 488 19 494 10 494 19 z "},"$":{"ha":1193,"x_min":0,"x_max":0,"o":"m 699 397 b 751 447 729 397 746 425 b 778 403 751 429 756 403 b 853 586 843 403 822 610 b 844 478 867 575 847 525 b 886 392 842 442 850 392 b 956 728 958 392 1007 592 b 763 860 921 821 846 871 b 601 721 682 849 613 785 b 633 647 594 679 613 647 b 669 689 646 647 660 660 b 797 786 689 749 742 786 b 878 756 825 786 853 776 b 913 424 985 667 946 431 b 911 540 892 419 908 525 b 863 611 919 588 893 611 b 817 561 836 611 822 596 b 797 474 806 481 794 442 b 782 611 804 543 824 611 b 753 581 763 611 756 600 b 717 438 751 563 747 438 b 703 463 703 438 703 463 b 711 554 703 501 711 533 b 685 590 711 579 699 590 b 646 492 647 590 646 507 b 699 397 646 447 660 397 z m 281 614 b 260 625 281 624 271 625 b 219 631 242 625 219 621 b 340 656 221 653 313 654 b 331 450 338 614 331 526 b 396 319 331 424 332 319 b 396 386 428 319 404 343 b 399 657 381 456 394 563 b 532 646 469 665 504 646 b 574 669 546 646 558 651 b 414 713 615 721 474 714 b 188 631 260 708 188 683 b 246 594 188 604 224 594 b 281 614 260 594 281 594 z m 690 596 b 718 635 710 596 718 619 b 689 669 718 653 708 669 b 660 635 669 669 660 651 b 690 596 660 614 669 596 z m 574 596 b 574 438 600 551 600 450 b 532 576 536 421 582 578 b 485 444 478 575 517 444 b 492 578 460 444 460 524 b 474 614 501 594 499 614 b 414 518 421 614 414 560 b 467 406 414 442 431 406 b 515 444 483 406 507 419 b 564 403 518 421 538 403 b 635 533 636 403 635 519 b 601 631 635 585 624 621 b 574 596 571 646 563 614 z m 657 360 b 633 393 658 381 647 393 b 608 358 614 393 608 379 l 544 357 b 519 393 544 381 538 393 b 496 357 500 393 496 378 b 414 353 435 357 403 399 b 497 325 424 314 475 325 b 453 135 494 292 504 135 b 424 192 428 135 419 172 b 436 304 465 225 494 304 b 336 136 360 304 401 136 b 289 460 269 136 379 407 b 258 468 279 465 268 468 b 242 436 244 468 233 460 b 249 211 272 347 249 288 b 311 101 249 142 272 101 b 379 135 338 101 363 117 b 435 101 390 114 413 101 b 499 158 468 101 490 128 b 551 106 497 129 525 106 b 614 161 582 106 606 136 b 661 108 618 142 636 108 b 707 157 683 108 699 139 b 767 101 710 129 736 101 b 826 164 800 101 818 138 b 851 96 826 125 836 97 b 917 269 907 90 863 260 b 935 217 944 274 953 235 b 907 204 925 206 907 218 b 944 179 907 183 929 176 b 932 301 997 190 990 301 b 869 247 907 301 875 272 b 833 303 872 272 860 297 b 814 289 826 304 814 301 b 825 226 814 269 828 260 b 772 135 822 192 808 135 b 749 192 746 135 746 174 b 769 307 808 217 826 307 b 674 153 703 307 713 153 b 657 324 643 153 656 304 b 878 329 729 324 810 325 b 1003 397 919 332 1003 338 b 990 401 1003 410 997 404 b 657 360 883 353 719 361 z m 546 325 l 608 325 b 560 146 606 299 606 143 b 546 325 533 147 547 297 z m 424 211 b 450 274 424 235 438 286 b 424 211 458 267 438 222 z m 751 211 b 778 275 753 226 764 272 l 781 275 b 788 265 785 275 788 272 b 751 211 788 258 786 228 z m 561 44 b 561 36 554 44 554 36 b 561 44 567 36 567 44 z m 601 11 l 610 11 l 610 44 l 601 44 z m 672 42 l 664 39 l 664 35 l 651 35 l 651 42 l 644 39 l 644 35 l 642 35 l 642 29 l 644 29 l 644 21 b 646 13 644 18 644 14 b 658 11 649 10 653 10 l 658 18 b 651 21 653 17 651 18 l 651 29 l 664 29 b 665 13 664 25 663 17 b 678 11 668 10 675 10 l 678 18 b 672 21 675 17 672 18 l 672 29 l 678 29 l 678 35 l 672 35 z m 507 42 l 499 39 l 499 35 l 496 35 l 496 29 l 499 29 b 500 13 499 24 497 17 b 513 11 503 10 508 10 l 513 18 b 507 21 508 17 507 18 l 507 29 l 513 29 l 513 35 l 507 35 z m 822 36 b 813 31 817 36 815 35 b 799 33 811 38 803 38 l 797 35 l 792 35 l 792 11 l 799 11 l 799 25 b 803 29 799 26 800 29 b 807 24 807 29 807 26 l 807 11 l 814 11 l 814 24 b 824 24 814 28 824 33 l 824 11 l 829 11 l 829 25 b 822 36 829 33 826 36 z m 693 36 b 681 22 685 36 681 31 b 706 13 681 11 693 7 l 703 18 b 690 21 700 17 690 14 l 706 21 b 693 36 706 31 700 36 z m 586 36 b 581 33 583 36 582 35 l 579 35 l 571 35 l 571 11 l 581 11 b 581 26 581 13 581 25 b 588 24 582 31 588 29 l 588 11 l 597 11 l 597 25 b 586 36 597 33 592 36 z m 715 31 l 715 35 l 710 35 b 710 11 710 31 710 17 l 717 11 b 717 25 717 13 717 25 b 726 28 717 26 722 29 l 726 36 b 715 31 722 36 718 35 z m 626 36 b 614 22 618 36 614 31 b 639 13 614 13 628 7 l 636 18 b 624 21 633 17 624 14 l 639 21 b 626 36 639 31 633 36 z m 775 36 b 775 10 757 36 757 10 b 775 36 792 10 792 36 z m 746 24 b 760 28 746 29 756 31 l 760 35 b 760 13 729 42 731 3 l 760 18 b 746 24 756 18 746 17 z m 543 18 l 538 35 l 532 35 l 528 18 l 525 35 l 517 35 l 524 11 l 531 11 l 535 26 l 540 11 l 547 11 l 553 35 l 546 35 z m 469 18 l 465 35 l 460 35 l 454 18 l 451 35 l 444 35 l 450 11 l 458 11 l 463 26 l 467 11 l 475 11 l 481 35 l 474 35 z m 432 18 l 428 35 l 421 35 l 417 18 l 414 35 l 407 35 l 413 11 l 419 11 l 425 26 l 429 11 l 436 11 l 443 35 l 435 35 z m 558 11 l 565 11 l 565 35 l 558 35 z m 394 18 l 390 35 l 383 35 l 379 18 l 376 35 l 368 35 l 375 11 l 382 11 l 386 26 l 392 11 l 399 11 l 404 35 l 397 35 z m 690 25 b 699 25 690 31 699 31 z m 624 25 b 632 25 624 31 632 31 z m 775 17 b 775 29 767 17 765 29 b 775 17 782 29 782 17 z m 729 19 b 729 10 724 19 724 10 b 729 19 735 10 735 19 z m 488 19 b 488 10 482 19 482 10 b 488 19 494 10 494 19 z "}}}
